  0
SECTION
  2
HEADER
  9
$ACADVER
  1
AC1014
  9
$HANDSEED
  5
FFFF
  9
$INSUNITS
 70
     4
  9
$MEASUREMENT
 70
     1
  0
ENDSEC
  0
SECTION
  2
TABLES
  0
TABLE
  2
VPORT
  5
8
330
0
100
AcDbSymbolTable
 70
     4
  0
VPORT
  5
2E
330
8
100
AcDbSymbolTableRecord
100
AcDbViewportTableRecord
  2
*ACTIVE
 70
     0
 10
0.0
 20
0.0
 11
1.0
 21
1.0
 12
210.0
 22
148.5
 13
0.0
 23
0.0
 14
10.0
 24
10.0
 15
10.0
 25
10.0
 16
0.0
 26
0.0
 36
1.0
 17
0.0
 27
0.0
 37
0.0
 40
341.0
 41
1.24
 42
50.0
 43
0.0
 44
0.0
 50
0.0
 51
0.0
 71
     0
 72
   100
 73
     1
 74
     3
 75
     0
 76
     0
 77
     0
 78
     0
  0
ENDTAB
  0
TABLE
  2
LTYPE
  5
5
330
0
100
AcDbSymbolTable
 70
     1
  0
LTYPE
  5
14
330
5
100
AcDbSymbolTableRecord
100
AcDbLinetypeTableRecord
  2
BYBLOCK
 70
     0
  3

 72
    65
 73
     0
 40
0.0
  0
LTYPE
  5
15
330
5
100
AcDbSymbolTableRecord
100
AcDbLinetypeTableRecord
  2
BYLAYER
 70
     0
  3

 72
    65
 73
     0
 40
0.0
  0
LTYPE
  5
16
330
5
100
AcDbSymbolTableRecord
100
AcDbLinetypeTableRecord
  2
CONTINUOUS
 70
     0
  3
Solid line
 72
    65
 73
     0
 40
0.0
  0
ENDTAB
  0
TABLE
  2
LAYER
  5
2
100
AcDbSymbolTable
 70
2
  0
LAYER
  5
50
100
AcDbSymbolTableRecord
100
AcDbLayerTableRecord
  2
0
 70
0
  6
CONTINUOUS
  0
LAYER
  5
51
100
AcDbSymbolTableRecord
100
AcDbLayerTableRecord
  2
Calque_1
 70
0
  6
CONTINUOUS
  0
ENDTAB
  0
TABLE
  2
STYLE
  5
3
330
0
100
AcDbSymbolTable
 70
     1
  0
STYLE
  5
11
330
3
100
AcDbSymbolTableRecord
100
AcDbTextStyleTableRecord
  2
STANDARD
 70
     0
 40
0.0
 41
1.0
 50
0.0
 71
     0
 42
2.5
  3
txt
  4

  0
ENDTAB
  0
TABLE
  2
VIEW
  5
6
330
0
100
AcDbSymbolTable
 70
     0
  0
ENDTAB
  0
TABLE
  2
UCS
  5
7
330
0
100
AcDbSymbolTable
 70
     0
  0
ENDTAB
  0
TABLE
  2
APPID
  5
9
330
0
100
AcDbSymbolTable
 70
     2
  0
APPID
  5
12
330
9
100
AcDbSymbolTableRecord
100
AcDbRegAppTableRecord
  2
ACAD
 70
     0
  0
ENDTAB
  0
TABLE
  2
DIMSTYLE
  5
A
330
0
100
AcDbSymbolTable
 70
     1
  0
DIMSTYLE
105
27
330
A
100
AcDbSymbolTableRecord
100
AcDbDimStyleTableRecord
  2
ISO-25
 70
     0
  3

  4

  5

  6

  7

 40
1.0
 41
2.5
 42
0.625
 43
3.75
 44
1.25
 45
0.0
 46
0.0
 47
0.0
 48
0.0
140
2.5
141
2.5
142
0.0
143
0.03937007874016
144
1.0
145
0.0
146
1.0
147
0.625
 71
     0
 72
     0
 73
     0
 74
     0
 75
     0
 76
     0
 77
     1
 78
     8
170
     0
171
     3
172
     1
173
     0
174
     0
175
     0
176
     0
177
     0
178
     0
270
     2
271
     2
272
     2
273
     2
274
     3
340
11
275
     0
280
     0
281
     0
282
     0
283
     0
284
     8
285
     0
286
     0
287
     3
288
     0
  0
ENDTAB
  0
TABLE
  2
BLOCK_RECORD
  5
1
330
0
100
AcDbSymbolTable
 70
     1
  0
BLOCK_RECORD
  5
1F
330
1
100
AcDbSymbolTableRecord
100
AcDbBlockTableRecord
  2
*MODEL_SPACE
  0
BLOCK_RECORD
  5
1B
330
1
100
AcDbSymbolTableRecord
100
AcDbBlockTableRecord
  2
*PAPER_SPACE
  0
ENDTAB
  0
ENDSEC
  0
SECTION
  2
BLOCKS
  0
BLOCK
  5
20
330
1F
100
AcDbEntity
  8
0
100
AcDbBlockBegin
  2
*MODEL_SPACE
 70
     0
 10
0.0
 20
0.0
 30
0.0
  3
*MODEL_SPACE
  1

  0
ENDBLK
  5
21
330
1F
100
AcDbEntity
  8
0
100
AcDbBlockEnd
  0
BLOCK
  5
1C
330
1B
100
AcDbEntity
 67
     1
  8
0
100
AcDbBlockBegin
  2
*PAPER_SPACE
  1

  0
ENDBLK
  5
1D
330
1B
100
AcDbEntity
 67
     1
  8
0
100
AcDbBlockEnd
  0
ENDSEC
  0
SECTION
  2
ENTITIES
  0
SPLINE
  5
100
100
AcDbEntity
  8
Calque_1
 62
7
100
AcDbSpline
 70
8
 71
3
 72
8
 73
4
 74
0
 40
0
 40
0
 40
0
 40
0
 40
1
 40
1
 40
1
 40
1
 10
29.031433
 20
203.458920
 30
0.0
 10
26.159751
 20
203.458920
 30
0.0
 10
23.570833
 20
201.729061
 30
0.0
 10
22.471888
 20
199.075972
 30
0.0
  0
SPLINE
  5
101
100
AcDbEntity
  8
Calque_1
 62
7
100
AcDbSpline
 70
8
 71
3
 72
8
 73
4
 74
0
 40
0
 40
0
 40
0
 40
0
 40
1
 40
1
 40
1
 40
1
 10
22.471888
 20
199.075972
 30
0.0
 10
21.372943
 20
196.422884
 30
0.0
 10
21.980389
 20
193.369048
 30
0.0
 10
24.010974
 20
191.338462
 30
0.0
  0
SPLINE
  5
102
100
AcDbEntity
  8
Calque_1
 62
7
100
AcDbSpline
 70
8
 71
3
 72
8
 73
4
 74
0
 40
0
 40
0
 40
0
 40
0
 40
1
 40
1
 40
1
 40
1
 10
24.010974
 20
191.338462
 30
0.0
 10
26.041560
 20
189.307876
 30
0.0
 10
29.095397
 20
188.700430
 30
0.0
 10
31.748485
 20
189.799375
 30
0.0
  0
SPLINE
  5
103
100
AcDbEntity
  8
Calque_1
 62
7
100
AcDbSpline
 70
8
 71
3
 72
8
 73
4
 74
0
 40
0
 40
0
 40
0
 40
0
 40
1
 40
1
 40
1
 40
1
 10
31.748485
 20
189.799375
 30
0.0
 10
34.401573
 20
190.898320
 30
0.0
 10
36.131433
 20
193.487238
 30
0.0
 10
36.131433
 20
196.358920
 30
0.0
  0
SPLINE
  5
104
100
AcDbEntity
  8
Calque_1
 62
7
100
AcDbSpline
 70
8
 71
3
 72
8
 73
4
 74
0
 40
0
 40
0
 40
0
 40
0
 40
1
 40
1
 40
1
 40
1
 10
36.131433
 20
196.358920
 30
0.0
 10
36.131433
 20
198.241957
 30
0.0
 10
35.383399
 20
200.047870
 30
0.0
 10
34.051891
 20
201.379378
 30
0.0
  0
SPLINE
  5
105
100
AcDbEntity
  8
Calque_1
 62
7
100
AcDbSpline
 70
8
 71
3
 72
8
 73
4
 74
0
 40
0
 40
0
 40
0
 40
0
 40
1
 40
1
 40
1
 40
1
 10
34.051891
 20
201.379378
 30
0.0
 10
32.720382
 20
202.710886
 30
0.0
 10
30.914470
 20
203.458920
 30
0.0
 10
29.031432
 20
203.458920
 30
0.0
  0
LINE
  5
106
100
AcDbEntity
  8
Calque_1
 62
7
100
AcDbLine
 10
29.031432
 20
203.458920
 30
0.0
 11
29.031433
 21
203.458920
 31
0.0
  0
SPLINE
  5
107
100
AcDbEntity
  8
Calque_1
 62
7
100
AcDbSpline
 70
8
 71
3
 72
8
 73
4
 74
0
 40
0
 40
0
 40
0
 40
0
 40
1
 40
1
 40
1
 40
1
 10
43.210246
 20
203.458920
 30
0.0
 10
40.338565
 20
203.458920
 30
0.0
 10
37.749647
 20
201.729061
 30
0.0
 10
36.650702
 20
199.075972
 30
0.0
  0
SPLINE
  5
108
100
AcDbEntity
  8
Calque_1
 62
7
100
AcDbSpline
 70
8
 71
3
 72
8
 73
4
 74
0
 40
0
 40
0
 40
0
 40
0
 40
1
 40
1
 40
1
 40
1
 10
36.650702
 20
199.075972
 30
0.0
 10
35.551757
 20
196.422884
 30
0.0
 10
36.159203
 20
193.369048
 30
0.0
 10
38.189788
 20
191.338462
 30
0.0
  0
SPLINE
  5
109
100
AcDbEntity
  8
Calque_1
 62
7
100
AcDbSpline
 70
8
 71
3
 72
8
 73
4
 74
0
 40
0
 40
0
 40
0
 40
0
 40
1
 40
1
 40
1
 40
1
 10
38.189788
 20
191.338462
 30
0.0
 10
40.220374
 20
189.307876
 30
0.0
 10
43.274211
 20
188.700430
 30
0.0
 10
45.927299
 20
189.799375
 30
0.0
  0
SPLINE
  5
10a
100
AcDbEntity
  8
Calque_1
 62
7
100
AcDbSpline
 70
8
 71
3
 72
8
 73
4
 74
0
 40
0
 40
0
 40
0
 40
0
 40
1
 40
1
 40
1
 40
1
 10
45.927299
 20
189.799375
 30
0.0
 10
48.580387
 20
190.898320
 30
0.0
 10
50.310246
 20
193.487238
 30
0.0
 10
50.310246
 20
196.358920
 30
0.0
  0
SPLINE
  5
10b
100
AcDbEntity
  8
Calque_1
 62
7
100
AcDbSpline
 70
8
 71
3
 72
8
 73
4
 74
0
 40
0
 40
0
 40
0
 40
0
 40
1
 40
1
 40
1
 40
1
 10
50.310246
 20
196.358920
 30
0.0
 10
50.310246
 20
198.241957
 30
0.0
 10
49.562213
 20
200.047870
 30
0.0
 10
48.230705
 20
201.379378
 30
0.0
  0
SPLINE
  5
10c
100
AcDbEntity
  8
Calque_1
 62
7
100
AcDbSpline
 70
8
 71
3
 72
8
 73
4
 74
0
 40
0
 40
0
 40
0
 40
0
 40
1
 40
1
 40
1
 40
1
 10
48.230705
 20
201.379378
 30
0.0
 10
46.899196
 20
202.710886
 30
0.0
 10
45.093284
 20
203.458920
 30
0.0
 10
43.210246
 20
203.458920
 30
0.0
  0
LINE
  5
10d
100
AcDbEntity
  8
Calque_1
 62
7
100
AcDbLine
 10
43.210246
 20
203.458920
 30
0.0
 11
43.210246
 21
203.458920
 31
0.0
  0
SPLINE
  5
10e
100
AcDbEntity
  8
Calque_1
 62
7
100
AcDbSpline
 70
8
 71
3
 72
8
 73
4
 74
0
 40
0
 40
0
 40
0
 40
0
 40
1
 40
1
 40
1
 40
1
 10
57.389060
 20
203.458920
 30
0.0
 10
54.517379
 20
203.458920
 30
0.0
 10
51.928461
 20
201.729061
 30
0.0
 10
50.829516
 20
199.075972
 30
0.0
  0
SPLINE
  5
10f
100
AcDbEntity
  8
Calque_1
 62
7
100
AcDbSpline
 70
8
 71
3
 72
8
 73
4
 74
0
 40
0
 40
0
 40
0
 40
0
 40
1
 40
1
 40
1
 40
1
 10
50.829516
 20
199.075972
 30
0.0
 10
49.730571
 20
196.422884
 30
0.0
 10
50.338017
 20
193.369048
 30
0.0
 10
52.368602
 20
191.338462
 30
0.0
  0
SPLINE
  5
110
100
AcDbEntity
  8
Calque_1
 62
7
100
AcDbSpline
 70
8
 71
3
 72
8
 73
4
 74
0
 40
0
 40
0
 40
0
 40
0
 40
1
 40
1
 40
1
 40
1
 10
52.368602
 20
191.338462
 30
0.0
 10
54.399188
 20
189.307876
 30
0.0
 10
57.453025
 20
188.700430
 30
0.0
 10
60.106113
 20
189.799375
 30
0.0
  0
SPLINE
  5
111
100
AcDbEntity
  8
Calque_1
 62
7
100
AcDbSpline
 70
8
 71
3
 72
8
 73
4
 74
0
 40
0
 40
0
 40
0
 40
0
 40
1
 40
1
 40
1
 40
1
 10
60.106113
 20
189.799375
 30
0.0
 10
62.759201
 20
190.898320
 30
0.0
 10
64.489061
 20
193.487238
 30
0.0
 10
64.489061
 20
196.358920
 30
0.0
  0
SPLINE
  5
112
100
AcDbEntity
  8
Calque_1
 62
7
100
AcDbSpline
 70
8
 71
3
 72
8
 73
4
 74
0
 40
0
 40
0
 40
0
 40
0
 40
1
 40
1
 40
1
 40
1
 10
64.489061
 20
196.358920
 30
0.0
 10
64.489061
 20
198.241957
 30
0.0
 10
63.741027
 20
200.047870
 30
0.0
 10
62.409519
 20
201.379378
 30
0.0
  0
SPLINE
  5
113
100
AcDbEntity
  8
Calque_1
 62
7
100
AcDbSpline
 70
8
 71
3
 72
8
 73
4
 74
0
 40
0
 40
0
 40
0
 40
0
 40
1
 40
1
 40
1
 40
1
 10
62.409519
 20
201.379378
 30
0.0
 10
61.078010
 20
202.710886
 30
0.0
 10
59.272098
 20
203.458920
 30
0.0
 10
57.389060
 20
203.458920
 30
0.0
  0
LINE
  5
114
100
AcDbEntity
  8
Calque_1
 62
7
100
AcDbLine
 10
57.389060
 20
203.458920
 30
0.0
 11
57.389060
 21
203.458920
 31
0.0
  0
SPLINE
  5
115
100
AcDbEntity
  8
Calque_1
 62
7
100
AcDbSpline
 70
8
 71
3
 72
8
 73
4
 74
0
 40
0
 40
0
 40
0
 40
0
 40
1
 40
1
 40
1
 40
1
 10
71.567880
 20
203.458920
 30
0.0
 10
68.696198
 20
203.458920
 30
0.0
 10
66.107280
 20
201.729061
 30
0.0
 10
65.008335
 20
199.075972
 30
0.0
  0
SPLINE
  5
116
100
AcDbEntity
  8
Calque_1
 62
7
100
AcDbSpline
 70
8
 71
3
 72
8
 73
4
 74
0
 40
0
 40
0
 40
0
 40
0
 40
1
 40
1
 40
1
 40
1
 10
65.008335
 20
199.075972
 30
0.0
 10
63.909390
 20
196.422884
 30
0.0
 10
64.516836
 20
193.369048
 30
0.0
 10
66.547422
 20
191.338462
 30
0.0
  0
SPLINE
  5
117
100
AcDbEntity
  8
Calque_1
 62
7
100
AcDbSpline
 70
8
 71
3
 72
8
 73
4
 74
0
 40
0
 40
0
 40
0
 40
0
 40
1
 40
1
 40
1
 40
1
 10
66.547422
 20
191.338462
 30
0.0
 10
68.578008
 20
189.307876
 30
0.0
 10
71.631844
 20
188.700430
 30
0.0
 10
74.284932
 20
189.799375
 30
0.0
  0
SPLINE
  5
118
100
AcDbEntity
  8
Calque_1
 62
7
100
AcDbSpline
 70
8
 71
3
 72
8
 73
4
 74
0
 40
0
 40
0
 40
0
 40
0
 40
1
 40
1
 40
1
 40
1
 10
74.284932
 20
189.799375
 30
0.0
 10
76.938021
 20
190.898320
 30
0.0
 10
78.667880
 20
193.487238
 30
0.0
 10
78.667880
 20
196.358920
 30
0.0
  0
SPLINE
  5
119
100
AcDbEntity
  8
Calque_1
 62
7
100
AcDbSpline
 70
8
 71
3
 72
8
 73
4
 74
0
 40
0
 40
0
 40
0
 40
0
 40
1
 40
1
 40
1
 40
1
 10
78.667880
 20
196.358920
 30
0.0
 10
78.667880
 20
198.241957
 30
0.0
 10
77.919846
 20
200.047870
 30
0.0
 10
76.588338
 20
201.379378
 30
0.0
  0
SPLINE
  5
11a
100
AcDbEntity
  8
Calque_1
 62
7
100
AcDbSpline
 70
8
 71
3
 72
8
 73
4
 74
0
 40
0
 40
0
 40
0
 40
0
 40
1
 40
1
 40
1
 40
1
 10
76.588338
 20
201.379378
 30
0.0
 10
75.256830
 20
202.710886
 30
0.0
 10
73.450917
 20
203.458920
 30
0.0
 10
71.567880
 20
203.458920
 30
0.0
  0
LINE
  5
11b
100
AcDbEntity
  8
Calque_1
 62
7
100
AcDbLine
 10
71.567880
 20
203.458920
 30
0.0
 11
71.567880
 21
203.458920
 31
0.0
  0
SPLINE
  5
11c
100
AcDbEntity
  8
Calque_1
 62
7
100
AcDbSpline
 70
8
 71
3
 72
8
 73
4
 74
0
 40
0
 40
0
 40
0
 40
0
 40
1
 40
1
 40
1
 40
1
 10
85.746690
 20
203.458920
 30
0.0
 10
82.875008
 20
203.458920
 30
0.0
 10
80.286090
 20
201.729061
 30
0.0
 10
79.187145
 20
199.075972
 30
0.0
  0
SPLINE
  5
11d
100
AcDbEntity
  8
Calque_1
 62
7
100
AcDbSpline
 70
8
 71
3
 72
8
 73
4
 74
0
 40
0
 40
0
 40
0
 40
0
 40
1
 40
1
 40
1
 40
1
 10
79.187145
 20
199.075972
 30
0.0
 10
78.088200
 20
196.422884
 30
0.0
 10
78.695646
 20
193.369048
 30
0.0
 10
80.726232
 20
191.338462
 30
0.0
  0
SPLINE
  5
11e
100
AcDbEntity
  8
Calque_1
 62
7
100
AcDbSpline
 70
8
 71
3
 72
8
 73
4
 74
0
 40
0
 40
0
 40
0
 40
0
 40
1
 40
1
 40
1
 40
1
 10
80.726232
 20
191.338462
 30
0.0
 10
82.756818
 20
189.307876
 30
0.0
 10
85.810654
 20
188.700430
 30
0.0
 10
88.463742
 20
189.799375
 30
0.0
  0
SPLINE
  5
11f
100
AcDbEntity
  8
Calque_1
 62
7
100
AcDbSpline
 70
8
 71
3
 72
8
 73
4
 74
0
 40
0
 40
0
 40
0
 40
0
 40
1
 40
1
 40
1
 40
1
 10
88.463742
 20
189.799375
 30
0.0
 10
91.116831
 20
190.898320
 30
0.0
 10
92.846690
 20
193.487238
 30
0.0
 10
92.846690
 20
196.358920
 30
0.0
  0
SPLINE
  5
120
100
AcDbEntity
  8
Calque_1
 62
7
100
AcDbSpline
 70
8
 71
3
 72
8
 73
4
 74
0
 40
0
 40
0
 40
0
 40
0
 40
1
 40
1
 40
1
 40
1
 10
92.846690
 20
196.358920
 30
0.0
 10
92.846690
 20
200.280142
 30
0.0
 10
89.667912
 20
203.458920
 30
0.0
 10
85.746690
 20
203.458920
 30
0.0
  0
LINE
  5
121
100
AcDbEntity
  8
Calque_1
 62
7
100
AcDbLine
 10
85.746690
 20
203.458920
 30
0.0
 11
85.746690
 21
203.458920
 31
0.0
  0
SPLINE
  5
122
100
AcDbEntity
  8
Calque_1
 62
7
100
AcDbSpline
 70
8
 71
3
 72
8
 73
4
 74
0
 40
0
 40
0
 40
0
 40
0
 40
1
 40
1
 40
1
 40
1
 10
99.925505
 20
203.458920
 30
0.0
 10
97.053823
 20
203.458920
 30
0.0
 10
94.464905
 20
201.729061
 30
0.0
 10
93.365960
 20
199.075972
 30
0.0
  0
SPLINE
  5
123
100
AcDbEntity
  8
Calque_1
 62
7
100
AcDbSpline
 70
8
 71
3
 72
8
 73
4
 74
0
 40
0
 40
0
 40
0
 40
0
 40
1
 40
1
 40
1
 40
1
 10
93.365960
 20
199.075972
 30
0.0
 10
92.267015
 20
196.422884
 30
0.0
 10
92.874461
 20
193.369048
 30
0.0
 10
94.905047
 20
191.338462
 30
0.0
  0
SPLINE
  5
124
100
AcDbEntity
  8
Calque_1
 62
7
100
AcDbSpline
 70
8
 71
3
 72
8
 73
4
 74
0
 40
0
 40
0
 40
0
 40
0
 40
1
 40
1
 40
1
 40
1
 10
94.905047
 20
191.338462
 30
0.0
 10
96.935633
 20
189.307876
 30
0.0
 10
99.989469
 20
188.700430
 30
0.0
 10
102.642557
 20
189.799375
 30
0.0
  0
SPLINE
  5
125
100
AcDbEntity
  8
Calque_1
 62
7
100
AcDbSpline
 70
8
 71
3
 72
8
 73
4
 74
0
 40
0
 40
0
 40
0
 40
0
 40
1
 40
1
 40
1
 40
1
 10
102.642557
 20
189.799375
 30
0.0
 10
105.295646
 20
190.898320
 30
0.0
 10
107.025505
 20
193.487238
 30
0.0
 10
107.025505
 20
196.358920
 30
0.0
  0
SPLINE
  5
126
100
AcDbEntity
  8
Calque_1
 62
7
100
AcDbSpline
 70
8
 71
3
 72
8
 73
4
 74
0
 40
0
 40
0
 40
0
 40
0
 40
1
 40
1
 40
1
 40
1
 10
107.025505
 20
196.358920
 30
0.0
 10
107.025505
 20
198.241957
 30
0.0
 10
106.277471
 20
200.047870
 30
0.0
 10
104.945963
 20
201.379378
 30
0.0
  0
SPLINE
  5
127
100
AcDbEntity
  8
Calque_1
 62
7
100
AcDbSpline
 70
8
 71
3
 72
8
 73
4
 74
0
 40
0
 40
0
 40
0
 40
0
 40
1
 40
1
 40
1
 40
1
 10
104.945963
 20
201.379378
 30
0.0
 10
103.614455
 20
202.710886
 30
0.0
 10
101.808542
 20
203.458920
 30
0.0
 10
99.925505
 20
203.458920
 30
0.0
  0
LINE
  5
128
100
AcDbEntity
  8
Calque_1
 62
7
100
AcDbLine
 10
99.925505
 20
203.458920
 30
0.0
 11
99.925505
 21
203.458920
 31
0.0
  0
LINE
  5
129
100
AcDbEntity
  8
Calque_1
 62
7
100
AcDbLine
 10
14.831203
 20
203.556152
 30
0.0
 11
114.125698
 21
203.556152
 31
0.0
  0
LINE
  5
12a
100
AcDbEntity
  8
Calque_1
 62
7
100
AcDbLine
 10
114.125698
 20
203.556152
 30
0.0
 11
114.125698
 21
189.161660
 31
0.0
  0
LINE
  5
12b
100
AcDbEntity
  8
Calque_1
 62
7
100
AcDbLine
 10
114.125698
 20
189.161660
 30
0.0
 11
14.831203
 21
189.161660
 31
0.0
  0
LINE
  5
12c
100
AcDbEntity
  8
Calque_1
 62
7
100
AcDbLine
 10
14.831203
 20
189.161660
 30
0.0
 11
14.831203
 21
203.556152
 31
0.0
  0
LINE
  5
12d
100
AcDbEntity
  8
Calque_1
 62
7
100
AcDbLine
 10
58.143757
 20
196.801400
 30
0.0
 11
72.228746
 21
196.801400
 31
0.0
  0
LINE
  5
12e
100
AcDbEntity
  8
Calque_1
 62
7
100
AcDbLine
 10
72.228746
 20
196.801400
 30
0.0
 11
72.228746
 21
195.916412
 31
0.0
  0
LINE
  5
12f
100
AcDbEntity
  8
Calque_1
 62
7
100
AcDbLine
 10
72.228746
 20
195.916412
 30
0.0
 11
58.143757
 21
195.916412
 31
0.0
  0
LINE
  5
130
100
AcDbEntity
  8
Calque_1
 62
7
100
AcDbLine
 10
58.143757
 20
195.916412
 30
0.0
 11
58.143757
 21
196.801400
 31
0.0
  0
LINE
  5
131
100
AcDbEntity
  8
Calque_1
 62
7
100
AcDbLine
 10
28.528587
 20
196.801400
 30
0.0
 11
42.613576
 21
196.801400
 31
0.0
  0
LINE
  5
132
100
AcDbEntity
  8
Calque_1
 62
7
100
AcDbLine
 10
42.613576
 20
196.801400
 30
0.0
 11
42.613576
 21
195.916412
 31
0.0
  0
LINE
  5
133
100
AcDbEntity
  8
Calque_1
 62
7
100
AcDbLine
 10
42.613576
 20
195.916412
 30
0.0
 11
28.528587
 21
195.916412
 31
0.0
  0
LINE
  5
134
100
AcDbEntity
  8
Calque_1
 62
7
100
AcDbLine
 10
28.528587
 20
195.916412
 30
0.0
 11
28.528587
 21
196.801400
 31
0.0
  0
LINE
  5
135
100
AcDbEntity
  8
Calque_1
 62
7
100
AcDbLine
 10
85.677429
 20
196.801400
 30
0.0
 11
99.762418
 21
196.801400
 31
0.0
  0
LINE
  5
136
100
AcDbEntity
  8
Calque_1
 62
7
100
AcDbLine
 10
99.762418
 20
196.801400
 30
0.0
 11
99.762418
 21
195.916412
 31
0.0
  0
LINE
  5
137
100
AcDbEntity
  8
Calque_1
 62
7
100
AcDbLine
 10
99.762418
 20
195.916412
 30
0.0
 11
85.677429
 21
195.916412
 31
0.0
  0
LINE
  5
138
100
AcDbEntity
  8
Calque_1
 62
7
100
AcDbLine
 10
85.677429
 20
195.916412
 30
0.0
 11
85.677429
 21
196.801400
 31
0.0
  0
SPLINE
  5
139
100
AcDbEntity
  8
Calque_1
 62
7
100
AcDbSpline
 70
8
 71
3
 72
8
 73
4
 74
0
 40
0
 40
0
 40
0
 40
0
 40
1
 40
1
 40
1
 40
1
 10
30.302732
 20
186.525620
 30
0.0
 10
27.431051
 20
186.525620
 30
0.0
 10
24.842133
 20
184.795761
 30
0.0
 10
23.743188
 20
182.142672
 30
0.0
  0
SPLINE
  5
13a
100
AcDbEntity
  8
Calque_1
 62
7
100
AcDbSpline
 70
8
 71
3
 72
8
 73
4
 74
0
 40
0
 40
0
 40
0
 40
0
 40
1
 40
1
 40
1
 40
1
 10
23.743188
 20
182.142672
 30
0.0
 10
22.644243
 20
179.489584
 30
0.0
 10
23.251689
 20
176.435748
 30
0.0
 10
25.282274
 20
174.405162
 30
0.0
  0
SPLINE
  5
13b
100
AcDbEntity
  8
Calque_1
 62
7
100
AcDbSpline
 70
8
 71
3
 72
8
 73
4
 74
0
 40
0
 40
0
 40
0
 40
0
 40
1
 40
1
 40
1
 40
1
 10
25.282274
 20
174.405162
 30
0.0
 10
27.312860
 20
172.374576
 30
0.0
 10
30.366697
 20
171.767130
 30
0.0
 10
33.019785
 20
172.866075
 30
0.0
  0
SPLINE
  5
13c
100
AcDbEntity
  8
Calque_1
 62
7
100
AcDbSpline
 70
8
 71
3
 72
8
 73
4
 74
0
 40
0
 40
0
 40
0
 40
0
 40
1
 40
1
 40
1
 40
1
 10
33.019785
 20
172.866075
 30
0.0
 10
35.672873
 20
173.965020
 30
0.0
 10
37.402732
 20
176.553938
 30
0.0
 10
37.402732
 20
179.425620
 30
0.0
  0
SPLINE
  5
13d
100
AcDbEntity
  8
Calque_1
 62
7
100
AcDbSpline
 70
8
 71
3
 72
8
 73
4
 74
0
 40
0
 40
0
 40
0
 40
0
 40
1
 40
1
 40
1
 40
1
 10
37.402732
 20
179.425620
 30
0.0
 10
37.402732
 20
181.308657
 30
0.0
 10
36.654699
 20
183.114570
 30
0.0
 10
35.323191
 20
184.446078
 30
0.0
  0
SPLINE
  5
13e
100
AcDbEntity
  8
Calque_1
 62
7
100
AcDbSpline
 70
8
 71
3
 72
8
 73
4
 74
0
 40
0
 40
0
 40
0
 40
0
 40
1
 40
1
 40
1
 40
1
 10
35.323191
 20
184.446078
 30
0.0
 10
33.991682
 20
185.777586
 30
0.0
 10
32.185770
 20
186.525620
 30
0.0
 10
30.302732
 20
186.525620
 30
0.0
  0
LINE
  5
13f
100
AcDbEntity
  8
Calque_1
 62
7
100
AcDbLine
 10
30.302732
 20
186.525620
 30
0.0
 11
30.302732
 21
186.525620
 31
0.0
  0
SPLINE
  5
140
100
AcDbEntity
  8
Calque_1
 62
7
100
AcDbSpline
 70
8
 71
3
 72
8
 73
4
 74
0
 40
0
 40
0
 40
0
 40
0
 40
1
 40
1
 40
1
 40
1
 10
44.481547
 20
186.525620
 30
0.0
 10
41.609865
 20
186.525620
 30
0.0
 10
39.020947
 20
184.795761
 30
0.0
 10
37.922002
 20
182.142672
 30
0.0
  0
SPLINE
  5
141
100
AcDbEntity
  8
Calque_1
 62
7
100
AcDbSpline
 70
8
 71
3
 72
8
 73
4
 74
0
 40
0
 40
0
 40
0
 40
0
 40
1
 40
1
 40
1
 40
1
 10
37.922002
 20
182.142672
 30
0.0
 10
36.823057
 20
179.489584
 30
0.0
 10
37.430503
 20
176.435748
 30
0.0
 10
39.461088
 20
174.405162
 30
0.0
  0
SPLINE
  5
142
100
AcDbEntity
  8
Calque_1
 62
7
100
AcDbSpline
 70
8
 71
3
 72
8
 73
4
 74
0
 40
0
 40
0
 40
0
 40
0
 40
1
 40
1
 40
1
 40
1
 10
39.461088
 20
174.405162
 30
0.0
 10
41.491674
 20
172.374576
 30
0.0
 10
44.545511
 20
171.767130
 30
0.0
 10
47.198599
 20
172.866075
 30
0.0
  0
SPLINE
  5
143
100
AcDbEntity
  8
Calque_1
 62
7
100
AcDbSpline
 70
8
 71
3
 72
8
 73
4
 74
0
 40
0
 40
0
 40
0
 40
0
 40
1
 40
1
 40
1
 40
1
 10
47.198599
 20
172.866075
 30
0.0
 10
49.851687
 20
173.965020
 30
0.0
 10
51.581546
 20
176.553938
 30
0.0
 10
51.581546
 20
179.425620
 30
0.0
  0
SPLINE
  5
144
100
AcDbEntity
  8
Calque_1
 62
7
100
AcDbSpline
 70
8
 71
3
 72
8
 73
4
 74
0
 40
0
 40
0
 40
0
 40
0
 40
1
 40
1
 40
1
 40
1
 10
51.581546
 20
179.425620
 30
0.0
 10
51.581546
 20
181.308657
 30
0.0
 10
50.833513
 20
183.114570
 30
0.0
 10
49.502005
 20
184.446078
 30
0.0
  0
SPLINE
  5
145
100
AcDbEntity
  8
Calque_1
 62
7
100
AcDbSpline
 70
8
 71
3
 72
8
 73
4
 74
0
 40
0
 40
0
 40
0
 40
0
 40
1
 40
1
 40
1
 40
1
 10
49.502005
 20
184.446078
 30
0.0
 10
48.170496
 20
185.777586
 30
0.0
 10
46.364584
 20
186.525620
 30
0.0
 10
44.481546
 20
186.525620
 30
0.0
  0
LINE
  5
146
100
AcDbEntity
  8
Calque_1
 62
7
100
AcDbLine
 10
44.481546
 20
186.525620
 30
0.0
 11
44.481547
 21
186.525620
 31
0.0
  0
SPLINE
  5
147
100
AcDbEntity
  8
Calque_1
 62
7
100
AcDbSpline
 70
8
 71
3
 72
8
 73
4
 74
0
 40
0
 40
0
 40
0
 40
0
 40
1
 40
1
 40
1
 40
1
 10
58.660361
 20
186.525620
 30
0.0
 10
55.788679
 20
186.525620
 30
0.0
 10
53.199761
 20
184.795761
 30
0.0
 10
52.100816
 20
182.142672
 30
0.0
  0
SPLINE
  5
148
100
AcDbEntity
  8
Calque_1
 62
7
100
AcDbSpline
 70
8
 71
3
 72
8
 73
4
 74
0
 40
0
 40
0
 40
0
 40
0
 40
1
 40
1
 40
1
 40
1
 10
52.100816
 20
182.142672
 30
0.0
 10
51.001871
 20
179.489584
 30
0.0
 10
51.609317
 20
176.435748
 30
0.0
 10
53.639902
 20
174.405162
 30
0.0
  0
SPLINE
  5
149
100
AcDbEntity
  8
Calque_1
 62
7
100
AcDbSpline
 70
8
 71
3
 72
8
 73
4
 74
0
 40
0
 40
0
 40
0
 40
0
 40
1
 40
1
 40
1
 40
1
 10
53.639902
 20
174.405162
 30
0.0
 10
55.670488
 20
172.374576
 30
0.0
 10
58.724325
 20
171.767130
 30
0.0
 10
61.377413
 20
172.866075
 30
0.0
  0
SPLINE
  5
14a
100
AcDbEntity
  8
Calque_1
 62
7
100
AcDbSpline
 70
8
 71
3
 72
8
 73
4
 74
0
 40
0
 40
0
 40
0
 40
0
 40
1
 40
1
 40
1
 40
1
 10
61.377413
 20
172.866075
 30
0.0
 10
64.030501
 20
173.965020
 30
0.0
 10
65.760361
 20
176.553938
 30
0.0
 10
65.760361
 20
179.425620
 30
0.0
  0
SPLINE
  5
14b
100
AcDbEntity
  8
Calque_1
 62
7
100
AcDbSpline
 70
8
 71
3
 72
8
 73
4
 74
0
 40
0
 40
0
 40
0
 40
0
 40
1
 40
1
 40
1
 40
1
 10
65.760361
 20
179.425620
 30
0.0
 10
65.760361
 20
181.308657
 30
0.0
 10
65.012327
 20
183.114570
 30
0.0
 10
63.680819
 20
184.446078
 30
0.0
  0
SPLINE
  5
14c
100
AcDbEntity
  8
Calque_1
 62
7
100
AcDbSpline
 70
8
 71
3
 72
8
 73
4
 74
0
 40
0
 40
0
 40
0
 40
0
 40
1
 40
1
 40
1
 40
1
 10
63.680819
 20
184.446078
 30
0.0
 10
62.349310
 20
185.777586
 30
0.0
 10
60.543398
 20
186.525620
 30
0.0
 10
58.660361
 20
186.525620
 30
0.0
  0
LINE
  5
14d
100
AcDbEntity
  8
Calque_1
 62
7
100
AcDbLine
 10
58.660361
 20
186.525620
 30
0.0
 11
58.660361
 21
186.525620
 31
0.0
  0
SPLINE
  5
14e
100
AcDbEntity
  8
Calque_1
 62
7
100
AcDbSpline
 70
8
 71
3
 72
8
 73
4
 74
0
 40
0
 40
0
 40
0
 40
0
 40
1
 40
1
 40
1
 40
1
 10
72.839180
 20
186.525620
 30
0.0
 10
69.967498
 20
186.525620
 30
0.0
 10
67.378580
 20
184.795761
 30
0.0
 10
66.279635
 20
182.142672
 30
0.0
  0
SPLINE
  5
14f
100
AcDbEntity
  8
Calque_1
 62
7
100
AcDbSpline
 70
8
 71
3
 72
8
 73
4
 74
0
 40
0
 40
0
 40
0
 40
0
 40
1
 40
1
 40
1
 40
1
 10
66.279635
 20
182.142672
 30
0.0
 10
65.180690
 20
179.489584
 30
0.0
 10
65.788136
 20
176.435748
 30
0.0
 10
67.818722
 20
174.405162
 30
0.0
  0
SPLINE
  5
150
100
AcDbEntity
  8
Calque_1
 62
7
100
AcDbSpline
 70
8
 71
3
 72
8
 73
4
 74
0
 40
0
 40
0
 40
0
 40
0
 40
1
 40
1
 40
1
 40
1
 10
67.818722
 20
174.405162
 30
0.0
 10
69.849308
 20
172.374576
 30
0.0
 10
72.903144
 20
171.767130
 30
0.0
 10
75.556232
 20
172.866075
 30
0.0
  0
SPLINE
  5
151
100
AcDbEntity
  8
Calque_1
 62
7
100
AcDbSpline
 70
8
 71
3
 72
8
 73
4
 74
0
 40
0
 40
0
 40
0
 40
0
 40
1
 40
1
 40
1
 40
1
 10
75.556232
 20
172.866075
 30
0.0
 10
78.209321
 20
173.965020
 30
0.0
 10
79.939180
 20
176.553938
 30
0.0
 10
79.939180
 20
179.425620
 30
0.0
  0
SPLINE
  5
152
100
AcDbEntity
  8
Calque_1
 62
7
100
AcDbSpline
 70
8
 71
3
 72
8
 73
4
 74
0
 40
0
 40
0
 40
0
 40
0
 40
1
 40
1
 40
1
 40
1
 10
79.939180
 20
179.425620
 30
0.0
 10
79.939180
 20
181.308657
 30
0.0
 10
79.191146
 20
183.114570
 30
0.0
 10
77.859638
 20
184.446078
 30
0.0
  0
SPLINE
  5
153
100
AcDbEntity
  8
Calque_1
 62
7
100
AcDbSpline
 70
8
 71
3
 72
8
 73
4
 74
0
 40
0
 40
0
 40
0
 40
0
 40
1
 40
1
 40
1
 40
1
 10
77.859638
 20
184.446078
 30
0.0
 10
76.528130
 20
185.777586
 30
0.0
 10
74.722217
 20
186.525620
 30
0.0
 10
72.839180
 20
186.525620
 30
0.0
  0
LINE
  5
154
100
AcDbEntity
  8
Calque_1
 62
7
100
AcDbLine
 10
72.839180
 20
186.525620
 30
0.0
 11
72.839180
 21
186.525620
 31
0.0
  0
SPLINE
  5
155
100
AcDbEntity
  8
Calque_1
 62
7
100
AcDbSpline
 70
8
 71
3
 72
8
 73
4
 74
0
 40
0
 40
0
 40
0
 40
0
 40
1
 40
1
 40
1
 40
1
 10
87.017990
 20
186.525620
 30
0.0
 10
84.146308
 20
186.525620
 30
0.0
 10
81.557390
 20
184.795761
 30
0.0
 10
80.458445
 20
182.142672
 30
0.0
  0
SPLINE
  5
156
100
AcDbEntity
  8
Calque_1
 62
7
100
AcDbSpline
 70
8
 71
3
 72
8
 73
4
 74
0
 40
0
 40
0
 40
0
 40
0
 40
1
 40
1
 40
1
 40
1
 10
80.458445
 20
182.142672
 30
0.0
 10
79.359500
 20
179.489584
 30
0.0
 10
79.966946
 20
176.435748
 30
0.0
 10
81.997532
 20
174.405162
 30
0.0
  0
SPLINE
  5
157
100
AcDbEntity
  8
Calque_1
 62
7
100
AcDbSpline
 70
8
 71
3
 72
8
 73
4
 74
0
 40
0
 40
0
 40
0
 40
0
 40
1
 40
1
 40
1
 40
1
 10
81.997532
 20
174.405162
 30
0.0
 10
84.028118
 20
172.374576
 30
0.0
 10
87.081954
 20
171.767130
 30
0.0
 10
89.735042
 20
172.866075
 30
0.0
  0
SPLINE
  5
158
100
AcDbEntity
  8
Calque_1
 62
7
100
AcDbSpline
 70
8
 71
3
 72
8
 73
4
 74
0
 40
0
 40
0
 40
0
 40
0
 40
1
 40
1
 40
1
 40
1
 10
89.735042
 20
172.866075
 30
0.0
 10
92.388131
 20
173.965020
 30
0.0
 10
94.117990
 20
176.553938
 30
0.0
 10
94.117990
 20
179.425620
 30
0.0
  0
SPLINE
  5
159
100
AcDbEntity
  8
Calque_1
 62
7
100
AcDbSpline
 70
8
 71
3
 72
8
 73
4
 74
0
 40
0
 40
0
 40
0
 40
0
 40
1
 40
1
 40
1
 40
1
 10
94.117990
 20
179.425620
 30
0.0
 10
94.117990
 20
183.346842
 30
0.0
 10
90.939212
 20
186.525620
 30
0.0
 10
87.017990
 20
186.525620
 30
0.0
  0
LINE
  5
15a
100
AcDbEntity
  8
Calque_1
 62
7
100
AcDbLine
 10
87.017990
 20
186.525620
 30
0.0
 11
87.017990
 21
186.525620
 31
0.0
  0
SPLINE
  5
15b
100
AcDbEntity
  8
Calque_1
 62
7
100
AcDbSpline
 70
8
 71
3
 72
8
 73
4
 74
0
 40
0
 40
0
 40
0
 40
0
 40
1
 40
1
 40
1
 40
1
 10
101.196805
 20
186.525620
 30
0.0
 10
98.325123
 20
186.525620
 30
0.0
 10
95.736205
 20
184.795761
 30
0.0
 10
94.637260
 20
182.142672
 30
0.0
  0
SPLINE
  5
15c
100
AcDbEntity
  8
Calque_1
 62
7
100
AcDbSpline
 70
8
 71
3
 72
8
 73
4
 74
0
 40
0
 40
0
 40
0
 40
0
 40
1
 40
1
 40
1
 40
1
 10
94.637260
 20
182.142672
 30
0.0
 10
93.538315
 20
179.489584
 30
0.0
 10
94.145761
 20
176.435748
 30
0.0
 10
96.176347
 20
174.405162
 30
0.0
  0
SPLINE
  5
15d
100
AcDbEntity
  8
Calque_1
 62
7
100
AcDbSpline
 70
8
 71
3
 72
8
 73
4
 74
0
 40
0
 40
0
 40
0
 40
0
 40
1
 40
1
 40
1
 40
1
 10
96.176347
 20
174.405162
 30
0.0
 10
98.206933
 20
172.374576
 30
0.0
 10
101.260769
 20
171.767130
 30
0.0
 10
103.913857
 20
172.866075
 30
0.0
  0
SPLINE
  5
15e
100
AcDbEntity
  8
Calque_1
 62
7
100
AcDbSpline
 70
8
 71
3
 72
8
 73
4
 74
0
 40
0
 40
0
 40
0
 40
0
 40
1
 40
1
 40
1
 40
1
 10
103.913857
 20
172.866075
 30
0.0
 10
106.566946
 20
173.965020
 30
0.0
 10
108.296805
 20
176.553938
 30
0.0
 10
108.296805
 20
179.425620
 30
0.0
  0
SPLINE
  5
15f
100
AcDbEntity
  8
Calque_1
 62
7
100
AcDbSpline
 70
8
 71
3
 72
8
 73
4
 74
0
 40
0
 40
0
 40
0
 40
0
 40
1
 40
1
 40
1
 40
1
 10
108.296805
 20
179.425620
 30
0.0
 10
108.296805
 20
181.308657
 30
0.0
 10
107.548771
 20
183.114570
 30
0.0
 10
106.217263
 20
184.446078
 30
0.0
  0
SPLINE
  5
160
100
AcDbEntity
  8
Calque_1
 62
7
100
AcDbSpline
 70
8
 71
3
 72
8
 73
4
 74
0
 40
0
 40
0
 40
0
 40
0
 40
1
 40
1
 40
1
 40
1
 10
106.217263
 20
184.446078
 30
0.0
 10
104.885755
 20
185.777586
 30
0.0
 10
103.079842
 20
186.525620
 30
0.0
 10
101.196805
 20
186.525620
 30
0.0
  0
LINE
  5
161
100
AcDbEntity
  8
Calque_1
 62
7
100
AcDbLine
 10
101.196805
 20
186.525620
 30
0.0
 11
101.196805
 21
186.525620
 31
0.0
  0
LINE
  5
162
100
AcDbEntity
  8
Calque_1
 62
7
100
AcDbLine
 10
16.102491
 20
186.622840
 30
0.0
 11
115.396986
 21
186.622840
 31
0.0
  0
LINE
  5
163
100
AcDbEntity
  8
Calque_1
 62
7
100
AcDbLine
 10
115.396986
 20
186.622840
 30
0.0
 11
115.396986
 21
172.228348
 31
0.0
  0
LINE
  5
164
100
AcDbEntity
  8
Calque_1
 62
7
100
AcDbLine
 10
115.396986
 20
172.228348
 30
0.0
 11
16.102491
 21
172.228348
 31
0.0
  0
LINE
  5
165
100
AcDbEntity
  8
Calque_1
 62
7
100
AcDbLine
 10
16.102491
 20
172.228348
 30
0.0
 11
16.102491
 21
186.622840
 31
0.0
  0
LINE
  5
166
100
AcDbEntity
  8
Calque_1
 62
7
100
AcDbLine
 10
101.023410
 20
179.868090
 30
0.0
 11
115.108399
 21
179.868090
 31
0.0
  0
LINE
  5
167
100
AcDbEntity
  8
Calque_1
 62
7
100
AcDbLine
 10
115.108399
 20
179.868090
 30
0.0
 11
115.108399
 21
178.983102
 31
0.0
  0
LINE
  5
168
100
AcDbEntity
  8
Calque_1
 62
7
100
AcDbLine
 10
115.108399
 20
178.983102
 30
0.0
 11
101.023410
 21
178.983102
 31
0.0
  0
LINE
  5
169
100
AcDbEntity
  8
Calque_1
 62
7
100
AcDbLine
 10
101.023410
 20
178.983102
 30
0.0
 11
101.023410
 21
179.868090
 31
0.0
  0
LINE
  5
16a
100
AcDbEntity
  8
Calque_1
 62
7
100
AcDbLine
 10
72.654793
 20
179.868090
 30
0.0
 11
86.739782
 21
179.868090
 31
0.0
  0
LINE
  5
16b
100
AcDbEntity
  8
Calque_1
 62
7
100
AcDbLine
 10
86.739782
 20
179.868090
 30
0.0
 11
86.739782
 21
178.983102
 31
0.0
  0
LINE
  5
16c
100
AcDbEntity
  8
Calque_1
 62
7
100
AcDbLine
 10
86.739782
 20
178.983102
 30
0.0
 11
72.654793
 21
178.983102
 31
0.0
  0
LINE
  5
16d
100
AcDbEntity
  8
Calque_1
 62
7
100
AcDbLine
 10
72.654793
 20
178.983102
 30
0.0
 11
72.654793
 21
179.868090
 31
0.0
  0
LINE
  5
16e
100
AcDbEntity
  8
Calque_1
 62
7
100
AcDbLine
 10
44.612045
 20
179.868090
 30
0.0
 11
58.697034
 21
179.868090
 31
0.0
  0
LINE
  5
16f
100
AcDbEntity
  8
Calque_1
 62
7
100
AcDbLine
 10
58.697034
 20
179.868090
 30
0.0
 11
58.697034
 21
178.983102
 31
0.0
  0
LINE
  5
170
100
AcDbEntity
  8
Calque_1
 62
7
100
AcDbLine
 10
58.697034
 20
178.983102
 30
0.0
 11
44.612045
 21
178.983102
 31
0.0
  0
LINE
  5
171
100
AcDbEntity
  8
Calque_1
 62
7
100
AcDbLine
 10
44.612045
 20
178.983102
 30
0.0
 11
44.612045
 21
179.868090
 31
0.0
  0
LINE
  5
172
100
AcDbEntity
  8
Calque_1
 62
7
100
AcDbLine
 10
16.106850
 20
179.868090
 30
0.0
 11
30.191839
 21
179.868090
 31
0.0
  0
LINE
  5
173
100
AcDbEntity
  8
Calque_1
 62
7
100
AcDbLine
 10
30.191839
 20
179.868090
 30
0.0
 11
30.191839
 21
178.983102
 31
0.0
  0
LINE
  5
174
100
AcDbEntity
  8
Calque_1
 62
7
100
AcDbLine
 10
30.191839
 20
178.983102
 30
0.0
 11
16.106850
 21
178.983102
 31
0.0
  0
LINE
  5
175
100
AcDbEntity
  8
Calque_1
 62
7
100
AcDbLine
 10
16.106850
 20
178.983102
 30
0.0
 11
16.106850
 21
179.868090
 31
0.0
  0
ENDSEC
  0
SECTION
  2
OBJECTS
  0
DICTIONARY
  5
C
330
0
100
AcDbDictionary
  3
ACAD_GROUP
350
D
  3
ACAD_MLINESTYLE
350
17
  0
DICTIONARY
  5
D
330
C
100
AcDbDictionary
  0
DICTIONARY
  5
1A
330
C
100
AcDbDictionary
  0
DICTIONARY
  5
17
330
C
100
AcDbDictionary
  3
STANDARD
350
18
  0
DICTIONARY
  5
19
330
C
100
AcDbDictionary
  0
ENDSEC
  0
EOF
