<?xml version="1.0" encoding="UTF-8" standalone="no"?>
<!-- Created with Inkscape (http://www.inkscape.org/) -->

<svg
   width="210mm"
   height="297mm"
   viewBox="0 0 210 297"
   version="1.1"
   id="svg247"
   inkscape:version="1.2.2 (b0a8486541, 2022-12-01)"
   sodipodi:docname="gond.svg"
   xmlns:inkscape="http://www.inkscape.org/namespaces/inkscape"
   xmlns:sodipodi="http://sodipodi.sourceforge.net/DTD/sodipodi-0.dtd"
   xmlns="http://www.w3.org/2000/svg"
   xmlns:svg="http://www.w3.org/2000/svg">
  <sodipodi:namedview
     id="namedview249"
     pagecolor="#ffffff"
     bordercolor="#000000"
     borderopacity="0.25"
     inkscape:showpageshadow="2"
     inkscape:pageopacity="0.0"
     inkscape:pagecheckerboard="0"
     inkscape:deskcolor="#d1d1d1"
     inkscape:document-units="mm"
     showgrid="false"
     inkscape:zoom="1.5518659"
     inkscape:cx="209.10312"
     inkscape:cy="327.02568"
     inkscape:window-width="1910"
     inkscape:window-height="1032"
     inkscape:window-x="0"
     inkscape:window-y="0"
     inkscape:window-maximized="1"
     inkscape:current-layer="layer1" />
  <defs
     id="defs244" />
  <g
     inkscape:label="Calque 1"
     inkscape:groupmode="layer"
     id="layer1">
    <path
       style="fill:none;stroke:#000000;stroke-width:0.243504"
       d="m 72.066235,52.620015 a 4.0999999,4.0999999 0 0 1 -4.1,4.1 4.0999999,4.0999999 0 0 1 -4.1,-4.1 4.0999999,4.0999999 0 0 1 4.1,-4.1 4.0999999,4.0999999 0 0 1 4.1,4.1 z"
       id="path347" />
    <path
       id="path251-3"
       style="fill:none;stroke:#000000;stroke-width:0.243504"
       d="M 67.966394 46.641597 A 5.9782481 5.9782476 0 0 0 61.987948 52.620044 A 5.9782481 5.9782476 0 0 0 64.721114 57.636275 L 57.966488 57.636275 L 57.966488 58.636731 L 77.9663 58.636731 L 77.9663 57.636275 L 71.217358 57.636275 A 5.9782481 5.9782476 0 0 0 73.944324 52.620044 A 5.9782481 5.9782476 0 0 0 67.966394 46.641597 z " />
  </g>
</svg>
