<?xml version="1.0" encoding="UTF-8" standalone="no"?>
<svg
   width="623.20mm"
   height="598.30mm"
   viewBox="0.0 0.0 623.20 598.30"
   version="1.1"
   id="svg48"
   sodipodi:docname="porte.svg"
   inkscape:version="1.2.2 (b0a8486541, 2022-12-01)"
   xmlns:inkscape="http://www.inkscape.org/namespaces/inkscape"
   xmlns:sodipodi="http://sodipodi.sourceforge.net/DTD/sodipodi-0.dtd"
   xmlns="http://www.w3.org/2000/svg"
   xmlns:svg="http://www.w3.org/2000/svg"
   xmlns:rdf="http://www.w3.org/1999/02/22-rdf-syntax-ns#"
   xmlns:cc="http://creativecommons.org/ns#"
   xmlns:dc="http://purl.org/dc/elements/1.1/">
  <defs
     id="defs52" />
  <sodipodi:namedview
     id="namedview50"
     pagecolor="#ffffff"
     bordercolor="#000000"
     borderopacity="0.25"
     inkscape:showpageshadow="2"
     inkscape:pageopacity="0.0"
     inkscape:pagecheckerboard="0"
     inkscape:deskcolor="#d1d1d1"
     inkscape:document-units="mm"
     showgrid="false"
     inkscape:zoom="0.37640809"
     inkscape:cx="815.60414"
     inkscape:cy="1236.6897"
     inkscape:window-width="1910"
     inkscape:window-height="1032"
     inkscape:window-x="0"
     inkscape:window-y="0"
     inkscape:window-maximized="1"
     inkscape:current-layer="svg48" />
  <!--
ClosedBox - Fully closed box


This box is more of a building block than a finished item.
Use a vector graphics program (like Inkscape) to add holes or adjust the base
plate.

See BasedBox for variant with a base.


Created with Boxes.py (https://festi.info/boxes.py)
Creation date: 2022-12-20 07:48:36
Command line (remove spaces between dashes): boxes ClosedBox - -FingerJoint_angle=90.0 - -FingerJoint_style=rectangular - -FingerJoint_surroundingspaces=2.0 - -FingerJoint_edge_width=1.0 - -FingerJoint_extra_length=0.0 - -FingerJoint_finger=2.0 - -FingerJoint_play=0.0 - -FingerJoint_space=2.0 - -FingerJoint_width=1.0 - -x=200 - -y=400 - -h=80 - -outside=0 - -outside=1 - -thickness=5 - -format=svg - -tabs=0.0 - -debug=0 - -labels=0 - -labels=1 - -reference=100 - -inner_corners=loop - -burn=0.1
Url: http://festi.info/ClosedBox?FingerJoint_angle=90.0&FingerJoint_style=rectangular&FingerJoint_surroundingspaces=2.0&FingerJoint_edge_width=1.0&FingerJoint_extra_length=0.0&FingerJoint_finger=2.0&FingerJoint_play=0.0&FingerJoint_space=2.0&FingerJoint_width=1.0&x=200&y=400&h=80&outside=0&outside=1&thickness=5&format=svg&tabs=0.0&debug=0&labels=0&labels=1&reference=100&inner_corners=loop&burn=0.1&render=1
SettingsUrl: http://festi.info/ClosedBox?FingerJoint_angle=90.0&FingerJoint_style=rectangular&FingerJoint_surroundingspaces=2.0&FingerJoint_edge_width=1.0&FingerJoint_extra_length=0.0&FingerJoint_finger=2.0&FingerJoint_play=0.0&FingerJoint_space=2.0&FingerJoint_width=1.0&x=200&y=400&h=80&outside=0&outside=1&thickness=5&format=svg&tabs=0.0&debug=0&labels=0&labels=1&reference=100&inner_corners=loop&burn=0.1
-->
  <title
     id="title9">ClosedBox</title>
  <metadata
     id="metadata11">
    <rdf:RDF>
      <cc:Work>
        <dc:title>ClosedBox</dc:title>
        <dc:date>2022-12-20 07:48:36</dc:date>
        <dc:source>http://festi.info/ClosedBox?FingerJoint_angle=90.0&amp;FingerJoint_style=rectangular&amp;FingerJoint_surroundingspaces=2.0&amp;FingerJoint_edge_width=1.0&amp;FingerJoint_extra_length=0.0&amp;FingerJoint_finger=2.0&amp;FingerJoint_play=0.0&amp;FingerJoint_space=2.0&amp;FingerJoint_width=1.0&amp;x=200&amp;y=400&amp;h=80&amp;outside=0&amp;outside=1&amp;thickness=5&amp;format=svg&amp;tabs=0.0&amp;debug=0&amp;labels=0&amp;labels=1&amp;reference=100&amp;inner_corners=loop&amp;burn=0.1&amp;render=1</dc:source>
        <dc:description>Fully closed box

This box is more of a building block than a finished item.
Use a vector graphics program (like Inkscape) to add holes or adjust the base
plate.

See BasedBox for variant with a base.

Created with Boxes.py (https://festi.info/boxes.py)
Command line: boxes ClosedBox --FingerJoint_angle=90.0 --FingerJoint_style=rectangular --FingerJoint_surroundingspaces=2.0 --FingerJoint_edge_width=1.0 --FingerJoint_extra_length=0.0 --FingerJoint_finger=2.0 --FingerJoint_play=0.0 --FingerJoint_space=2.0 --FingerJoint_width=1.0 --x=200 --y=400 --h=80 --outside=0 --outside=1 --thickness=5 --format=svg --tabs=0.0 --debug=0 --labels=0 --labels=1 --reference=100 --inner_corners=loop --burn=0.1
Url: http://festi.info/ClosedBox?FingerJoint_angle=90.0&amp;FingerJoint_style=rectangular&amp;FingerJoint_surroundingspaces=2.0&amp;FingerJoint_edge_width=1.0&amp;FingerJoint_extra_length=0.0&amp;FingerJoint_finger=2.0&amp;FingerJoint_play=0.0&amp;FingerJoint_space=2.0&amp;FingerJoint_width=1.0&amp;x=200&amp;y=400&amp;h=80&amp;outside=0&amp;outside=1&amp;thickness=5&amp;format=svg&amp;tabs=0.0&amp;debug=0&amp;labels=0&amp;labels=1&amp;reference=100&amp;inner_corners=loop&amp;burn=0.1&amp;render=1
SettingsUrl: http://festi.info/ClosedBox?FingerJoint_angle=90.0&amp;FingerJoint_style=rectangular&amp;FingerJoint_surroundingspaces=2.0&amp;FingerJoint_edge_width=1.0&amp;FingerJoint_extra_length=0.0&amp;FingerJoint_finger=2.0&amp;FingerJoint_play=0.0&amp;FingerJoint_space=2.0&amp;FingerJoint_width=1.0&amp;x=200&amp;y=400&amp;h=80&amp;outside=0&amp;outside=1&amp;thickness=5&amp;format=svg&amp;tabs=0.0&amp;debug=0&amp;labels=0&amp;labels=1&amp;reference=100&amp;inner_corners=loop&amp;burn=0.1
</dc:description>
      </cc:Work>
    </rdf:RDF>
  </metadata>
  <g
     id="p-1"
     style="fill:none;stroke-linecap:round;stroke-linejoin:round;">
    <path
       d="M 15.400 575.600 H 25.400 C 25.455 575.600 25.500 575.555 25.500 575.500 V 570.600 C 25.500 570.500 25.400 570.600 25.500 570.600 H 35.300 C 35.400 570.600 35.300 570.500 35.300 570.600 V 575.500 C 35.300 575.555 35.345 575.600 35.400 575.600 H 45.400 C 45.455 575.600 45.500 575.555 45.500 575.500 V 570.600 C 45.500 570.500 45.400 570.600 45.500 570.600 H 55.300 C 55.400 570.600 55.300 570.500 55.300 570.600 V 575.500 C 55.300 575.555 55.345 575.600 55.400 575.600 H 65.400 C 65.455 575.600 65.500 575.555 65.500 575.500 V 570.600 C 65.500 570.500 65.400 570.600 65.500 570.600 H 75.300 C 75.400 570.600 75.300 570.500 75.300 570.600 V 575.500 C 75.300 575.555 75.345 575.600 75.400 575.600 H 85.400 C 85.455 575.600 85.500 575.555 85.500 575.500 V 570.600 C 85.500 570.500 85.400 570.600 85.500 570.600 H 95.300 C 95.400 570.600 95.300 570.500 95.300 570.600 V 575.500 C 95.300 575.555 95.345 575.600 95.400 575.600 H 105.400 C 105.455 575.600 105.500 575.555 105.500 575.500 V 570.600 C 105.500 570.500 105.400 570.600 105.500 570.600 H 115.300 C 115.400 570.600 115.300 570.500 115.300 570.600 V 575.500 C 115.300 575.555 115.345 575.600 115.400 575.600 H 125.400 C 125.455 575.600 125.500 575.555 125.500 575.500 V 570.600 C 125.500 570.500 125.400 570.600 125.500 570.600 H 135.300 C 135.400 570.600 135.300 570.500 135.300 570.600 V 575.500 C 135.300 575.555 135.345 575.600 135.400 575.600 H 145.400 C 145.455 575.600 145.500 575.555 145.500 575.500 V 570.600 C 145.500 570.500 145.400 570.600 145.500 570.600 H 155.300 C 155.400 570.600 155.300 570.500 155.300 570.600 V 575.500 C 155.300 575.555 155.345 575.600 155.400 575.600 H 165.400 C 165.455 575.600 165.500 575.555 165.500 575.500 V 570.600 C 165.500 570.500 165.400 570.600 165.500 570.600 H 175.300 C 175.400 570.600 175.300 570.500 175.300 570.600 V 575.500 C 175.300 575.555 175.345 575.600 175.400 575.600 H 185.400 C 185.455 575.600 185.500 575.555 185.500 575.500 V 570.600 C 185.500 570.500 185.400 570.600 185.500 570.600 H 195.300 C 195.400 570.600 195.300 570.500 195.300 570.600 V 575.500 C 195.300 575.555 195.345 575.600 195.400 575.600 H 205.400 H 210.400 C 210.455 575.600 210.500 575.555 210.500 575.500 V 570.500 V 560.500 C 210.500 560.445 210.455 560.400 210.400 560.400 H 205.500 C 205.400 560.400 205.500 560.500 205.500 560.400 V 550.600 C 205.500 550.500 205.400 550.600 205.500 550.600 H 210.400 C 210.455 550.600 210.500 550.555 210.500 550.500 V 540.500 C 210.500 540.445 210.455 540.400 210.400 540.400 H 205.500 C 205.400 540.400 205.500 540.500 205.500 540.400 V 530.600 C 205.500 530.500 205.400 530.600 205.500 530.600 H 210.400 C 210.455 530.600 210.500 530.555 210.500 530.500 V 520.500 C 210.500 520.445 210.455 520.400 210.400 520.400 H 205.500 C 205.400 520.400 205.500 520.500 205.500 520.400 V 510.600 C 205.500 510.500 205.400 510.600 205.500 510.600 H 210.400 C 210.455 510.600 210.500 510.555 210.500 510.500 V 500.500 V 495.500 C 210.500 495.445 210.455 495.400 210.400 495.400 H 205.400 H 195.400 C 195.345 495.400 195.300 495.445 195.300 495.500 V 500.400 C 195.300 500.500 195.400 500.400 195.300 500.400 H 185.500 C 185.400 500.400 185.500 500.500 185.500 500.400 V 495.500 C 185.500 495.445 185.455 495.400 185.400 495.400 H 175.400 C 175.345 495.400 175.300 495.445 175.300 495.500 V 500.400 C 175.300 500.500 175.400 500.400 175.300 500.400 H 165.500 C 165.400 500.400 165.500 500.500 165.500 500.400 V 495.500 C 165.500 495.445 165.455 495.400 165.400 495.400 H 155.400 C 155.345 495.400 155.300 495.445 155.300 495.500 V 500.400 C 155.300 500.500 155.400 500.400 155.300 500.400 H 145.500 C 145.400 500.400 145.500 500.500 145.500 500.400 V 495.500 C 145.500 495.445 145.455 495.400 145.400 495.400 H 135.400 C 135.345 495.400 135.300 495.445 135.300 495.500 V 500.400 C 135.300 500.500 135.400 500.400 135.300 500.400 H 125.500 C 125.400 500.400 125.500 500.500 125.500 500.400 V 495.500 C 125.500 495.445 125.455 495.400 125.400 495.400 H 115.400 C 115.345 495.400 115.300 495.445 115.300 495.500 V 500.400 C 115.300 500.500 115.400 500.400 115.300 500.400 H 105.500 C 105.400 500.400 105.500 500.500 105.500 500.400 V 495.500 C 105.500 495.445 105.455 495.400 105.400 495.400 H 95.400 C 95.345 495.400 95.300 495.445 95.300 495.500 V 500.400 C 95.300 500.500 95.400 500.400 95.300 500.400 H 85.500 C 85.400 500.400 85.500 500.500 85.500 500.400 V 495.500 C 85.500 495.445 85.455 495.400 85.400 495.400 H 75.400 C 75.345 495.400 75.300 495.445 75.300 495.500 V 500.400 C 75.300 500.500 75.400 500.400 75.300 500.400 H 65.500 C 65.400 500.400 65.500 500.500 65.500 500.400 V 495.500 C 65.500 495.445 65.455 495.400 65.400 495.400 H 55.400 C 55.345 495.400 55.300 495.445 55.300 495.500 V 500.400 C 55.300 500.500 55.400 500.400 55.300 500.400 H 45.500 C 45.400 500.400 45.500 500.500 45.500 500.400 V 495.500 C 45.500 495.445 45.455 495.400 45.400 495.400 H 35.400 C 35.345 495.400 35.300 495.445 35.300 495.500 V 500.400 C 35.300 500.500 35.400 500.400 35.300 500.400 H 25.500 C 25.400 500.400 25.500 500.500 25.500 500.400 V 495.500 C 25.500 495.445 25.455 495.400 25.400 495.400 H 15.400 H 10.400 C 10.345 495.400 10.300 495.445 10.300 495.500 V 500.500 V 510.500 C 10.300 510.555 10.345 510.600 10.400 510.600 H 15.300 C 15.400 510.600 15.300 510.500 15.300 510.600 V 520.400 C 15.300 520.500 15.400 520.400 15.300 520.400 H 10.400 C 10.345 520.400 10.300 520.445 10.300 520.500 V 530.500 C 10.300 530.555 10.345 530.600 10.400 530.600 H 15.300 C 15.400 530.600 15.300 530.500 15.300 530.600 V 540.400 C 15.300 540.500 15.400 540.400 15.300 540.400 H 10.400 C 10.345 540.400 10.300 540.445 10.300 540.500 V 550.500 C 10.300 550.555 10.345 550.600 10.400 550.600 H 15.300 C 15.400 550.600 15.300 550.500 15.300 550.600 V 560.400 C 15.300 560.500 15.400 560.400 15.300 560.400 H 10.400 C 10.345 560.400 10.300 560.445 10.300 560.500 V 570.500 V 575.500 C 10.300 575.555 10.345 575.600 10.400 575.600 H 15.400"
       stroke="rgb(0,0,0)"
       stroke-width="0.20"
       id="path20" />
  </g>
  <g
     id="p-2"
     style="fill:none;stroke-linecap:round;stroke-linejoin:round;">
    <path
       d="M 218.100 575.600 H 228.100 C 228.155 575.600 228.200 575.555 228.200 575.500 V 570.600 C 228.200 570.500 228.100 570.600 228.200 570.600 H 238.000 C 238.100 570.600 238.000 570.500 238.000 570.600 V 575.500 C 238.000 575.555 238.045 575.600 238.100 575.600 H 248.100 C 248.155 575.600 248.200 575.555 248.200 575.500 V 570.600 C 248.200 570.500 248.100 570.600 248.200 570.600 H 258.000 C 258.100 570.600 258.000 570.500 258.000 570.600 V 575.500 C 258.000 575.555 258.045 575.600 258.100 575.600 H 268.100 C 268.155 575.600 268.200 575.555 268.200 575.500 V 570.600 C 268.200 570.500 268.100 570.600 268.200 570.600 H 278.000 C 278.100 570.600 278.000 570.500 278.000 570.600 V 575.500 C 278.000 575.555 278.045 575.600 278.100 575.600 H 288.100 C 288.155 575.600 288.200 575.555 288.200 575.500 V 570.600 C 288.200 570.500 288.100 570.600 288.200 570.600 H 298.000 C 298.100 570.600 298.000 570.500 298.000 570.600 V 575.500 C 298.000 575.555 298.045 575.600 298.100 575.600 H 308.100 C 308.155 575.600 308.200 575.555 308.200 575.500 V 570.600 C 308.200 570.500 308.100 570.600 308.200 570.600 H 318.000 C 318.100 570.600 318.000 570.500 318.000 570.600 V 575.500 C 318.000 575.555 318.045 575.600 318.100 575.600 H 328.100 C 328.155 575.600 328.200 575.555 328.200 575.500 V 570.600 C 328.200 570.500 328.100 570.600 328.200 570.600 H 338.000 C 338.100 570.600 338.000 570.500 338.000 570.600 V 575.500 C 338.000 575.555 338.045 575.600 338.100 575.600 H 348.100 C 348.155 575.600 348.200 575.555 348.200 575.500 V 570.600 C 348.200 570.500 348.100 570.600 348.200 570.600 H 358.000 C 358.100 570.600 358.000 570.500 358.000 570.600 V 575.500 C 358.000 575.555 358.045 575.600 358.100 575.600 H 368.100 C 368.155 575.600 368.200 575.555 368.200 575.500 V 570.600 C 368.200 570.500 368.100 570.600 368.200 570.600 H 378.000 C 378.100 570.600 378.000 570.500 378.000 570.600 V 575.500 C 378.000 575.555 378.045 575.600 378.100 575.600 H 388.100 C 388.155 575.600 388.200 575.555 388.200 575.500 V 570.600 C 388.200 570.500 388.100 570.600 388.200 570.600 H 398.000 C 398.100 570.600 398.000 570.500 398.000 570.600 V 575.500 C 398.000 575.555 398.045 575.600 398.100 575.600 H 408.100 C 408.155 575.600 408.200 575.555 408.200 575.500 V 570.600 C 408.200 570.500 408.100 570.600 408.200 570.600 H 418.000 C 418.100 570.600 418.000 570.500 418.000 570.600 V 575.500 C 418.000 575.555 418.045 575.600 418.100 575.600 H 428.100 C 428.155 575.600 428.200 575.555 428.200 575.500 V 570.600 C 428.200 570.500 428.100 570.600 428.200 570.600 H 438.000 C 438.100 570.600 438.000 570.500 438.000 570.600 V 575.500 C 438.000 575.555 438.045 575.600 438.100 575.600 H 448.100 C 448.155 575.600 448.200 575.555 448.200 575.500 V 570.600 C 448.200 570.500 448.100 570.600 448.200 570.600 H 458.000 C 458.100 570.600 458.000 570.500 458.000 570.600 V 575.500 C 458.000 575.555 458.045 575.600 458.100 575.600 H 468.100 C 468.155 575.600 468.200 575.555 468.200 575.500 V 570.600 C 468.200 570.500 468.100 570.600 468.200 570.600 H 478.000 C 478.100 570.600 478.000 570.500 478.000 570.600 V 575.500 C 478.000 575.555 478.045 575.600 478.100 575.600 H 488.100 C 488.155 575.600 488.200 575.555 488.200 575.500 V 570.600 C 488.200 570.500 488.100 570.600 488.200 570.600 H 498.000 C 498.100 570.600 498.000 570.500 498.000 570.600 V 575.500 C 498.000 575.555 498.045 575.600 498.100 575.600 H 508.100 C 508.155 575.600 508.200 575.555 508.200 575.500 V 570.600 C 508.200 570.500 508.100 570.600 508.200 570.600 H 518.000 C 518.100 570.600 518.000 570.500 518.000 570.600 V 575.500 C 518.000 575.555 518.045 575.600 518.100 575.600 H 528.100 C 528.155 575.600 528.200 575.555 528.200 575.500 V 570.600 C 528.200 570.500 528.100 570.600 528.200 570.600 H 538.000 C 538.100 570.600 538.000 570.500 538.000 570.600 V 575.500 C 538.000 575.555 538.045 575.600 538.100 575.600 H 548.100 C 548.155 575.600 548.200 575.555 548.200 575.500 V 570.600 C 548.200 570.500 548.100 570.600 548.200 570.600 H 558.000 C 558.100 570.600 558.000 570.500 558.000 570.600 V 575.500 C 558.000 575.555 558.045 575.600 558.100 575.600 H 568.100 C 568.155 575.600 568.200 575.555 568.200 575.500 V 570.600 C 568.200 570.500 568.100 570.600 568.200 570.600 H 578.000 C 578.100 570.600 578.000 570.500 578.000 570.600 V 575.500 C 578.000 575.555 578.045 575.600 578.100 575.600 H 588.100 C 588.155 575.600 588.200 575.555 588.200 575.500 V 570.600 C 588.200 570.500 588.100 570.600 588.200 570.600 H 598.000 C 598.100 570.600 598.000 570.500 598.000 570.600 V 575.500 C 598.000 575.555 598.045 575.600 598.100 575.600 H 608.100 C 608.155 575.600 608.200 575.555 608.200 575.500 V 570.500 V 560.600 C 608.200 560.500 608.100 560.600 608.200 560.600 H 613.100 C 613.155 560.600 613.200 560.555 613.200 560.500 V 550.500 C 613.200 550.445 613.155 550.400 613.100 550.400 H 608.200 C 608.100 550.400 608.200 550.500 608.200 550.400 V 540.600 C 608.200 540.500 608.100 540.600 608.200 540.600 H 613.100 C 613.155 540.600 613.200 540.555 613.200 540.500 V 530.500 C 613.200 530.445 613.155 530.400 613.100 530.400 H 608.200 C 608.100 530.400 608.200 530.500 608.200 530.400 V 520.600 C 608.200 520.500 608.100 520.600 608.200 520.600 H 613.100 C 613.155 520.600 613.200 520.555 613.200 520.500 V 510.500 C 613.200 510.445 613.155 510.400 613.100 510.400 H 608.200 C 608.100 510.400 608.200 510.500 608.200 510.400 V 500.500 V 495.500 C 608.200 495.445 608.155 495.400 608.100 495.400 H 598.100 C 598.045 495.400 598.000 495.445 598.000 495.500 V 500.400 C 598.000 500.500 598.100 500.400 598.000 500.400 H 588.200 C 588.100 500.400 588.200 500.500 588.200 500.400 V 495.500 C 588.200 495.445 588.155 495.400 588.100 495.400 H 578.100 C 578.045 495.400 578.000 495.445 578.000 495.500 V 500.400 C 578.000 500.500 578.100 500.400 578.000 500.400 H 568.200 C 568.100 500.400 568.200 500.500 568.200 500.400 V 495.500 C 568.200 495.445 568.155 495.400 568.100 495.400 H 558.100 C 558.045 495.400 558.000 495.445 558.000 495.500 V 500.400 C 558.000 500.500 558.100 500.400 558.000 500.400 H 548.200 C 548.100 500.400 548.200 500.500 548.200 500.400 V 495.500 C 548.200 495.445 548.155 495.400 548.100 495.400 H 538.100 C 538.045 495.400 538.000 495.445 538.000 495.500 V 500.400 C 538.000 500.500 538.100 500.400 538.000 500.400 H 528.200 C 528.100 500.400 528.200 500.500 528.200 500.400 V 495.500 C 528.200 495.445 528.155 495.400 528.100 495.400 H 518.100 C 518.045 495.400 518.000 495.445 518.000 495.500 V 500.400 C 518.000 500.500 518.100 500.400 518.000 500.400 H 508.200 C 508.100 500.400 508.200 500.500 508.200 500.400 V 495.500 C 508.200 495.445 508.155 495.400 508.100 495.400 H 498.100 C 498.045 495.400 498.000 495.445 498.000 495.500 V 500.400 C 498.000 500.500 498.100 500.400 498.000 500.400 H 488.200 C 488.100 500.400 488.200 500.500 488.200 500.400 V 495.500 C 488.200 495.445 488.155 495.400 488.100 495.400 H 478.100 C 478.045 495.400 478.000 495.445 478.000 495.500 V 500.400 C 478.000 500.500 478.100 500.400 478.000 500.400 H 468.200 C 468.100 500.400 468.200 500.500 468.200 500.400 V 495.500 C 468.200 495.445 468.155 495.400 468.100 495.400 H 458.100 C 458.045 495.400 458.000 495.445 458.000 495.500 V 500.400 C 458.000 500.500 458.100 500.400 458.000 500.400 H 448.200 C 448.100 500.400 448.200 500.500 448.200 500.400 V 495.500 C 448.200 495.445 448.155 495.400 448.100 495.400 H 438.100 C 438.045 495.400 438.000 495.445 438.000 495.500 V 500.400 C 438.000 500.500 438.100 500.400 438.000 500.400 H 428.200 C 428.100 500.400 428.200 500.500 428.200 500.400 V 495.500 C 428.200 495.445 428.155 495.400 428.100 495.400 H 418.100 C 418.045 495.400 418.000 495.445 418.000 495.500 V 500.400 C 418.000 500.500 418.100 500.400 418.000 500.400 H 408.200 C 408.100 500.400 408.200 500.500 408.200 500.400 V 495.500 C 408.200 495.445 408.155 495.400 408.100 495.400 H 398.100 C 398.045 495.400 398.000 495.445 398.000 495.500 V 500.400 C 398.000 500.500 398.100 500.400 398.000 500.400 H 388.200 C 388.100 500.400 388.200 500.500 388.200 500.400 V 495.500 C 388.200 495.445 388.155 495.400 388.100 495.400 H 378.100 C 378.045 495.400 378.000 495.445 378.000 495.500 V 500.400 C 378.000 500.500 378.100 500.400 378.000 500.400 H 368.200 C 368.100 500.400 368.200 500.500 368.200 500.400 V 495.500 C 368.200 495.445 368.155 495.400 368.100 495.400 H 358.100 C 358.045 495.400 358.000 495.445 358.000 495.500 V 500.400 C 358.000 500.500 358.100 500.400 358.000 500.400 H 348.200 C 348.100 500.400 348.200 500.500 348.200 500.400 V 495.500 C 348.200 495.445 348.155 495.400 348.100 495.400 H 338.100 C 338.045 495.400 338.000 495.445 338.000 495.500 V 500.400 C 338.000 500.500 338.100 500.400 338.000 500.400 H 328.200 C 328.100 500.400 328.200 500.500 328.200 500.400 V 495.500 C 328.200 495.445 328.155 495.400 328.100 495.400 H 318.100 C 318.045 495.400 318.000 495.445 318.000 495.500 V 500.400 C 318.000 500.500 318.100 500.400 318.000 500.400 H 308.200 C 308.100 500.400 308.200 500.500 308.200 500.400 V 495.500 C 308.200 495.445 308.155 495.400 308.100 495.400 H 298.100 C 298.045 495.400 298.000 495.445 298.000 495.500 V 500.400 C 298.000 500.500 298.100 500.400 298.000 500.400 H 288.200 C 288.100 500.400 288.200 500.500 288.200 500.400 V 495.500 C 288.200 495.445 288.155 495.400 288.100 495.400 H 278.100 C 278.045 495.400 278.000 495.445 278.000 495.500 V 500.400 C 278.000 500.500 278.100 500.400 278.000 500.400 H 268.200 C 268.100 500.400 268.200 500.500 268.200 500.400 V 495.500 C 268.200 495.445 268.155 495.400 268.100 495.400 H 258.100 C 258.045 495.400 258.000 495.445 258.000 495.500 V 500.400 C 258.000 500.500 258.100 500.400 258.000 500.400 H 248.200 C 248.100 500.400 248.200 500.500 248.200 500.400 V 495.500 C 248.200 495.445 248.155 495.400 248.100 495.400 H 238.100 C 238.045 495.400 238.000 495.445 238.000 495.500 V 500.400 C 238.000 500.500 238.100 500.400 238.000 500.400 H 228.200 C 228.100 500.400 228.200 500.500 228.200 500.400 V 495.500 C 228.200 495.445 228.155 495.400 228.100 495.400 H 218.100 C 218.045 495.400 218.000 495.445 218.000 495.500 V 500.500 V 510.400 C 218.000 510.500 218.100 510.400 218.000 510.400 H 213.100 C 213.045 510.400 213.000 510.445 213.000 510.500 V 520.500 C 213.000 520.555 213.045 520.600 213.100 520.600 H 218.000 C 218.100 520.600 218.000 520.500 218.000 520.600 V 530.400 C 218.000 530.500 218.100 530.400 218.000 530.400 H 213.100 C 213.045 530.400 213.000 530.445 213.000 530.500 V 540.500 C 213.000 540.555 213.045 540.600 213.100 540.600 H 218.000 C 218.100 540.600 218.000 540.500 218.000 540.600 V 550.400 C 218.000 550.500 218.100 550.400 218.000 550.400 H 213.100 C 213.045 550.400 213.000 550.445 213.000 550.500 V 560.500 C 213.000 560.555 213.045 560.600 213.100 560.600 H 218.000 C 218.100 560.600 218.000 560.500 218.000 560.600 V 570.500 V 575.500 C 218.000 575.555 218.045 575.600 218.100 575.600"
       stroke="rgb(0,0,0)"
       stroke-width="0.20"
       id="path25" />
  </g>
  <g
     id="p-3"
     style="fill:none;stroke-linecap:round;stroke-linejoin:round;">
    <path
       d="M 218.100 492.900 H 228.100 C 228.155 492.900 228.200 492.855 228.200 492.800 V 487.900 C 228.200 487.800 228.100 487.900 228.200 487.900 H 238.000 C 238.100 487.900 238.000 487.800 238.000 487.900 V 492.800 C 238.000 492.855 238.045 492.900 238.100 492.900 H 248.100 C 248.155 492.900 248.200 492.855 248.200 492.800 V 487.900 C 248.200 487.800 248.100 487.900 248.200 487.900 H 258.000 C 258.100 487.900 258.000 487.800 258.000 487.900 V 492.800 C 258.000 492.855 258.045 492.900 258.100 492.900 H 268.100 C 268.155 492.900 268.200 492.855 268.200 492.800 V 487.900 C 268.200 487.800 268.100 487.900 268.200 487.900 H 278.000 C 278.100 487.900 278.000 487.800 278.000 487.900 V 492.800 C 278.000 492.855 278.045 492.900 278.100 492.900 H 288.100 C 288.155 492.900 288.200 492.855 288.200 492.800 V 487.900 C 288.200 487.800 288.100 487.900 288.200 487.900 H 298.000 C 298.100 487.900 298.000 487.800 298.000 487.900 V 492.800 C 298.000 492.855 298.045 492.900 298.100 492.900 H 308.100 C 308.155 492.900 308.200 492.855 308.200 492.800 V 487.900 C 308.200 487.800 308.100 487.900 308.200 487.900 H 318.000 C 318.100 487.900 318.000 487.800 318.000 487.900 V 492.800 C 318.000 492.855 318.045 492.900 318.100 492.900 H 328.100 C 328.155 492.900 328.200 492.855 328.200 492.800 V 487.900 C 328.200 487.800 328.100 487.900 328.200 487.900 H 338.000 C 338.100 487.900 338.000 487.800 338.000 487.900 V 492.800 C 338.000 492.855 338.045 492.900 338.100 492.900 H 348.100 C 348.155 492.900 348.200 492.855 348.200 492.800 V 487.900 C 348.200 487.800 348.100 487.900 348.200 487.900 H 358.000 C 358.100 487.900 358.000 487.800 358.000 487.900 V 492.800 C 358.000 492.855 358.045 492.900 358.100 492.900 H 368.100 C 368.155 492.900 368.200 492.855 368.200 492.800 V 487.900 C 368.200 487.800 368.100 487.900 368.200 487.900 H 378.000 C 378.100 487.900 378.000 487.800 378.000 487.900 V 492.800 C 378.000 492.855 378.045 492.900 378.100 492.900 H 388.100 C 388.155 492.900 388.200 492.855 388.200 492.800 V 487.900 C 388.200 487.800 388.100 487.900 388.200 487.900 H 398.000 C 398.100 487.900 398.000 487.800 398.000 487.900 V 492.800 C 398.000 492.855 398.045 492.900 398.100 492.900 H 408.100 C 408.155 492.900 408.200 492.855 408.200 492.800 V 487.900 C 408.200 487.800 408.100 487.900 408.200 487.900 H 418.000 C 418.100 487.900 418.000 487.800 418.000 487.900 V 492.800 C 418.000 492.855 418.045 492.900 418.100 492.900 H 428.100 C 428.155 492.900 428.200 492.855 428.200 492.800 V 487.900 C 428.200 487.800 428.100 487.900 428.200 487.900 H 438.000 C 438.100 487.900 438.000 487.800 438.000 487.900 V 492.800 C 438.000 492.855 438.045 492.900 438.100 492.900 H 448.100 C 448.155 492.900 448.200 492.855 448.200 492.800 V 487.900 C 448.200 487.800 448.100 487.900 448.200 487.900 H 458.000 C 458.100 487.900 458.000 487.800 458.000 487.900 V 492.800 C 458.000 492.855 458.045 492.900 458.100 492.900 H 468.100 C 468.155 492.900 468.200 492.855 468.200 492.800 V 487.900 C 468.200 487.800 468.100 487.900 468.200 487.900 H 478.000 C 478.100 487.900 478.000 487.800 478.000 487.900 V 492.800 C 478.000 492.855 478.045 492.900 478.100 492.900 H 488.100 C 488.155 492.900 488.200 492.855 488.200 492.800 V 487.900 C 488.200 487.800 488.100 487.900 488.200 487.900 H 498.000 C 498.100 487.900 498.000 487.800 498.000 487.900 V 492.800 C 498.000 492.855 498.045 492.900 498.100 492.900 H 508.100 C 508.155 492.900 508.200 492.855 508.200 492.800 V 487.900 C 508.200 487.800 508.100 487.900 508.200 487.900 H 518.000 C 518.100 487.900 518.000 487.800 518.000 487.900 V 492.800 C 518.000 492.855 518.045 492.900 518.100 492.900 H 528.100 C 528.155 492.900 528.200 492.855 528.200 492.800 V 487.900 C 528.200 487.800 528.100 487.900 528.200 487.900 H 538.000 C 538.100 487.900 538.000 487.800 538.000 487.900 V 492.800 C 538.000 492.855 538.045 492.900 538.100 492.900 H 548.100 C 548.155 492.900 548.200 492.855 548.200 492.800 V 487.900 C 548.200 487.800 548.100 487.900 548.200 487.900 H 558.000 C 558.100 487.900 558.000 487.800 558.000 487.900 V 492.800 C 558.000 492.855 558.045 492.900 558.100 492.900 H 568.100 C 568.155 492.900 568.200 492.855 568.200 492.800 V 487.900 C 568.200 487.800 568.100 487.900 568.200 487.900 H 578.000 C 578.100 487.900 578.000 487.800 578.000 487.900 V 492.800 C 578.000 492.855 578.045 492.900 578.100 492.900 H 588.100 C 588.155 492.900 588.200 492.855 588.200 492.800 V 487.900 C 588.200 487.800 588.100 487.900 588.200 487.900 H 598.000 C 598.100 487.900 598.000 487.800 598.000 487.900 V 492.800 C 598.000 492.855 598.045 492.900 598.100 492.900 H 608.100 C 608.155 492.900 608.200 492.855 608.200 492.800 V 487.800 V 477.900 C 608.200 477.800 608.100 477.900 608.200 477.900 H 613.100 C 613.155 477.900 613.200 477.855 613.200 477.800 V 467.800 C 613.200 467.745 613.155 467.700 613.100 467.700 H 608.200 C 608.100 467.700 608.200 467.800 608.200 467.700 V 457.900 C 608.200 457.800 608.100 457.900 608.200 457.900 H 613.100 C 613.155 457.900 613.200 457.855 613.200 457.800 V 447.800 C 613.200 447.745 613.155 447.700 613.100 447.700 H 608.200 C 608.100 447.700 608.200 447.800 608.200 447.700 V 437.900 C 608.200 437.800 608.100 437.900 608.200 437.900 H 613.100 C 613.155 437.900 613.200 437.855 613.200 437.800 V 427.800 C 613.200 427.745 613.155 427.700 613.100 427.700 H 608.200 C 608.100 427.700 608.200 427.800 608.200 427.700 V 417.800 V 412.800 C 608.200 412.745 608.155 412.700 608.100 412.700 H 598.100 C 598.045 412.700 598.000 412.745 598.000 412.800 V 417.700 C 598.000 417.800 598.100 417.700 598.000 417.700 H 588.200 C 588.100 417.700 588.200 417.800 588.200 417.700 V 412.800 C 588.200 412.745 588.155 412.700 588.100 412.700 H 578.100 C 578.045 412.700 578.000 412.745 578.000 412.800 V 417.700 C 578.000 417.800 578.100 417.700 578.000 417.700 H 568.200 C 568.100 417.700 568.200 417.800 568.200 417.700 V 412.800 C 568.200 412.745 568.155 412.700 568.100 412.700 H 558.100 C 558.045 412.700 558.000 412.745 558.000 412.800 V 417.700 C 558.000 417.800 558.100 417.700 558.000 417.700 H 548.200 C 548.100 417.700 548.200 417.800 548.200 417.700 V 412.800 C 548.200 412.745 548.155 412.700 548.100 412.700 H 538.100 C 538.045 412.700 538.000 412.745 538.000 412.800 V 417.700 C 538.000 417.800 538.100 417.700 538.000 417.700 H 528.200 C 528.100 417.700 528.200 417.800 528.200 417.700 V 412.800 C 528.200 412.745 528.155 412.700 528.100 412.700 H 518.100 C 518.045 412.700 518.000 412.745 518.000 412.800 V 417.700 C 518.000 417.800 518.100 417.700 518.000 417.700 H 508.200 C 508.100 417.700 508.200 417.800 508.200 417.700 V 412.800 C 508.200 412.745 508.155 412.700 508.100 412.700 H 498.100 C 498.045 412.700 498.000 412.745 498.000 412.800 V 417.700 C 498.000 417.800 498.100 417.700 498.000 417.700 H 488.200 C 488.100 417.700 488.200 417.800 488.200 417.700 V 412.800 C 488.200 412.745 488.155 412.700 488.100 412.700 H 478.100 C 478.045 412.700 478.000 412.745 478.000 412.800 V 417.700 C 478.000 417.800 478.100 417.700 478.000 417.700 H 468.200 C 468.100 417.700 468.200 417.800 468.200 417.700 V 412.800 C 468.200 412.745 468.155 412.700 468.100 412.700 H 458.100 C 458.045 412.700 458.000 412.745 458.000 412.800 V 417.700 C 458.000 417.800 458.100 417.700 458.000 417.700 H 448.200 C 448.100 417.700 448.200 417.800 448.200 417.700 V 412.800 C 448.200 412.745 448.155 412.700 448.100 412.700 H 438.100 C 438.045 412.700 438.000 412.745 438.000 412.800 V 417.700 C 438.000 417.800 438.100 417.700 438.000 417.700 H 428.200 C 428.100 417.700 428.200 417.800 428.200 417.700 V 412.800 C 428.200 412.745 428.155 412.700 428.100 412.700 H 418.100 C 418.045 412.700 418.000 412.745 418.000 412.800 V 417.700 C 418.000 417.800 418.100 417.700 418.000 417.700 H 408.200 C 408.100 417.700 408.200 417.800 408.200 417.700 V 412.800 C 408.200 412.745 408.155 412.700 408.100 412.700 H 398.100 C 398.045 412.700 398.000 412.745 398.000 412.800 V 417.700 C 398.000 417.800 398.100 417.700 398.000 417.700 H 388.200 C 388.100 417.700 388.200 417.800 388.200 417.700 V 412.800 C 388.200 412.745 388.155 412.700 388.100 412.700 H 378.100 C 378.045 412.700 378.000 412.745 378.000 412.800 V 417.700 C 378.000 417.800 378.100 417.700 378.000 417.700 H 368.200 C 368.100 417.700 368.200 417.800 368.200 417.700 V 412.800 C 368.200 412.745 368.155 412.700 368.100 412.700 H 358.100 C 358.045 412.700 358.000 412.745 358.000 412.800 V 417.700 C 358.000 417.800 358.100 417.700 358.000 417.700 H 348.200 C 348.100 417.700 348.200 417.800 348.200 417.700 V 412.800 C 348.200 412.745 348.155 412.700 348.100 412.700 H 338.100 C 338.045 412.700 338.000 412.745 338.000 412.800 V 417.700 C 338.000 417.800 338.100 417.700 338.000 417.700 H 328.200 C 328.100 417.700 328.200 417.800 328.200 417.700 V 412.800 C 328.200 412.745 328.155 412.700 328.100 412.700 H 318.100 C 318.045 412.700 318.000 412.745 318.000 412.800 V 417.700 C 318.000 417.800 318.100 417.700 318.000 417.700 H 308.200 C 308.100 417.700 308.200 417.800 308.200 417.700 V 412.800 C 308.200 412.745 308.155 412.700 308.100 412.700 H 298.100 C 298.045 412.700 298.000 412.745 298.000 412.800 V 417.700 C 298.000 417.800 298.100 417.700 298.000 417.700 H 288.200 C 288.100 417.700 288.200 417.800 288.200 417.700 V 412.800 C 288.200 412.745 288.155 412.700 288.100 412.700 H 278.100 C 278.045 412.700 278.000 412.745 278.000 412.800 V 417.700 C 278.000 417.800 278.100 417.700 278.000 417.700 H 268.200 C 268.100 417.700 268.200 417.800 268.200 417.700 V 412.800 C 268.200 412.745 268.155 412.700 268.100 412.700 H 258.100 C 258.045 412.700 258.000 412.745 258.000 412.800 V 417.700 C 258.000 417.800 258.100 417.700 258.000 417.700 H 248.200 C 248.100 417.700 248.200 417.800 248.200 417.700 V 412.800 C 248.200 412.745 248.155 412.700 248.100 412.700 H 238.100 C 238.045 412.700 238.000 412.745 238.000 412.800 V 417.700 C 238.000 417.800 238.100 417.700 238.000 417.700 H 228.200 C 228.100 417.700 228.200 417.800 228.200 417.700 V 412.800 C 228.200 412.745 228.155 412.700 228.100 412.700 H 218.100 C 218.045 412.700 218.000 412.745 218.000 412.800 V 417.800 V 427.700 C 218.000 427.800 218.100 427.700 218.000 427.700 H 213.100 C 213.045 427.700 213.000 427.745 213.000 427.800 V 437.800 C 213.000 437.855 213.045 437.900 213.100 437.900 H 218.000 C 218.100 437.900 218.000 437.800 218.000 437.900 V 447.700 C 218.000 447.800 218.100 447.700 218.000 447.700 H 213.100 C 213.045 447.700 213.000 447.745 213.000 447.800 V 457.800 C 213.000 457.855 213.045 457.900 213.100 457.900 H 218.000 C 218.100 457.900 218.000 457.800 218.000 457.900 V 467.700 C 218.000 467.800 218.100 467.700 218.000 467.700 H 213.100 C 213.045 467.700 213.000 467.745 213.000 467.800 V 477.800 C 213.000 477.855 213.045 477.900 213.100 477.900 H 218.000 C 218.100 477.900 218.000 477.800 218.000 477.900 V 487.800 V 492.800 C 218.000 492.855 218.045 492.900 218.100 492.900"
       stroke="rgb(0,0,0)"
       stroke-width="0.20"
       id="path30" />
  </g>
  <g
     id="p-4"
     style="fill:none;stroke-linecap:round;stroke-linejoin:round"
     transform="translate(0,-0.73448257)">
    <g
       aria-label="Wall 3"
       transform="translate(110.4,450.9)"
       id="text33"
       style="font-size:4px;dominant-baseline:hanging;text-anchor:middle;fill:#ff0000" />
  </g>
  <rect
     style="fill:none;stroke:#000000;stroke-width:0.297486;stroke-dasharray:none;stroke-opacity:1"
     id="rect210"
     width="9.7025137"
     height="399.70251"
     x="468.47223"
     y="11.682279" />
  <rect
     style="fill:none;stroke:#000000;stroke-width:0.297486;stroke-dasharray:none;stroke-opacity:1"
     id="rect210-3"
     width="9.7025137"
     height="399.70251"
     x="480.84937"
     y="10.954765" />
  <path
     id="path2478-6-7"
     style="fill:none;stroke:#000000;stroke-width:0.4"
     d="m 331.9646,270.2 a 5,5 0 0 1 -5,5 5,5 0 0 1 -5,-5 5,5 0 0 1 5,-5 5,5 0 0 1 5,5 z m 3e-5,65.48793 a 5,5 0 0 1 -5,5 5,5 0 0 1 -5,-5 5,5 0 0 1 5,-5 5,5 0 0 1 5,5 z m -2e-5,-160.7439 a 5,5 0 0 1 -5,5 5,5 0 0 1 -5,-5 5,5 0 0 1 5,-5 5,5 0 0 1 5,5 z M 233.22058,0.2 H 420.70863 V 349.68804 H 233.22058 Z" />
  <ellipse
     style="fill:none;stroke:#000000;stroke-width:0.307692;stroke-dasharray:none;stroke-opacity:1"
     id="path2541"
     cx="413.10001"
     cy="432.79999"
     rx="3.8461537"
     ry="3.846154" />
  <ellipse
     style="fill:none;stroke:#000000;stroke-width:0.307692;stroke-dasharray:none;stroke-opacity:1"
     id="path2541-5"
     cx="337"
     cy="432.79999"
     rx="3.8461537"
     ry="3.846154" />
  <ellipse
     style="fill:none;stroke:#000000;stroke-width:0.307692;stroke-dasharray:none;stroke-opacity:1"
     id="path2541-3"
     cx="413.10001"
     cy="515.5"
     rx="3.8461537"
     ry="3.846154" />
  <ellipse
     style="fill:none;stroke:#000000;stroke-width:0.307692;stroke-dasharray:none;stroke-opacity:1"
     id="path2541-5-5"
     cx="337"
     cy="515.5"
     rx="3.8461537"
     ry="3.846154" />
  <path
     id="rect2592-6-2"
     style="fill:none;stroke:#000000;stroke-width:0.207192"
     d="m 127.6536,461.01279 h 4.79281 v 14.79281 h -4.79281 z m 0,-32.28629 h 4.79281 v 14.79281 h -4.79281 z m -39.300007,31.88523 h 4.792809 v 14.7928 h -4.792809 z m 0,-32.28629 h 4.792809 v 14.79281 H 88.353593 Z M 15.4,492.16552 h 10 c 0.055,0 0.1,-0.045 0.1,-0.1 v -4.9 c 0,-0.1 -0.1,0 0,0 h 9.8 c 0.1,0 0,-0.1 0,0 v 4.9 c 0,0.055 0.045,0.1 0.1,0.1 h 10 c 0.055,0 0.1,-0.045 0.1,-0.1 v -4.9 c 0,-0.1 -0.1,0 0,0 h 9.8 c 0.1,0 0,-0.1 0,0 v 4.9 c 0,0.055 0.045,0.1 0.1,0.1 h 10 c 0.055,0 0.1,-0.045 0.1,-0.1 v -4.9 c 0,-0.1 -0.1,0 0,0 h 9.8 c 0.1,0 0,-0.1 0,0 v 4.9 c 0,0.055 0.045,0.1 0.1,0.1 h 10 c 0.055,0 0.1,-0.045 0.1,-0.1 v -4.9 c 0,-0.1 -0.1,0 0,0 h 9.8 c 0.1,0 0,-0.1 0,0 v 4.9 c 0,0.055 0.045,0.1 0.1,0.1 h 10 c 0.055,0 0.1,-0.045 0.1,-0.1 v -4.9 c 0,-0.1 -0.1,0 0,0 h 9.8 c 0.1,0 0,-0.1 0,0 v 4.9 c 0,0.055 0.045,0.1 0.1,0.1 h 10 c 0.055,0 0.1,-0.045 0.1,-0.1 v -4.9 c 0,-0.1 -0.1,0 0,0 h 9.8 c 0.1,0 0,-0.1 0,0 v 4.9 c 0,0.055 0.045,0.1 0.1,0.1 h 10 c 0.055,0 0.1,-0.045 0.1,-0.1 v -4.9 c 0,-0.1 -0.1,0 0,0 h 9.8 c 0.1,0 0,-0.1 0,0 v 4.9 c 0,0.055 0.045,0.1 0.1,0.1 h 10 c 0.055,0 0.1,-0.045 0.1,-0.1 v -4.9 c 0,-0.1 -0.1,0 0,0 h 9.8 c 0.1,0 0,-0.1 0,0 v 4.9 c 0,0.055 0.045,0.1 0.1,0.1 h 10 c 0.055,0 0.1,-0.045 0.1,-0.1 v -4.9 c 0,-0.1 -0.1,0 0,0 h 9.8 c 0.1,0 0,-0.1 0,0 v 4.9 c 0,0.055 0.045,0.1 0.1,0.1 h 10 5 c 0.055,0 0.1,-0.045 0.1,-0.1 v -5 -10 c 0,-0.055 -0.045,-0.1 -0.1,-0.1 h -4.9 c -0.1,0 0,0.1 0,0 v -9.8 c 0,-0.1 -0.1,0 0,0 h 4.9 c 0.055,0 0.1,-0.045 0.1,-0.1 v -10 c 0,-0.055 -0.045,-0.1 -0.1,-0.1 h -4.9 c -0.1,0 0,0.1 0,0 v -9.8 c 0,-0.1 -0.1,0 0,0 h 4.9 c 0.055,0 0.1,-0.045 0.1,-0.1 v -10 c 0,-0.055 -0.045,-0.1 -0.1,-0.1 h -4.9 c -0.1,0 0,0.1 0,0 v -9.8 c 0,-0.1 -0.1,0 0,0 h 4.9 c 0.055,0 0.1,-0.045 0.1,-0.1 v -10 -5 c 0,-0.055 -0.045,-0.1 -0.1,-0.1 h -5 -10 c -0.055,0 -0.1,0.045 -0.1,0.1 v 4.9 c 0,0.1 0.1,0 0,0 h -9.8 c -0.1,0 0,0.1 0,0 v -4.9 c 0,-0.055 -0.045,-0.1 -0.1,-0.1 h -10 c -0.055,0 -0.1,0.045 -0.1,0.1 v 4.9 c 0,0.1 0.1,0 0,0 h -9.8 c -0.1,0 0,0.1 0,0 v -4.9 c 0,-0.055 -0.045,-0.1 -0.1,-0.1 h -10 c -0.055,0 -0.1,0.045 -0.1,0.1 v 4.9 c 0,0.1 0.1,0 0,0 h -9.8 c -0.1,0 0,0.1 0,0 v -4.9 c 0,-0.055 -0.045,-0.1 -0.1,-0.1 h -10 c -0.055,0 -0.1,0.045 -0.1,0.1 v 4.9 c 0,0.1 0.1,0 0,0 h -9.8 c -0.1,0 0,0.1 0,0 v -4.9 c 0,-0.055 -0.045,-0.1 -0.1,-0.1 h -10 c -0.055,0 -0.1,0.045 -0.1,0.1 v 4.9 c 0,0.1 0.1,0 0,0 h -9.8 c -0.1,0 0,0.1 0,0 v -4.9 c 0,-0.055 -0.045,-0.1 -0.1,-0.1 h -10 c -0.055,0 -0.1,0.045 -0.1,0.1 v 4.9 c 0,0.1 0.1,0 0,0 h -9.8 c -0.1,0 0,0.1 0,0 v -4.9 c 0,-0.055 -0.045,-0.1 -0.1,-0.1 h -10 c -0.055,0 -0.1,0.045 -0.1,0.1 v 4.9 c 0,0.1 0.1,0 0,0 h -9.8 c -0.1,0 0,0.1 0,0 v -4.9 c 0,-0.055 -0.045,-0.1 -0.1,-0.1 h -10 c -0.055,0 -0.1,0.045 -0.1,0.1 v 4.9 c 0,0.1 0.1,0 0,0 h -9.8 c -0.1,0 0,0.1 0,0 v -4.9 c 0,-0.055 -0.045,-0.1 -0.1,-0.1 h -10 c -0.055,0 -0.1,0.045 -0.1,0.1 v 4.9 c 0,0.1 0.1,0 0,0 h -9.8 c -0.1,0 0,0.1 0,0 v -4.9 c 0,-0.055 -0.045,-0.1 -0.1,-0.1 h -10 -5 c -0.055,0 -0.1,0.045 -0.1,0.1 v 5 10 c 0,0.055 0.045,0.1 0.1,0.1 h 4.9 c 0.1,0 0,-0.1 0,0 v 9.8 c 0,0.1 0.1,0 0,0 h -4.9 c -0.055,0 -0.1,0.045 -0.1,0.1 v 10 c 0,0.055 0.045,0.1 0.1,0.1 h 4.9 c 0.1,0 0,-0.1 0,0 v 9.8 c 0,0.1 0.1,0 0,0 h -4.9 c -0.055,0 -0.1,0.045 -0.1,0.1 v 10 c 0,0.055 0.045,0.1 0.1,0.1 h 4.9 c 0.1,0 0,-0.1 0,0 v 9.8 c 0,0.1 0.1,0 0,0 h -4.9 c -0.055,0 -0.1,0.045 -0.1,0.1 v 10 5 c 0,0.055 0.045,0.1 0.1,0.1 h 5"
     sodipodi:nodetypes="cccccccccccccccccccccsssssssssssssssssssssssssssssssssssssssssssssssssssssssssssssssssssssssscsscsssssssssssssssssssssssscsscsssssssssssssssssssssssssssssssssssssssssssssssssssssssssssssssssssssssscsscsssssssssssssssssssssssscssc" />
  <rect
     style="fill:#ff0000;fill-opacity:1;stroke:#000000;stroke-width:0.166769;stroke-dasharray:none;stroke-opacity:1"
     id="rect2692"
     width="14.833232"
     height="4.8332314"
     x="233.10396"
     y="84.083382" />
  <rect
     style="fill:#ff0000;fill-opacity:1;stroke:#000000;stroke-width:0.166769;stroke-dasharray:none;stroke-opacity:1"
     id="rect2692-7"
     width="14.833232"
     height="4.8332314"
     x="233.10396"
     y="150.08339" />
  <rect
     style="fill:#ff0000;fill-opacity:1;stroke:#000000;stroke-width:0.166769;stroke-dasharray:none;stroke-opacity:1"
     id="rect2692-0"
     width="14.833232"
     height="4.8332314"
     x="405.992"
     y="84.083382" />
  <rect
     style="fill:#ff0000;fill-opacity:1;stroke:#000000;stroke-width:0.166769;stroke-dasharray:none;stroke-opacity:1"
     id="rect2692-9"
     width="14.833232"
     height="4.8332314"
     x="405.992"
     y="150.08339" />
</svg>
