999
"DXF R12 Output" (www.mydxf.blogspot.com)
 0 
SECTION
 2 
HEADER
 9 
$ACADVER
 1 
AC1009
 9 
$EXTMIN
 10 
 0 
 20 
 0 
 9 
$EXTMAX
 10 
 8.5 
 20 
 11 
 0 
ENDSEC
 0 
SECTION
 2 
ENTITIES
0
LINE
8
Layer 1
10
15.400000
20
22.700000
11
25.400000
21
22.700000
0
LINE
8
Layer 1
10
25.400000
20
22.700000
11
25.500000
21
22.800000
0
LINE
8
Layer 1
10
25.500000
20
22.800000
11
25.500000
21
27.700000
0
LINE
8
Layer 1
10
25.500000
20
27.700000
11
25.462500
21
27.737500
0
LINE
8
Layer 1
10
25.462500
20
27.737500
11
25.500000
21
27.700000
0
LINE
8
Layer 1
10
25.500000
20
27.700000
11
35.300000
21
27.700000
0
LINE
8
Layer 1
10
35.300000
20
27.700000
11
35.337500
21
27.737500
0
LINE
8
Layer 1
10
35.337500
20
27.737500
11
35.300000
21
27.700000
0
LINE
8
Layer 1
10
35.300000
20
27.700000
11
35.300000
21
22.800000
0
LINE
8
Layer 1
10
35.300000
20
22.800000
11
35.400000
21
22.700000
0
LINE
8
Layer 1
10
35.400000
20
22.700000
11
45.400000
21
22.700000
0
LINE
8
Layer 1
10
45.400000
20
22.700000
11
45.500000
21
22.800000
0
LINE
8
Layer 1
10
45.500000
20
22.800000
11
45.500000
21
27.700000
0
LINE
8
Layer 1
10
45.500000
20
27.700000
11
45.462500
21
27.737500
0
LINE
8
Layer 1
10
45.462500
20
27.737500
11
45.500000
21
27.700000
0
LINE
8
Layer 1
10
45.500000
20
27.700000
11
55.300000
21
27.700000
0
LINE
8
Layer 1
10
55.300000
20
27.700000
11
55.337500
21
27.737500
0
LINE
8
Layer 1
10
55.337500
20
27.737500
11
55.300000
21
27.700000
0
LINE
8
Layer 1
10
55.300000
20
27.700000
11
55.300000
21
22.800000
0
LINE
8
Layer 1
10
55.300000
20
22.800000
11
55.400000
21
22.700000
0
LINE
8
Layer 1
10
55.400000
20
22.700000
11
65.400000
21
22.700000
0
LINE
8
Layer 1
10
65.400000
20
22.700000
11
65.500000
21
22.800000
0
LINE
8
Layer 1
10
65.500000
20
22.800000
11
65.500000
21
27.700000
0
LINE
8
Layer 1
10
65.500000
20
27.700000
11
65.462500
21
27.737500
0
LINE
8
Layer 1
10
65.462500
20
27.737500
11
65.500000
21
27.700000
0
LINE
8
Layer 1
10
65.500000
20
27.700000
11
75.300000
21
27.700000
0
LINE
8
Layer 1
10
75.300000
20
27.700000
11
75.337500
21
27.737500
0
LINE
8
Layer 1
10
75.337500
20
27.737500
11
75.300000
21
27.700000
0
LINE
8
Layer 1
10
75.300000
20
27.700000
11
75.300000
21
22.800000
0
LINE
8
Layer 1
10
75.300000
20
22.800000
11
75.400000
21
22.700000
0
LINE
8
Layer 1
10
75.400000
20
22.700000
11
85.400000
21
22.700000
0
LINE
8
Layer 1
10
85.400000
20
22.700000
11
85.500000
21
22.800000
0
LINE
8
Layer 1
10
85.500000
20
22.800000
11
85.500000
21
27.700000
0
LINE
8
Layer 1
10
85.500000
20
27.700000
11
85.462500
21
27.737500
0
LINE
8
Layer 1
10
85.462500
20
27.737500
11
85.500000
21
27.700000
0
LINE
8
Layer 1
10
85.500000
20
27.700000
11
95.300000
21
27.700000
0
LINE
8
Layer 1
10
95.300000
20
27.700000
11
95.337500
21
27.737500
0
LINE
8
Layer 1
10
95.337500
20
27.737500
11
95.300000
21
27.700000
0
LINE
8
Layer 1
10
95.300000
20
27.700000
11
95.300000
21
22.800000
0
LINE
8
Layer 1
10
95.300000
20
22.800000
11
95.400000
21
22.700000
0
LINE
8
Layer 1
10
95.400000
20
22.700000
11
105.400000
21
22.700000
0
LINE
8
Layer 1
10
105.400000
20
22.700000
11
105.500000
21
22.800000
0
LINE
8
Layer 1
10
105.500000
20
22.800000
11
105.500000
21
27.700000
0
LINE
8
Layer 1
10
105.500000
20
27.700000
11
105.462500
21
27.737500
0
LINE
8
Layer 1
10
105.462500
20
27.737500
11
105.500000
21
27.700000
0
LINE
8
Layer 1
10
105.500000
20
27.700000
11
115.300000
21
27.700000
0
LINE
8
Layer 1
10
115.300000
20
27.700000
11
115.337500
21
27.737500
0
LINE
8
Layer 1
10
115.337500
20
27.737500
11
115.300000
21
27.700000
0
LINE
8
Layer 1
10
115.300000
20
27.700000
11
115.300000
21
22.800000
0
LINE
8
Layer 1
10
115.300000
20
22.800000
11
115.400000
21
22.700000
0
LINE
8
Layer 1
10
115.400000
20
22.700000
11
125.400000
21
22.700000
0
LINE
8
Layer 1
10
125.400000
20
22.700000
11
125.500000
21
22.800000
0
LINE
8
Layer 1
10
125.500000
20
22.800000
11
125.500000
21
27.700000
0
LINE
8
Layer 1
10
125.500000
20
27.700000
11
125.462500
21
27.737500
0
LINE
8
Layer 1
10
125.462500
20
27.737500
11
125.500000
21
27.700000
0
LINE
8
Layer 1
10
125.500000
20
27.700000
11
135.300000
21
27.700000
0
LINE
8
Layer 1
10
135.300000
20
27.700000
11
135.337500
21
27.737500
0
LINE
8
Layer 1
10
135.337500
20
27.737500
11
135.300000
21
27.700000
0
LINE
8
Layer 1
10
135.300000
20
27.700000
11
135.300000
21
22.800000
0
LINE
8
Layer 1
10
135.300000
20
22.800000
11
135.400000
21
22.700000
0
LINE
8
Layer 1
10
135.400000
20
22.700000
11
145.400000
21
22.700000
0
LINE
8
Layer 1
10
145.400000
20
22.700000
11
145.500000
21
22.800000
0
LINE
8
Layer 1
10
145.500000
20
22.800000
11
145.500000
21
27.700000
0
LINE
8
Layer 1
10
145.500000
20
27.700000
11
145.462500
21
27.737500
0
LINE
8
Layer 1
10
145.462500
20
27.737500
11
145.500000
21
27.700000
0
LINE
8
Layer 1
10
145.500000
20
27.700000
11
155.300000
21
27.700000
0
LINE
8
Layer 1
10
155.300000
20
27.700000
11
155.337500
21
27.737500
0
LINE
8
Layer 1
10
155.337500
20
27.737500
11
155.300000
21
27.700000
0
LINE
8
Layer 1
10
155.300000
20
27.700000
11
155.300000
21
22.800000
0
LINE
8
Layer 1
10
155.300000
20
22.800000
11
155.400000
21
22.700000
0
LINE
8
Layer 1
10
155.400000
20
22.700000
11
165.400000
21
22.700000
0
LINE
8
Layer 1
10
165.400000
20
22.700000
11
165.500000
21
22.800000
0
LINE
8
Layer 1
10
165.500000
20
22.800000
11
165.500000
21
27.700000
0
LINE
8
Layer 1
10
165.500000
20
27.700000
11
165.462500
21
27.737500
0
LINE
8
Layer 1
10
165.462500
20
27.737500
11
165.500000
21
27.700000
0
LINE
8
Layer 1
10
165.500000
20
27.700000
11
175.300000
21
27.700000
0
LINE
8
Layer 1
10
175.300000
20
27.700000
11
175.337500
21
27.737500
0
LINE
8
Layer 1
10
175.337500
20
27.737500
11
175.300000
21
27.700000
0
LINE
8
Layer 1
10
175.300000
20
27.700000
11
175.300000
21
22.800000
0
LINE
8
Layer 1
10
175.300000
20
22.800000
11
175.400000
21
22.700000
0
LINE
8
Layer 1
10
175.400000
20
22.700000
11
185.400000
21
22.700000
0
LINE
8
Layer 1
10
185.400000
20
22.700000
11
185.500000
21
22.800000
0
LINE
8
Layer 1
10
185.500000
20
22.800000
11
185.500000
21
27.700000
0
LINE
8
Layer 1
10
185.500000
20
27.700000
11
185.462500
21
27.737500
0
LINE
8
Layer 1
10
185.462500
20
27.737500
11
185.500000
21
27.700000
0
LINE
8
Layer 1
10
185.500000
20
27.700000
11
195.300000
21
27.700000
0
LINE
8
Layer 1
10
195.300000
20
27.700000
11
195.337500
21
27.737500
0
LINE
8
Layer 1
10
195.337500
20
27.737500
11
195.300000
21
27.700000
0
LINE
8
Layer 1
10
195.300000
20
27.700000
11
195.300000
21
22.800000
0
LINE
8
Layer 1
10
195.300000
20
22.800000
11
195.400000
21
22.700000
0
LINE
8
Layer 1
10
195.400000
20
22.700000
11
205.400000
21
22.700000
0
LINE
8
Layer 1
10
205.400000
20
22.700000
11
210.400000
21
22.700000
0
LINE
8
Layer 1
10
210.400000
20
22.700000
11
210.500000
21
22.800000
0
LINE
8
Layer 1
10
210.500000
20
22.800000
11
210.500000
21
27.800000
0
LINE
8
Layer 1
10
210.500000
20
27.800000
11
210.500000
21
37.800000
0
LINE
8
Layer 1
10
210.500000
20
37.800000
11
210.400000
21
37.900000
0
LINE
8
Layer 1
10
210.400000
20
37.900000
11
205.500000
21
37.900000
0
LINE
8
Layer 1
10
205.500000
20
37.900000
11
205.462500
21
37.862500
0
LINE
8
Layer 1
10
205.462500
20
37.862500
11
205.500000
21
37.900000
0
LINE
8
Layer 1
10
205.500000
20
37.900000
11
205.500000
21
47.700000
0
LINE
8
Layer 1
10
205.500000
20
47.700000
11
205.500000
21
47.700000
0
LINE
8
Layer 1
10
205.500000
20
47.700000
11
210.400000
21
47.700000
0
LINE
8
Layer 1
10
210.400000
20
47.700000
11
210.500000
21
47.800000
0
LINE
8
Layer 1
10
210.500000
20
47.800000
11
210.500000
21
57.800000
0
LINE
8
Layer 1
10
210.500000
20
57.800000
11
210.400000
21
57.900000
0
LINE
8
Layer 1
10
210.400000
20
57.900000
11
205.500000
21
57.900000
0
LINE
8
Layer 1
10
205.500000
20
57.900000
11
205.462500
21
57.862500
0
LINE
8
Layer 1
10
205.462500
20
57.862500
11
205.500000
21
57.900000
0
LINE
8
Layer 1
10
205.500000
20
57.900000
11
205.500000
21
67.700000
0
LINE
8
Layer 1
10
205.500000
20
67.700000
11
205.500000
21
67.700000
0
LINE
8
Layer 1
10
205.500000
20
67.700000
11
210.400000
21
67.700000
0
LINE
8
Layer 1
10
210.400000
20
67.700000
11
210.500000
21
67.800000
0
LINE
8
Layer 1
10
210.500000
20
67.800000
11
210.500000
21
77.800000
0
LINE
8
Layer 1
10
210.500000
20
77.800000
11
210.400000
21
77.900000
0
LINE
8
Layer 1
10
210.400000
20
77.900000
11
205.500000
21
77.900000
0
LINE
8
Layer 1
10
205.500000
20
77.900000
11
205.462500
21
77.862500
0
LINE
8
Layer 1
10
205.462500
20
77.862500
11
205.500000
21
77.900000
0
LINE
8
Layer 1
10
205.500000
20
77.900000
11
205.500000
21
87.700000
0
LINE
8
Layer 1
10
205.500000
20
87.700000
11
205.500000
21
87.700000
0
LINE
8
Layer 1
10
205.500000
20
87.700000
11
210.400000
21
87.700000
0
LINE
8
Layer 1
10
210.400000
20
87.700000
11
210.500000
21
87.800000
0
LINE
8
Layer 1
10
210.500000
20
87.800000
11
210.500000
21
97.800000
0
LINE
8
Layer 1
10
210.500000
20
97.800000
11
210.500000
21
102.800000
0
LINE
8
Layer 1
10
210.500000
20
102.800000
11
210.400000
21
102.900000
0
LINE
8
Layer 1
10
210.400000
20
102.900000
11
205.400000
21
102.900000
0
LINE
8
Layer 1
10
205.400000
20
102.900000
11
195.400000
21
102.900000
0
LINE
8
Layer 1
10
195.400000
20
102.900000
11
195.300000
21
102.800000
0
LINE
8
Layer 1
10
195.300000
20
102.800000
11
195.300000
21
97.900000
0
LINE
8
Layer 1
10
195.300000
20
97.900000
11
195.337500
21
97.862500
0
LINE
8
Layer 1
10
195.337500
20
97.862500
11
195.300000
21
97.900000
0
LINE
8
Layer 1
10
195.300000
20
97.900000
11
185.500000
21
97.900000
0
LINE
8
Layer 1
10
185.500000
20
97.900000
11
185.462500
21
97.862500
0
LINE
8
Layer 1
10
185.462500
20
97.862500
11
185.500000
21
97.900000
0
LINE
8
Layer 1
10
185.500000
20
97.900000
11
185.500000
21
102.800000
0
LINE
8
Layer 1
10
185.500000
20
102.800000
11
185.400000
21
102.900000
0
LINE
8
Layer 1
10
185.400000
20
102.900000
11
175.400000
21
102.900000
0
LINE
8
Layer 1
10
175.400000
20
102.900000
11
175.300000
21
102.800000
0
LINE
8
Layer 1
10
175.300000
20
102.800000
11
175.300000
21
97.900000
0
LINE
8
Layer 1
10
175.300000
20
97.900000
11
175.337500
21
97.862500
0
LINE
8
Layer 1
10
175.337500
20
97.862500
11
175.300000
21
97.900000
0
LINE
8
Layer 1
10
175.300000
20
97.900000
11
165.500000
21
97.900000
0
LINE
8
Layer 1
10
165.500000
20
97.900000
11
165.462500
21
97.862500
0
LINE
8
Layer 1
10
165.462500
20
97.862500
11
165.500000
21
97.900000
0
LINE
8
Layer 1
10
165.500000
20
97.900000
11
165.500000
21
102.800000
0
LINE
8
Layer 1
10
165.500000
20
102.800000
11
165.400000
21
102.900000
0
LINE
8
Layer 1
10
165.400000
20
102.900000
11
155.400000
21
102.900000
0
LINE
8
Layer 1
10
155.400000
20
102.900000
11
155.300000
21
102.800000
0
LINE
8
Layer 1
10
155.300000
20
102.800000
11
155.300000
21
97.900000
0
LINE
8
Layer 1
10
155.300000
20
97.900000
11
155.337500
21
97.862500
0
LINE
8
Layer 1
10
155.337500
20
97.862500
11
155.300000
21
97.900000
0
LINE
8
Layer 1
10
155.300000
20
97.900000
11
145.500000
21
97.900000
0
LINE
8
Layer 1
10
145.500000
20
97.900000
11
145.462500
21
97.862500
0
LINE
8
Layer 1
10
145.462500
20
97.862500
11
145.500000
21
97.900000
0
LINE
8
Layer 1
10
145.500000
20
97.900000
11
145.500000
21
102.800000
0
LINE
8
Layer 1
10
145.500000
20
102.800000
11
145.400000
21
102.900000
0
LINE
8
Layer 1
10
145.400000
20
102.900000
11
135.400000
21
102.900000
0
LINE
8
Layer 1
10
135.400000
20
102.900000
11
135.300000
21
102.800000
0
LINE
8
Layer 1
10
135.300000
20
102.800000
11
135.300000
21
97.900000
0
LINE
8
Layer 1
10
135.300000
20
97.900000
11
135.337500
21
97.862500
0
LINE
8
Layer 1
10
135.337500
20
97.862500
11
135.300000
21
97.900000
0
LINE
8
Layer 1
10
135.300000
20
97.900000
11
125.500000
21
97.900000
0
LINE
8
Layer 1
10
125.500000
20
97.900000
11
125.462500
21
97.862500
0
LINE
8
Layer 1
10
125.462500
20
97.862500
11
125.500000
21
97.900000
0
LINE
8
Layer 1
10
125.500000
20
97.900000
11
125.500000
21
102.800000
0
LINE
8
Layer 1
10
125.500000
20
102.800000
11
125.400000
21
102.900000
0
LINE
8
Layer 1
10
125.400000
20
102.900000
11
115.400000
21
102.900000
0
LINE
8
Layer 1
10
115.400000
20
102.900000
11
115.300000
21
102.800000
0
LINE
8
Layer 1
10
115.300000
20
102.800000
11
115.300000
21
97.900000
0
LINE
8
Layer 1
10
115.300000
20
97.900000
11
115.337500
21
97.862500
0
LINE
8
Layer 1
10
115.337500
20
97.862500
11
115.300000
21
97.900000
0
LINE
8
Layer 1
10
115.300000
20
97.900000
11
105.500000
21
97.900000
0
LINE
8
Layer 1
10
105.500000
20
97.900000
11
105.462500
21
97.862500
0
LINE
8
Layer 1
10
105.462500
20
97.862500
11
105.500000
21
97.900000
0
LINE
8
Layer 1
10
105.500000
20
97.900000
11
105.500000
21
102.800000
0
LINE
8
Layer 1
10
105.500000
20
102.800000
11
105.400000
21
102.900000
0
LINE
8
Layer 1
10
105.400000
20
102.900000
11
95.400000
21
102.900000
0
LINE
8
Layer 1
10
95.400000
20
102.900000
11
95.300000
21
102.800000
0
LINE
8
Layer 1
10
95.300000
20
102.800000
11
95.300000
21
97.900000
0
LINE
8
Layer 1
10
95.300000
20
97.900000
11
95.337500
21
97.862500
0
LINE
8
Layer 1
10
95.337500
20
97.862500
11
95.300000
21
97.900000
0
LINE
8
Layer 1
10
95.300000
20
97.900000
11
85.500000
21
97.900000
0
LINE
8
Layer 1
10
85.500000
20
97.900000
11
85.462500
21
97.862500
0
LINE
8
Layer 1
10
85.462500
20
97.862500
11
85.500000
21
97.900000
0
LINE
8
Layer 1
10
85.500000
20
97.900000
11
85.500000
21
102.800000
0
LINE
8
Layer 1
10
85.500000
20
102.800000
11
85.400000
21
102.900000
0
LINE
8
Layer 1
10
85.400000
20
102.900000
11
75.400000
21
102.900000
0
LINE
8
Layer 1
10
75.400000
20
102.900000
11
75.300000
21
102.800000
0
LINE
8
Layer 1
10
75.300000
20
102.800000
11
75.300000
21
97.900000
0
LINE
8
Layer 1
10
75.300000
20
97.900000
11
75.337500
21
97.862500
0
LINE
8
Layer 1
10
75.337500
20
97.862500
11
75.300000
21
97.900000
0
LINE
8
Layer 1
10
75.300000
20
97.900000
11
65.500000
21
97.900000
0
LINE
8
Layer 1
10
65.500000
20
97.900000
11
65.462500
21
97.862500
0
LINE
8
Layer 1
10
65.462500
20
97.862500
11
65.500000
21
97.900000
0
LINE
8
Layer 1
10
65.500000
20
97.900000
11
65.500000
21
102.800000
0
LINE
8
Layer 1
10
65.500000
20
102.800000
11
65.400000
21
102.900000
0
LINE
8
Layer 1
10
65.400000
20
102.900000
11
55.400000
21
102.900000
0
LINE
8
Layer 1
10
55.400000
20
102.900000
11
55.300000
21
102.800000
0
LINE
8
Layer 1
10
55.300000
20
102.800000
11
55.300000
21
97.900000
0
LINE
8
Layer 1
10
55.300000
20
97.900000
11
55.337500
21
97.862500
0
LINE
8
Layer 1
10
55.337500
20
97.862500
11
55.300000
21
97.900000
0
LINE
8
Layer 1
10
55.300000
20
97.900000
11
45.500000
21
97.900000
0
LINE
8
Layer 1
10
45.500000
20
97.900000
11
45.462500
21
97.862500
0
LINE
8
Layer 1
10
45.462500
20
97.862500
11
45.500000
21
97.900000
0
LINE
8
Layer 1
10
45.500000
20
97.900000
11
45.500000
21
102.800000
0
LINE
8
Layer 1
10
45.500000
20
102.800000
11
45.400000
21
102.900000
0
LINE
8
Layer 1
10
45.400000
20
102.900000
11
35.400000
21
102.900000
0
LINE
8
Layer 1
10
35.400000
20
102.900000
11
35.300000
21
102.800000
0
LINE
8
Layer 1
10
35.300000
20
102.800000
11
35.300000
21
97.900000
0
LINE
8
Layer 1
10
35.300000
20
97.900000
11
35.337500
21
97.862500
0
LINE
8
Layer 1
10
35.337500
20
97.862500
11
35.300000
21
97.900000
0
LINE
8
Layer 1
10
35.300000
20
97.900000
11
25.500000
21
97.900000
0
LINE
8
Layer 1
10
25.500000
20
97.900000
11
25.462500
21
97.862500
0
LINE
8
Layer 1
10
25.462500
20
97.862500
11
25.500000
21
97.900000
0
LINE
8
Layer 1
10
25.500000
20
97.900000
11
25.500000
21
102.800000
0
LINE
8
Layer 1
10
25.500000
20
102.800000
11
25.400000
21
102.900000
0
LINE
8
Layer 1
10
25.400000
20
102.900000
11
15.400000
21
102.900000
0
LINE
8
Layer 1
10
15.400000
20
102.900000
11
10.400000
21
102.900000
0
LINE
8
Layer 1
10
10.400000
20
102.900000
11
10.300000
21
102.800000
0
LINE
8
Layer 1
10
10.300000
20
102.800000
11
10.300000
21
97.800000
0
LINE
8
Layer 1
10
10.300000
20
97.800000
11
10.300000
21
87.800000
0
LINE
8
Layer 1
10
10.300000
20
87.800000
11
10.400000
21
87.700000
0
LINE
8
Layer 1
10
10.400000
20
87.700000
11
15.300000
21
87.700000
0
LINE
8
Layer 1
10
15.300000
20
87.700000
11
15.300000
21
87.700000
0
LINE
8
Layer 1
10
15.300000
20
87.700000
11
15.300000
21
77.900000
0
LINE
8
Layer 1
10
15.300000
20
77.900000
11
15.337500
21
77.862500
0
LINE
8
Layer 1
10
15.337500
20
77.862500
11
15.300000
21
77.900000
0
LINE
8
Layer 1
10
15.300000
20
77.900000
11
10.400000
21
77.900000
0
LINE
8
Layer 1
10
10.400000
20
77.900000
11
10.300000
21
77.800000
0
LINE
8
Layer 1
10
10.300000
20
77.800000
11
10.300000
21
67.800000
0
LINE
8
Layer 1
10
10.300000
20
67.800000
11
10.400000
21
67.700000
0
LINE
8
Layer 1
10
10.400000
20
67.700000
11
15.300000
21
67.700000
0
LINE
8
Layer 1
10
15.300000
20
67.700000
11
15.300000
21
67.700000
0
LINE
8
Layer 1
10
15.300000
20
67.700000
11
15.300000
21
57.900000
0
LINE
8
Layer 1
10
15.300000
20
57.900000
11
15.337500
21
57.862500
0
LINE
8
Layer 1
10
15.337500
20
57.862500
11
15.300000
21
57.900000
0
LINE
8
Layer 1
10
15.300000
20
57.900000
11
10.400000
21
57.900000
0
LINE
8
Layer 1
10
10.400000
20
57.900000
11
10.300000
21
57.800000
0
LINE
8
Layer 1
10
10.300000
20
57.800000
11
10.300000
21
47.800000
0
LINE
8
Layer 1
10
10.300000
20
47.800000
11
10.400000
21
47.700000
0
LINE
8
Layer 1
10
10.400000
20
47.700000
11
15.300000
21
47.700000
0
LINE
8
Layer 1
10
15.300000
20
47.700000
11
15.300000
21
47.700000
0
LINE
8
Layer 1
10
15.300000
20
47.700000
11
15.300000
21
37.900000
0
LINE
8
Layer 1
10
15.300000
20
37.900000
11
15.337500
21
37.862500
0
LINE
8
Layer 1
10
15.337500
20
37.862500
11
15.300000
21
37.900000
0
LINE
8
Layer 1
10
15.300000
20
37.900000
11
10.400000
21
37.900000
0
LINE
8
Layer 1
10
10.400000
20
37.900000
11
10.300000
21
37.800000
0
LINE
8
Layer 1
10
10.300000
20
37.800000
11
10.300000
21
27.800000
0
LINE
8
Layer 1
10
10.300000
20
27.800000
11
10.300000
21
22.800000
0
LINE
8
Layer 1
10
10.300000
20
22.800000
11
10.400000
21
22.700000
0
LINE
8
Layer 1
10
10.400000
20
22.700000
11
15.400000
21
22.700000
0
LINE
8
Layer 1
10
218.100000
20
22.700000
11
228.100000
21
22.700000
0
LINE
8
Layer 1
10
228.100000
20
22.700000
11
228.200000
21
22.800000
0
LINE
8
Layer 1
10
228.200000
20
22.800000
11
228.200000
21
27.700000
0
LINE
8
Layer 1
10
228.200000
20
27.700000
11
228.162500
21
27.737500
0
LINE
8
Layer 1
10
228.162500
20
27.737500
11
228.200000
21
27.700000
0
LINE
8
Layer 1
10
228.200000
20
27.700000
11
238.000000
21
27.700000
0
LINE
8
Layer 1
10
238.000000
20
27.700000
11
238.037500
21
27.737500
0
LINE
8
Layer 1
10
238.037500
20
27.737500
11
238.000000
21
27.700000
0
LINE
8
Layer 1
10
238.000000
20
27.700000
11
238.000000
21
22.800000
0
LINE
8
Layer 1
10
238.000000
20
22.800000
11
238.100000
21
22.700000
0
LINE
8
Layer 1
10
238.100000
20
22.700000
11
248.100000
21
22.700000
0
LINE
8
Layer 1
10
248.100000
20
22.700000
11
248.200000
21
22.800000
0
LINE
8
Layer 1
10
248.200000
20
22.800000
11
248.200000
21
27.700000
0
LINE
8
Layer 1
10
248.200000
20
27.700000
11
248.162500
21
27.737500
0
LINE
8
Layer 1
10
248.162500
20
27.737500
11
248.200000
21
27.700000
0
LINE
8
Layer 1
10
248.200000
20
27.700000
11
258.000000
21
27.700000
0
LINE
8
Layer 1
10
258.000000
20
27.700000
11
258.037500
21
27.737500
0
LINE
8
Layer 1
10
258.037500
20
27.737500
11
258.000000
21
27.700000
0
LINE
8
Layer 1
10
258.000000
20
27.700000
11
258.000000
21
22.800000
0
LINE
8
Layer 1
10
258.000000
20
22.800000
11
258.100000
21
22.700000
0
LINE
8
Layer 1
10
258.100000
20
22.700000
11
268.100000
21
22.700000
0
LINE
8
Layer 1
10
268.100000
20
22.700000
11
268.200000
21
22.800000
0
LINE
8
Layer 1
10
268.200000
20
22.800000
11
268.200000
21
27.700000
0
LINE
8
Layer 1
10
268.200000
20
27.700000
11
268.162500
21
27.737500
0
LINE
8
Layer 1
10
268.162500
20
27.737500
11
268.200000
21
27.700000
0
LINE
8
Layer 1
10
268.200000
20
27.700000
11
278.000000
21
27.700000
0
LINE
8
Layer 1
10
278.000000
20
27.700000
11
278.037500
21
27.737500
0
LINE
8
Layer 1
10
278.037500
20
27.737500
11
278.000000
21
27.700000
0
LINE
8
Layer 1
10
278.000000
20
27.700000
11
278.000000
21
22.800000
0
LINE
8
Layer 1
10
278.000000
20
22.800000
11
278.100000
21
22.700000
0
LINE
8
Layer 1
10
278.100000
20
22.700000
11
288.100000
21
22.700000
0
LINE
8
Layer 1
10
288.100000
20
22.700000
11
288.200000
21
22.800000
0
LINE
8
Layer 1
10
288.200000
20
22.800000
11
288.200000
21
27.700000
0
LINE
8
Layer 1
10
288.200000
20
27.700000
11
288.162500
21
27.737500
0
LINE
8
Layer 1
10
288.162500
20
27.737500
11
288.200000
21
27.700000
0
LINE
8
Layer 1
10
288.200000
20
27.700000
11
298.000000
21
27.700000
0
LINE
8
Layer 1
10
298.000000
20
27.700000
11
298.037500
21
27.737500
0
LINE
8
Layer 1
10
298.037500
20
27.737500
11
298.000000
21
27.700000
0
LINE
8
Layer 1
10
298.000000
20
27.700000
11
298.000000
21
22.800000
0
LINE
8
Layer 1
10
298.000000
20
22.800000
11
298.100000
21
22.700000
0
LINE
8
Layer 1
10
298.100000
20
22.700000
11
308.100000
21
22.700000
0
LINE
8
Layer 1
10
308.100000
20
22.700000
11
308.200000
21
22.800000
0
LINE
8
Layer 1
10
308.200000
20
22.800000
11
308.200000
21
27.700000
0
LINE
8
Layer 1
10
308.200000
20
27.700000
11
308.162500
21
27.737500
0
LINE
8
Layer 1
10
308.162500
20
27.737500
11
308.200000
21
27.700000
0
LINE
8
Layer 1
10
308.200000
20
27.700000
11
318.000000
21
27.700000
0
LINE
8
Layer 1
10
318.000000
20
27.700000
11
318.037500
21
27.737500
0
LINE
8
Layer 1
10
318.037500
20
27.737500
11
318.000000
21
27.700000
0
LINE
8
Layer 1
10
318.000000
20
27.700000
11
318.000000
21
22.800000
0
LINE
8
Layer 1
10
318.000000
20
22.800000
11
318.100000
21
22.700000
0
LINE
8
Layer 1
10
318.100000
20
22.700000
11
328.100000
21
22.700000
0
LINE
8
Layer 1
10
328.100000
20
22.700000
11
328.200000
21
22.800000
0
LINE
8
Layer 1
10
328.200000
20
22.800000
11
328.200000
21
27.700000
0
LINE
8
Layer 1
10
328.200000
20
27.700000
11
328.162500
21
27.737500
0
LINE
8
Layer 1
10
328.162500
20
27.737500
11
328.200000
21
27.700000
0
LINE
8
Layer 1
10
328.200000
20
27.700000
11
338.000000
21
27.700000
0
LINE
8
Layer 1
10
338.000000
20
27.700000
11
338.037500
21
27.737500
0
LINE
8
Layer 1
10
338.037500
20
27.737500
11
338.000000
21
27.700000
0
LINE
8
Layer 1
10
338.000000
20
27.700000
11
338.000000
21
22.800000
0
LINE
8
Layer 1
10
338.000000
20
22.800000
11
338.100000
21
22.700000
0
LINE
8
Layer 1
10
338.100000
20
22.700000
11
348.100000
21
22.700000
0
LINE
8
Layer 1
10
348.100000
20
22.700000
11
348.200000
21
22.800000
0
LINE
8
Layer 1
10
348.200000
20
22.800000
11
348.200000
21
27.700000
0
LINE
8
Layer 1
10
348.200000
20
27.700000
11
348.162500
21
27.737500
0
LINE
8
Layer 1
10
348.162500
20
27.737500
11
348.200000
21
27.700000
0
LINE
8
Layer 1
10
348.200000
20
27.700000
11
358.000000
21
27.700000
0
LINE
8
Layer 1
10
358.000000
20
27.700000
11
358.037500
21
27.737500
0
LINE
8
Layer 1
10
358.037500
20
27.737500
11
358.000000
21
27.700000
0
LINE
8
Layer 1
10
358.000000
20
27.700000
11
358.000000
21
22.800000
0
LINE
8
Layer 1
10
358.000000
20
22.800000
11
358.100000
21
22.700000
0
LINE
8
Layer 1
10
358.100000
20
22.700000
11
368.100000
21
22.700000
0
LINE
8
Layer 1
10
368.100000
20
22.700000
11
368.200000
21
22.800000
0
LINE
8
Layer 1
10
368.200000
20
22.800000
11
368.200000
21
27.700000
0
LINE
8
Layer 1
10
368.200000
20
27.700000
11
368.162500
21
27.737500
0
LINE
8
Layer 1
10
368.162500
20
27.737500
11
368.200000
21
27.700000
0
LINE
8
Layer 1
10
368.200000
20
27.700000
11
378.000000
21
27.700000
0
LINE
8
Layer 1
10
378.000000
20
27.700000
11
378.037500
21
27.737500
0
LINE
8
Layer 1
10
378.037500
20
27.737500
11
378.000000
21
27.700000
0
LINE
8
Layer 1
10
378.000000
20
27.700000
11
378.000000
21
22.800000
0
LINE
8
Layer 1
10
378.000000
20
22.800000
11
378.100000
21
22.700000
0
LINE
8
Layer 1
10
378.100000
20
22.700000
11
388.100000
21
22.700000
0
LINE
8
Layer 1
10
388.100000
20
22.700000
11
388.200000
21
22.800000
0
LINE
8
Layer 1
10
388.200000
20
22.800000
11
388.200000
21
27.700000
0
LINE
8
Layer 1
10
388.200000
20
27.700000
11
388.162500
21
27.737500
0
LINE
8
Layer 1
10
388.162500
20
27.737500
11
388.200000
21
27.700000
0
LINE
8
Layer 1
10
388.200000
20
27.700000
11
398.000000
21
27.700000
0
LINE
8
Layer 1
10
398.000000
20
27.700000
11
398.037500
21
27.737500
0
LINE
8
Layer 1
10
398.037500
20
27.737500
11
398.000000
21
27.700000
0
LINE
8
Layer 1
10
398.000000
20
27.700000
11
398.000000
21
22.800000
0
LINE
8
Layer 1
10
398.000000
20
22.800000
11
398.100000
21
22.700000
0
LINE
8
Layer 1
10
398.100000
20
22.700000
11
408.100000
21
22.700000
0
LINE
8
Layer 1
10
408.100000
20
22.700000
11
408.200000
21
22.800000
0
LINE
8
Layer 1
10
408.200000
20
22.800000
11
408.200000
21
27.700000
0
LINE
8
Layer 1
10
408.200000
20
27.700000
11
408.162500
21
27.737500
0
LINE
8
Layer 1
10
408.162500
20
27.737500
11
408.200000
21
27.700000
0
LINE
8
Layer 1
10
408.200000
20
27.700000
11
418.000000
21
27.700000
0
LINE
8
Layer 1
10
418.000000
20
27.700000
11
418.037500
21
27.737500
0
LINE
8
Layer 1
10
418.037500
20
27.737500
11
418.000000
21
27.700000
0
LINE
8
Layer 1
10
418.000000
20
27.700000
11
418.000000
21
22.800000
0
LINE
8
Layer 1
10
418.000000
20
22.800000
11
418.100000
21
22.700000
0
LINE
8
Layer 1
10
418.100000
20
22.700000
11
428.100000
21
22.700000
0
LINE
8
Layer 1
10
428.100000
20
22.700000
11
428.200000
21
22.800000
0
LINE
8
Layer 1
10
428.200000
20
22.800000
11
428.200000
21
27.700000
0
LINE
8
Layer 1
10
428.200000
20
27.700000
11
428.162500
21
27.737500
0
LINE
8
Layer 1
10
428.162500
20
27.737500
11
428.200000
21
27.700000
0
LINE
8
Layer 1
10
428.200000
20
27.700000
11
438.000000
21
27.700000
0
LINE
8
Layer 1
10
438.000000
20
27.700000
11
438.037500
21
27.737500
0
LINE
8
Layer 1
10
438.037500
20
27.737500
11
438.000000
21
27.700000
0
LINE
8
Layer 1
10
438.000000
20
27.700000
11
438.000000
21
22.800000
0
LINE
8
Layer 1
10
438.000000
20
22.800000
11
438.100000
21
22.700000
0
LINE
8
Layer 1
10
438.100000
20
22.700000
11
448.100000
21
22.700000
0
LINE
8
Layer 1
10
448.100000
20
22.700000
11
448.200000
21
22.800000
0
LINE
8
Layer 1
10
448.200000
20
22.800000
11
448.200000
21
27.700000
0
LINE
8
Layer 1
10
448.200000
20
27.700000
11
448.162500
21
27.737500
0
LINE
8
Layer 1
10
448.162500
20
27.737500
11
448.200000
21
27.700000
0
LINE
8
Layer 1
10
448.200000
20
27.700000
11
458.000000
21
27.700000
0
LINE
8
Layer 1
10
458.000000
20
27.700000
11
458.037500
21
27.737500
0
LINE
8
Layer 1
10
458.037500
20
27.737500
11
458.000000
21
27.700000
0
LINE
8
Layer 1
10
458.000000
20
27.700000
11
458.000000
21
22.800000
0
LINE
8
Layer 1
10
458.000000
20
22.800000
11
458.100000
21
22.700000
0
LINE
8
Layer 1
10
458.100000
20
22.700000
11
468.100000
21
22.700000
0
LINE
8
Layer 1
10
468.100000
20
22.700000
11
468.200000
21
22.800000
0
LINE
8
Layer 1
10
468.200000
20
22.800000
11
468.200000
21
27.700000
0
LINE
8
Layer 1
10
468.200000
20
27.700000
11
468.162500
21
27.737500
0
LINE
8
Layer 1
10
468.162500
20
27.737500
11
468.200000
21
27.700000
0
LINE
8
Layer 1
10
468.200000
20
27.700000
11
478.000000
21
27.700000
0
LINE
8
Layer 1
10
478.000000
20
27.700000
11
478.037500
21
27.737500
0
LINE
8
Layer 1
10
478.037500
20
27.737500
11
478.000000
21
27.700000
0
LINE
8
Layer 1
10
478.000000
20
27.700000
11
478.000000
21
22.800000
0
LINE
8
Layer 1
10
478.000000
20
22.800000
11
478.100000
21
22.700000
0
LINE
8
Layer 1
10
478.100000
20
22.700000
11
488.100000
21
22.700000
0
LINE
8
Layer 1
10
488.100000
20
22.700000
11
488.200000
21
22.800000
0
LINE
8
Layer 1
10
488.200000
20
22.800000
11
488.200000
21
27.700000
0
LINE
8
Layer 1
10
488.200000
20
27.700000
11
488.162500
21
27.737500
0
LINE
8
Layer 1
10
488.162500
20
27.737500
11
488.200000
21
27.700000
0
LINE
8
Layer 1
10
488.200000
20
27.700000
11
498.000000
21
27.700000
0
LINE
8
Layer 1
10
498.000000
20
27.700000
11
498.037500
21
27.737500
0
LINE
8
Layer 1
10
498.037500
20
27.737500
11
498.000000
21
27.700000
0
LINE
8
Layer 1
10
498.000000
20
27.700000
11
498.000000
21
22.800000
0
LINE
8
Layer 1
10
498.000000
20
22.800000
11
498.100000
21
22.700000
0
LINE
8
Layer 1
10
498.100000
20
22.700000
11
508.100000
21
22.700000
0
LINE
8
Layer 1
10
508.100000
20
22.700000
11
508.200000
21
22.800000
0
LINE
8
Layer 1
10
508.200000
20
22.800000
11
508.200000
21
27.700000
0
LINE
8
Layer 1
10
508.200000
20
27.700000
11
508.162500
21
27.737500
0
LINE
8
Layer 1
10
508.162500
20
27.737500
11
508.200000
21
27.700000
0
LINE
8
Layer 1
10
508.200000
20
27.700000
11
518.000000
21
27.700000
0
LINE
8
Layer 1
10
518.000000
20
27.700000
11
518.037500
21
27.737500
0
LINE
8
Layer 1
10
518.037500
20
27.737500
11
518.000000
21
27.700000
0
LINE
8
Layer 1
10
518.000000
20
27.700000
11
518.000000
21
22.800000
0
LINE
8
Layer 1
10
518.000000
20
22.800000
11
518.100000
21
22.700000
0
LINE
8
Layer 1
10
518.100000
20
22.700000
11
528.100000
21
22.700000
0
LINE
8
Layer 1
10
528.100000
20
22.700000
11
528.200000
21
22.800000
0
LINE
8
Layer 1
10
528.200000
20
22.800000
11
528.200000
21
27.700000
0
LINE
8
Layer 1
10
528.200000
20
27.700000
11
528.162500
21
27.737500
0
LINE
8
Layer 1
10
528.162500
20
27.737500
11
528.200000
21
27.700000
0
LINE
8
Layer 1
10
528.200000
20
27.700000
11
538.000000
21
27.700000
0
LINE
8
Layer 1
10
538.000000
20
27.700000
11
538.037500
21
27.737500
0
LINE
8
Layer 1
10
538.037500
20
27.737500
11
538.000000
21
27.700000
0
LINE
8
Layer 1
10
538.000000
20
27.700000
11
538.000000
21
22.800000
0
LINE
8
Layer 1
10
538.000000
20
22.800000
11
538.100000
21
22.700000
0
LINE
8
Layer 1
10
538.100000
20
22.700000
11
548.100000
21
22.700000
0
LINE
8
Layer 1
10
548.100000
20
22.700000
11
548.200000
21
22.800000
0
LINE
8
Layer 1
10
548.200000
20
22.800000
11
548.200000
21
27.700000
0
LINE
8
Layer 1
10
548.200000
20
27.700000
11
548.162500
21
27.737500
0
LINE
8
Layer 1
10
548.162500
20
27.737500
11
548.200000
21
27.700000
0
LINE
8
Layer 1
10
548.200000
20
27.700000
11
558.000000
21
27.700000
0
LINE
8
Layer 1
10
558.000000
20
27.700000
11
558.037500
21
27.737500
0
LINE
8
Layer 1
10
558.037500
20
27.737500
11
558.000000
21
27.700000
0
LINE
8
Layer 1
10
558.000000
20
27.700000
11
558.000000
21
22.800000
0
LINE
8
Layer 1
10
558.000000
20
22.800000
11
558.100000
21
22.700000
0
LINE
8
Layer 1
10
558.100000
20
22.700000
11
568.100000
21
22.700000
0
LINE
8
Layer 1
10
568.100000
20
22.700000
11
568.200000
21
22.800000
0
LINE
8
Layer 1
10
568.200000
20
22.800000
11
568.200000
21
27.700000
0
LINE
8
Layer 1
10
568.200000
20
27.700000
11
568.162500
21
27.737500
0
LINE
8
Layer 1
10
568.162500
20
27.737500
11
568.200000
21
27.700000
0
LINE
8
Layer 1
10
568.200000
20
27.700000
11
578.000000
21
27.700000
0
LINE
8
Layer 1
10
578.000000
20
27.700000
11
578.037500
21
27.737500
0
LINE
8
Layer 1
10
578.037500
20
27.737500
11
578.000000
21
27.700000
0
LINE
8
Layer 1
10
578.000000
20
27.700000
11
578.000000
21
22.800000
0
LINE
8
Layer 1
10
578.000000
20
22.800000
11
578.100000
21
22.700000
0
LINE
8
Layer 1
10
578.100000
20
22.700000
11
588.100000
21
22.700000
0
LINE
8
Layer 1
10
588.100000
20
22.700000
11
588.200000
21
22.800000
0
LINE
8
Layer 1
10
588.200000
20
22.800000
11
588.200000
21
27.700000
0
LINE
8
Layer 1
10
588.200000
20
27.700000
11
588.162500
21
27.737500
0
LINE
8
Layer 1
10
588.162500
20
27.737500
11
588.200000
21
27.700000
0
LINE
8
Layer 1
10
588.200000
20
27.700000
11
598.000000
21
27.700000
0
LINE
8
Layer 1
10
598.000000
20
27.700000
11
598.037500
21
27.737500
0
LINE
8
Layer 1
10
598.037500
20
27.737500
11
598.000000
21
27.700000
0
LINE
8
Layer 1
10
598.000000
20
27.700000
11
598.000000
21
22.800000
0
LINE
8
Layer 1
10
598.000000
20
22.800000
11
598.100000
21
22.700000
0
LINE
8
Layer 1
10
598.100000
20
22.700000
11
608.100000
21
22.700000
0
LINE
8
Layer 1
10
608.100000
20
22.700000
11
608.200000
21
22.800000
0
LINE
8
Layer 1
10
608.200000
20
22.800000
11
608.200000
21
27.800000
0
LINE
8
Layer 1
10
608.200000
20
27.800000
11
608.200000
21
37.700000
0
LINE
8
Layer 1
10
608.200000
20
37.700000
11
608.162500
21
37.737500
0
LINE
8
Layer 1
10
608.162500
20
37.737500
11
608.200000
21
37.700000
0
LINE
8
Layer 1
10
608.200000
20
37.700000
11
613.100000
21
37.700000
0
LINE
8
Layer 1
10
613.100000
20
37.700000
11
613.200000
21
37.800000
0
LINE
8
Layer 1
10
613.200000
20
37.800000
11
613.200000
21
47.800000
0
LINE
8
Layer 1
10
613.200000
20
47.800000
11
613.100000
21
47.900000
0
LINE
8
Layer 1
10
613.100000
20
47.900000
11
608.200000
21
47.900000
0
LINE
8
Layer 1
10
608.200000
20
47.900000
11
608.162500
21
47.862500
0
LINE
8
Layer 1
10
608.162500
20
47.862500
11
608.200000
21
47.900000
0
LINE
8
Layer 1
10
608.200000
20
47.900000
11
608.200000
21
57.700000
0
LINE
8
Layer 1
10
608.200000
20
57.700000
11
608.162500
21
57.737500
0
LINE
8
Layer 1
10
608.162500
20
57.737500
11
608.200000
21
57.700000
0
LINE
8
Layer 1
10
608.200000
20
57.700000
11
613.100000
21
57.700000
0
LINE
8
Layer 1
10
613.100000
20
57.700000
11
613.200000
21
57.800000
0
LINE
8
Layer 1
10
613.200000
20
57.800000
11
613.200000
21
67.800000
0
LINE
8
Layer 1
10
613.200000
20
67.800000
11
613.100000
21
67.900000
0
LINE
8
Layer 1
10
613.100000
20
67.900000
11
608.200000
21
67.900000
0
LINE
8
Layer 1
10
608.200000
20
67.900000
11
608.162500
21
67.862500
0
LINE
8
Layer 1
10
608.162500
20
67.862500
11
608.200000
21
67.900000
0
LINE
8
Layer 1
10
608.200000
20
67.900000
11
608.200000
21
77.700000
0
LINE
8
Layer 1
10
608.200000
20
77.700000
11
608.162500
21
77.737500
0
LINE
8
Layer 1
10
608.162500
20
77.737500
11
608.200000
21
77.700000
0
LINE
8
Layer 1
10
608.200000
20
77.700000
11
613.100000
21
77.700000
0
LINE
8
Layer 1
10
613.100000
20
77.700000
11
613.200000
21
77.800000
0
LINE
8
Layer 1
10
613.200000
20
77.800000
11
613.200000
21
87.800000
0
LINE
8
Layer 1
10
613.200000
20
87.800000
11
613.100000
21
87.900000
0
LINE
8
Layer 1
10
613.100000
20
87.900000
11
608.200000
21
87.900000
0
LINE
8
Layer 1
10
608.200000
20
87.900000
11
608.162500
21
87.862500
0
LINE
8
Layer 1
10
608.162500
20
87.862500
11
608.200000
21
87.900000
0
LINE
8
Layer 1
10
608.200000
20
87.900000
11
608.200000
21
97.800000
0
LINE
8
Layer 1
10
608.200000
20
97.800000
11
608.200000
21
102.800000
0
LINE
8
Layer 1
10
608.200000
20
102.800000
11
608.100000
21
102.900000
0
LINE
8
Layer 1
10
608.100000
20
102.900000
11
598.100000
21
102.900000
0
LINE
8
Layer 1
10
598.100000
20
102.900000
11
598.000000
21
102.800000
0
LINE
8
Layer 1
10
598.000000
20
102.800000
11
598.000000
21
97.900000
0
LINE
8
Layer 1
10
598.000000
20
97.900000
11
598.037500
21
97.862500
0
LINE
8
Layer 1
10
598.037500
20
97.862500
11
598.000000
21
97.900000
0
LINE
8
Layer 1
10
598.000000
20
97.900000
11
588.200000
21
97.900000
0
LINE
8
Layer 1
10
588.200000
20
97.900000
11
588.162500
21
97.862500
0
LINE
8
Layer 1
10
588.162500
20
97.862500
11
588.200000
21
97.900000
0
LINE
8
Layer 1
10
588.200000
20
97.900000
11
588.200000
21
102.800000
0
LINE
8
Layer 1
10
588.200000
20
102.800000
11
588.100000
21
102.900000
0
LINE
8
Layer 1
10
588.100000
20
102.900000
11
578.100000
21
102.900000
0
LINE
8
Layer 1
10
578.100000
20
102.900000
11
578.000000
21
102.800000
0
LINE
8
Layer 1
10
578.000000
20
102.800000
11
578.000000
21
97.900000
0
LINE
8
Layer 1
10
578.000000
20
97.900000
11
578.037500
21
97.862500
0
LINE
8
Layer 1
10
578.037500
20
97.862500
11
578.000000
21
97.900000
0
LINE
8
Layer 1
10
578.000000
20
97.900000
11
568.200000
21
97.900000
0
LINE
8
Layer 1
10
568.200000
20
97.900000
11
568.162500
21
97.862500
0
LINE
8
Layer 1
10
568.162500
20
97.862500
11
568.200000
21
97.900000
0
LINE
8
Layer 1
10
568.200000
20
97.900000
11
568.200000
21
102.800000
0
LINE
8
Layer 1
10
568.200000
20
102.800000
11
568.100000
21
102.900000
0
LINE
8
Layer 1
10
568.100000
20
102.900000
11
558.100000
21
102.900000
0
LINE
8
Layer 1
10
558.100000
20
102.900000
11
558.000000
21
102.800000
0
LINE
8
Layer 1
10
558.000000
20
102.800000
11
558.000000
21
97.900000
0
LINE
8
Layer 1
10
558.000000
20
97.900000
11
558.037500
21
97.862500
0
LINE
8
Layer 1
10
558.037500
20
97.862500
11
558.000000
21
97.900000
0
LINE
8
Layer 1
10
558.000000
20
97.900000
11
548.200000
21
97.900000
0
LINE
8
Layer 1
10
548.200000
20
97.900000
11
548.162500
21
97.862500
0
LINE
8
Layer 1
10
548.162500
20
97.862500
11
548.200000
21
97.900000
0
LINE
8
Layer 1
10
548.200000
20
97.900000
11
548.200000
21
102.800000
0
LINE
8
Layer 1
10
548.200000
20
102.800000
11
548.100000
21
102.900000
0
LINE
8
Layer 1
10
548.100000
20
102.900000
11
538.100000
21
102.900000
0
LINE
8
Layer 1
10
538.100000
20
102.900000
11
538.000000
21
102.800000
0
LINE
8
Layer 1
10
538.000000
20
102.800000
11
538.000000
21
97.900000
0
LINE
8
Layer 1
10
538.000000
20
97.900000
11
538.037500
21
97.862500
0
LINE
8
Layer 1
10
538.037500
20
97.862500
11
538.000000
21
97.900000
0
LINE
8
Layer 1
10
538.000000
20
97.900000
11
528.200000
21
97.900000
0
LINE
8
Layer 1
10
528.200000
20
97.900000
11
528.162500
21
97.862500
0
LINE
8
Layer 1
10
528.162500
20
97.862500
11
528.200000
21
97.900000
0
LINE
8
Layer 1
10
528.200000
20
97.900000
11
528.200000
21
102.800000
0
LINE
8
Layer 1
10
528.200000
20
102.800000
11
528.100000
21
102.900000
0
LINE
8
Layer 1
10
528.100000
20
102.900000
11
518.100000
21
102.900000
0
LINE
8
Layer 1
10
518.100000
20
102.900000
11
518.000000
21
102.800000
0
LINE
8
Layer 1
10
518.000000
20
102.800000
11
518.000000
21
97.900000
0
LINE
8
Layer 1
10
518.000000
20
97.900000
11
518.037500
21
97.862500
0
LINE
8
Layer 1
10
518.037500
20
97.862500
11
518.000000
21
97.900000
0
LINE
8
Layer 1
10
518.000000
20
97.900000
11
508.200000
21
97.900000
0
LINE
8
Layer 1
10
508.200000
20
97.900000
11
508.162500
21
97.862500
0
LINE
8
Layer 1
10
508.162500
20
97.862500
11
508.200000
21
97.900000
0
LINE
8
Layer 1
10
508.200000
20
97.900000
11
508.200000
21
102.800000
0
LINE
8
Layer 1
10
508.200000
20
102.800000
11
508.100000
21
102.900000
0
LINE
8
Layer 1
10
508.100000
20
102.900000
11
498.100000
21
102.900000
0
LINE
8
Layer 1
10
498.100000
20
102.900000
11
498.000000
21
102.800000
0
LINE
8
Layer 1
10
498.000000
20
102.800000
11
498.000000
21
97.900000
0
LINE
8
Layer 1
10
498.000000
20
97.900000
11
498.037500
21
97.862500
0
LINE
8
Layer 1
10
498.037500
20
97.862500
11
498.000000
21
97.900000
0
LINE
8
Layer 1
10
498.000000
20
97.900000
11
488.200000
21
97.900000
0
LINE
8
Layer 1
10
488.200000
20
97.900000
11
488.162500
21
97.862500
0
LINE
8
Layer 1
10
488.162500
20
97.862500
11
488.200000
21
97.900000
0
LINE
8
Layer 1
10
488.200000
20
97.900000
11
488.200000
21
102.800000
0
LINE
8
Layer 1
10
488.200000
20
102.800000
11
488.100000
21
102.900000
0
LINE
8
Layer 1
10
488.100000
20
102.900000
11
478.100000
21
102.900000
0
LINE
8
Layer 1
10
478.100000
20
102.900000
11
478.000000
21
102.800000
0
LINE
8
Layer 1
10
478.000000
20
102.800000
11
478.000000
21
97.900000
0
LINE
8
Layer 1
10
478.000000
20
97.900000
11
478.037500
21
97.862500
0
LINE
8
Layer 1
10
478.037500
20
97.862500
11
478.000000
21
97.900000
0
LINE
8
Layer 1
10
478.000000
20
97.900000
11
468.200000
21
97.900000
0
LINE
8
Layer 1
10
468.200000
20
97.900000
11
468.162500
21
97.862500
0
LINE
8
Layer 1
10
468.162500
20
97.862500
11
468.200000
21
97.900000
0
LINE
8
Layer 1
10
468.200000
20
97.900000
11
468.200000
21
102.800000
0
LINE
8
Layer 1
10
468.200000
20
102.800000
11
468.100000
21
102.900000
0
LINE
8
Layer 1
10
468.100000
20
102.900000
11
458.100000
21
102.900000
0
LINE
8
Layer 1
10
458.100000
20
102.900000
11
458.000000
21
102.800000
0
LINE
8
Layer 1
10
458.000000
20
102.800000
11
458.000000
21
97.900000
0
LINE
8
Layer 1
10
458.000000
20
97.900000
11
458.037500
21
97.862500
0
LINE
8
Layer 1
10
458.037500
20
97.862500
11
458.000000
21
97.900000
0
LINE
8
Layer 1
10
458.000000
20
97.900000
11
448.200000
21
97.900000
0
LINE
8
Layer 1
10
448.200000
20
97.900000
11
448.162500
21
97.862500
0
LINE
8
Layer 1
10
448.162500
20
97.862500
11
448.200000
21
97.900000
0
LINE
8
Layer 1
10
448.200000
20
97.900000
11
448.200000
21
102.800000
0
LINE
8
Layer 1
10
448.200000
20
102.800000
11
448.100000
21
102.900000
0
LINE
8
Layer 1
10
448.100000
20
102.900000
11
438.100000
21
102.900000
0
LINE
8
Layer 1
10
438.100000
20
102.900000
11
438.000000
21
102.800000
0
LINE
8
Layer 1
10
438.000000
20
102.800000
11
438.000000
21
97.900000
0
LINE
8
Layer 1
10
438.000000
20
97.900000
11
438.037500
21
97.862500
0
LINE
8
Layer 1
10
438.037500
20
97.862500
11
438.000000
21
97.900000
0
LINE
8
Layer 1
10
438.000000
20
97.900000
11
428.200000
21
97.900000
0
LINE
8
Layer 1
10
428.200000
20
97.900000
11
428.162500
21
97.862500
0
LINE
8
Layer 1
10
428.162500
20
97.862500
11
428.200000
21
97.900000
0
LINE
8
Layer 1
10
428.200000
20
97.900000
11
428.200000
21
102.800000
0
LINE
8
Layer 1
10
428.200000
20
102.800000
11
428.100000
21
102.900000
0
LINE
8
Layer 1
10
428.100000
20
102.900000
11
418.100000
21
102.900000
0
LINE
8
Layer 1
10
418.100000
20
102.900000
11
418.000000
21
102.800000
0
LINE
8
Layer 1
10
418.000000
20
102.800000
11
418.000000
21
97.900000
0
LINE
8
Layer 1
10
418.000000
20
97.900000
11
418.037500
21
97.862500
0
LINE
8
Layer 1
10
418.037500
20
97.862500
11
418.000000
21
97.900000
0
LINE
8
Layer 1
10
418.000000
20
97.900000
11
408.200000
21
97.900000
0
LINE
8
Layer 1
10
408.200000
20
97.900000
11
408.162500
21
97.862500
0
LINE
8
Layer 1
10
408.162500
20
97.862500
11
408.200000
21
97.900000
0
LINE
8
Layer 1
10
408.200000
20
97.900000
11
408.200000
21
102.800000
0
LINE
8
Layer 1
10
408.200000
20
102.800000
11
408.100000
21
102.900000
0
LINE
8
Layer 1
10
408.100000
20
102.900000
11
398.100000
21
102.900000
0
LINE
8
Layer 1
10
398.100000
20
102.900000
11
398.000000
21
102.800000
0
LINE
8
Layer 1
10
398.000000
20
102.800000
11
398.000000
21
97.900000
0
LINE
8
Layer 1
10
398.000000
20
97.900000
11
398.037500
21
97.862500
0
LINE
8
Layer 1
10
398.037500
20
97.862500
11
398.000000
21
97.900000
0
LINE
8
Layer 1
10
398.000000
20
97.900000
11
388.200000
21
97.900000
0
LINE
8
Layer 1
10
388.200000
20
97.900000
11
388.162500
21
97.862500
0
LINE
8
Layer 1
10
388.162500
20
97.862500
11
388.200000
21
97.900000
0
LINE
8
Layer 1
10
388.200000
20
97.900000
11
388.200000
21
102.800000
0
LINE
8
Layer 1
10
388.200000
20
102.800000
11
388.100000
21
102.900000
0
LINE
8
Layer 1
10
388.100000
20
102.900000
11
378.100000
21
102.900000
0
LINE
8
Layer 1
10
378.100000
20
102.900000
11
378.000000
21
102.800000
0
LINE
8
Layer 1
10
378.000000
20
102.800000
11
378.000000
21
97.900000
0
LINE
8
Layer 1
10
378.000000
20
97.900000
11
378.037500
21
97.862500
0
LINE
8
Layer 1
10
378.037500
20
97.862500
11
378.000000
21
97.900000
0
LINE
8
Layer 1
10
378.000000
20
97.900000
11
368.200000
21
97.900000
0
LINE
8
Layer 1
10
368.200000
20
97.900000
11
368.162500
21
97.862500
0
LINE
8
Layer 1
10
368.162500
20
97.862500
11
368.200000
21
97.900000
0
LINE
8
Layer 1
10
368.200000
20
97.900000
11
368.200000
21
102.800000
0
LINE
8
Layer 1
10
368.200000
20
102.800000
11
368.100000
21
102.900000
0
LINE
8
Layer 1
10
368.100000
20
102.900000
11
358.100000
21
102.900000
0
LINE
8
Layer 1
10
358.100000
20
102.900000
11
358.000000
21
102.800000
0
LINE
8
Layer 1
10
358.000000
20
102.800000
11
358.000000
21
97.900000
0
LINE
8
Layer 1
10
358.000000
20
97.900000
11
358.037500
21
97.862500
0
LINE
8
Layer 1
10
358.037500
20
97.862500
11
358.000000
21
97.900000
0
LINE
8
Layer 1
10
358.000000
20
97.900000
11
348.200000
21
97.900000
0
LINE
8
Layer 1
10
348.200000
20
97.900000
11
348.162500
21
97.862500
0
LINE
8
Layer 1
10
348.162500
20
97.862500
11
348.200000
21
97.900000
0
LINE
8
Layer 1
10
348.200000
20
97.900000
11
348.200000
21
102.800000
0
LINE
8
Layer 1
10
348.200000
20
102.800000
11
348.100000
21
102.900000
0
LINE
8
Layer 1
10
348.100000
20
102.900000
11
338.100000
21
102.900000
0
LINE
8
Layer 1
10
338.100000
20
102.900000
11
338.000000
21
102.800000
0
LINE
8
Layer 1
10
338.000000
20
102.800000
11
338.000000
21
97.900000
0
LINE
8
Layer 1
10
338.000000
20
97.900000
11
338.037500
21
97.862500
0
LINE
8
Layer 1
10
338.037500
20
97.862500
11
338.000000
21
97.900000
0
LINE
8
Layer 1
10
338.000000
20
97.900000
11
328.200000
21
97.900000
0
LINE
8
Layer 1
10
328.200000
20
97.900000
11
328.162500
21
97.862500
0
LINE
8
Layer 1
10
328.162500
20
97.862500
11
328.200000
21
97.900000
0
LINE
8
Layer 1
10
328.200000
20
97.900000
11
328.200000
21
102.800000
0
LINE
8
Layer 1
10
328.200000
20
102.800000
11
328.100000
21
102.900000
0
LINE
8
Layer 1
10
328.100000
20
102.900000
11
318.100000
21
102.900000
0
LINE
8
Layer 1
10
318.100000
20
102.900000
11
318.000000
21
102.800000
0
LINE
8
Layer 1
10
318.000000
20
102.800000
11
318.000000
21
97.900000
0
LINE
8
Layer 1
10
318.000000
20
97.900000
11
318.037500
21
97.862500
0
LINE
8
Layer 1
10
318.037500
20
97.862500
11
318.000000
21
97.900000
0
LINE
8
Layer 1
10
318.000000
20
97.900000
11
308.200000
21
97.900000
0
LINE
8
Layer 1
10
308.200000
20
97.900000
11
308.162500
21
97.862500
0
LINE
8
Layer 1
10
308.162500
20
97.862500
11
308.200000
21
97.900000
0
LINE
8
Layer 1
10
308.200000
20
97.900000
11
308.200000
21
102.800000
0
LINE
8
Layer 1
10
308.200000
20
102.800000
11
308.100000
21
102.900000
0
LINE
8
Layer 1
10
308.100000
20
102.900000
11
298.100000
21
102.900000
0
LINE
8
Layer 1
10
298.100000
20
102.900000
11
298.000000
21
102.800000
0
LINE
8
Layer 1
10
298.000000
20
102.800000
11
298.000000
21
97.900000
0
LINE
8
Layer 1
10
298.000000
20
97.900000
11
298.037500
21
97.862500
0
LINE
8
Layer 1
10
298.037500
20
97.862500
11
298.000000
21
97.900000
0
LINE
8
Layer 1
10
298.000000
20
97.900000
11
288.200000
21
97.900000
0
LINE
8
Layer 1
10
288.200000
20
97.900000
11
288.162500
21
97.862500
0
LINE
8
Layer 1
10
288.162500
20
97.862500
11
288.200000
21
97.900000
0
LINE
8
Layer 1
10
288.200000
20
97.900000
11
288.200000
21
102.800000
0
LINE
8
Layer 1
10
288.200000
20
102.800000
11
288.100000
21
102.900000
0
LINE
8
Layer 1
10
288.100000
20
102.900000
11
278.100000
21
102.900000
0
LINE
8
Layer 1
10
278.100000
20
102.900000
11
278.000000
21
102.800000
0
LINE
8
Layer 1
10
278.000000
20
102.800000
11
278.000000
21
97.900000
0
LINE
8
Layer 1
10
278.000000
20
97.900000
11
278.037500
21
97.862500
0
LINE
8
Layer 1
10
278.037500
20
97.862500
11
278.000000
21
97.900000
0
LINE
8
Layer 1
10
278.000000
20
97.900000
11
268.200000
21
97.900000
0
LINE
8
Layer 1
10
268.200000
20
97.900000
11
268.162500
21
97.862500
0
LINE
8
Layer 1
10
268.162500
20
97.862500
11
268.200000
21
97.900000
0
LINE
8
Layer 1
10
268.200000
20
97.900000
11
268.200000
21
102.800000
0
LINE
8
Layer 1
10
268.200000
20
102.800000
11
268.100000
21
102.900000
0
LINE
8
Layer 1
10
268.100000
20
102.900000
11
258.100000
21
102.900000
0
LINE
8
Layer 1
10
258.100000
20
102.900000
11
258.000000
21
102.800000
0
LINE
8
Layer 1
10
258.000000
20
102.800000
11
258.000000
21
97.900000
0
LINE
8
Layer 1
10
258.000000
20
97.900000
11
258.037500
21
97.862500
0
LINE
8
Layer 1
10
258.037500
20
97.862500
11
258.000000
21
97.900000
0
LINE
8
Layer 1
10
258.000000
20
97.900000
11
248.200000
21
97.900000
0
LINE
8
Layer 1
10
248.200000
20
97.900000
11
248.162500
21
97.862500
0
LINE
8
Layer 1
10
248.162500
20
97.862500
11
248.200000
21
97.900000
0
LINE
8
Layer 1
10
248.200000
20
97.900000
11
248.200000
21
102.800000
0
LINE
8
Layer 1
10
248.200000
20
102.800000
11
248.100000
21
102.900000
0
LINE
8
Layer 1
10
248.100000
20
102.900000
11
238.100000
21
102.900000
0
LINE
8
Layer 1
10
238.100000
20
102.900000
11
238.000000
21
102.800000
0
LINE
8
Layer 1
10
238.000000
20
102.800000
11
238.000000
21
97.900000
0
LINE
8
Layer 1
10
238.000000
20
97.900000
11
238.037500
21
97.862500
0
LINE
8
Layer 1
10
238.037500
20
97.862500
11
238.000000
21
97.900000
0
LINE
8
Layer 1
10
238.000000
20
97.900000
11
228.200000
21
97.900000
0
LINE
8
Layer 1
10
228.200000
20
97.900000
11
228.162500
21
97.862500
0
LINE
8
Layer 1
10
228.162500
20
97.862500
11
228.200000
21
97.900000
0
LINE
8
Layer 1
10
228.200000
20
97.900000
11
228.200000
21
102.800000
0
LINE
8
Layer 1
10
228.200000
20
102.800000
11
228.100000
21
102.900000
0
LINE
8
Layer 1
10
228.100000
20
102.900000
11
218.100000
21
102.900000
0
LINE
8
Layer 1
10
218.100000
20
102.900000
11
218.000000
21
102.800000
0
LINE
8
Layer 1
10
218.000000
20
102.800000
11
218.000000
21
97.800000
0
LINE
8
Layer 1
10
218.000000
20
97.800000
11
218.000000
21
87.900000
0
LINE
8
Layer 1
10
218.000000
20
87.900000
11
218.037500
21
87.862500
0
LINE
8
Layer 1
10
218.037500
20
87.862500
11
218.000000
21
87.900000
0
LINE
8
Layer 1
10
218.000000
20
87.900000
11
213.100000
21
87.900000
0
LINE
8
Layer 1
10
213.100000
20
87.900000
11
213.000000
21
87.800000
0
LINE
8
Layer 1
10
213.000000
20
87.800000
11
213.000000
21
77.800000
0
LINE
8
Layer 1
10
213.000000
20
77.800000
11
213.100000
21
77.700000
0
LINE
8
Layer 1
10
213.100000
20
77.700000
11
218.000000
21
77.700000
0
LINE
8
Layer 1
10
218.000000
20
77.700000
11
218.000000
21
77.700000
0
LINE
8
Layer 1
10
218.000000
20
77.700000
11
218.000000
21
67.900000
0
LINE
8
Layer 1
10
218.000000
20
67.900000
11
218.037500
21
67.862500
0
LINE
8
Layer 1
10
218.037500
20
67.862500
11
218.000000
21
67.900000
0
LINE
8
Layer 1
10
218.000000
20
67.900000
11
213.100000
21
67.900000
0
LINE
8
Layer 1
10
213.100000
20
67.900000
11
213.000000
21
67.800000
0
LINE
8
Layer 1
10
213.000000
20
67.800000
11
213.000000
21
57.800000
0
LINE
8
Layer 1
10
213.000000
20
57.800000
11
213.100000
21
57.700000
0
LINE
8
Layer 1
10
213.100000
20
57.700000
11
218.000000
21
57.700000
0
LINE
8
Layer 1
10
218.000000
20
57.700000
11
218.000000
21
57.700000
0
LINE
8
Layer 1
10
218.000000
20
57.700000
11
218.000000
21
47.900000
0
LINE
8
Layer 1
10
218.000000
20
47.900000
11
218.037500
21
47.862500
0
LINE
8
Layer 1
10
218.037500
20
47.862500
11
218.000000
21
47.900000
0
LINE
8
Layer 1
10
218.000000
20
47.900000
11
213.100000
21
47.900000
0
LINE
8
Layer 1
10
213.100000
20
47.900000
11
213.000000
21
47.800000
0
LINE
8
Layer 1
10
213.000000
20
47.800000
11
213.000000
21
37.800000
0
LINE
8
Layer 1
10
213.000000
20
37.800000
11
213.100000
21
37.700000
0
LINE
8
Layer 1
10
213.100000
20
37.700000
11
218.000000
21
37.700000
0
LINE
8
Layer 1
10
218.000000
20
37.700000
11
218.000000
21
37.700000
0
LINE
8
Layer 1
10
218.000000
20
37.700000
11
218.000000
21
27.800000
0
LINE
8
Layer 1
10
218.000000
20
27.800000
11
218.000000
21
22.800000
0
LINE
8
Layer 1
10
218.000000
20
22.800000
11
218.100000
21
22.700000
0
LINE
8
Layer 1
10
218.100000
20
105.400000
11
228.100000
21
105.400000
0
LINE
8
Layer 1
10
228.100000
20
105.400000
11
228.200000
21
105.500000
0
LINE
8
Layer 1
10
228.200000
20
105.500000
11
228.200000
21
110.400000
0
LINE
8
Layer 1
10
228.200000
20
110.400000
11
228.200000
21
110.400000
0
LINE
8
Layer 1
10
228.200000
20
110.400000
11
238.000000
21
110.400000
0
LINE
8
Layer 1
10
238.000000
20
110.400000
11
238.000000
21
110.400000
0
LINE
8
Layer 1
10
238.000000
20
110.400000
11
238.000000
21
105.500000
0
LINE
8
Layer 1
10
238.000000
20
105.500000
11
238.100000
21
105.400000
0
LINE
8
Layer 1
10
238.100000
20
105.400000
11
248.100000
21
105.400000
0
LINE
8
Layer 1
10
248.100000
20
105.400000
11
248.200000
21
105.500000
0
LINE
8
Layer 1
10
248.200000
20
105.500000
11
248.200000
21
110.400000
0
LINE
8
Layer 1
10
248.200000
20
110.400000
11
248.200000
21
110.400000
0
LINE
8
Layer 1
10
248.200000
20
110.400000
11
258.000000
21
110.400000
0
LINE
8
Layer 1
10
258.000000
20
110.400000
11
258.037500
21
110.437500
0
LINE
8
Layer 1
10
258.037500
20
110.437500
11
258.000000
21
110.400000
0
LINE
8
Layer 1
10
258.000000
20
110.400000
11
258.000000
21
105.500000
0
LINE
8
Layer 1
10
258.000000
20
105.500000
11
258.100000
21
105.400000
0
LINE
8
Layer 1
10
258.100000
20
105.400000
11
268.100000
21
105.400000
0
LINE
8
Layer 1
10
268.100000
20
105.400000
11
268.200000
21
105.500000
0
LINE
8
Layer 1
10
268.200000
20
105.500000
11
268.200000
21
110.400000
0
LINE
8
Layer 1
10
268.200000
20
110.400000
11
268.200000
21
110.400000
0
LINE
8
Layer 1
10
268.200000
20
110.400000
11
278.000000
21
110.400000
0
LINE
8
Layer 1
10
278.000000
20
110.400000
11
278.037500
21
110.437500
0
LINE
8
Layer 1
10
278.037500
20
110.437500
11
278.000000
21
110.400000
0
LINE
8
Layer 1
10
278.000000
20
110.400000
11
278.000000
21
105.500000
0
LINE
8
Layer 1
10
278.000000
20
105.500000
11
278.100000
21
105.400000
0
LINE
8
Layer 1
10
278.100000
20
105.400000
11
288.100000
21
105.400000
0
LINE
8
Layer 1
10
288.100000
20
105.400000
11
288.200000
21
105.500000
0
LINE
8
Layer 1
10
288.200000
20
105.500000
11
288.200000
21
110.400000
0
LINE
8
Layer 1
10
288.200000
20
110.400000
11
288.200000
21
110.400000
0
LINE
8
Layer 1
10
288.200000
20
110.400000
11
298.000000
21
110.400000
0
LINE
8
Layer 1
10
298.000000
20
110.400000
11
298.037500
21
110.437500
0
LINE
8
Layer 1
10
298.037500
20
110.437500
11
298.000000
21
110.400000
0
LINE
8
Layer 1
10
298.000000
20
110.400000
11
298.000000
21
105.500000
0
LINE
8
Layer 1
10
298.000000
20
105.500000
11
298.100000
21
105.400000
0
LINE
8
Layer 1
10
298.100000
20
105.400000
11
308.100000
21
105.400000
0
LINE
8
Layer 1
10
308.100000
20
105.400000
11
308.200000
21
105.500000
0
LINE
8
Layer 1
10
308.200000
20
105.500000
11
308.200000
21
110.400000
0
LINE
8
Layer 1
10
308.200000
20
110.400000
11
308.200000
21
110.400000
0
LINE
8
Layer 1
10
308.200000
20
110.400000
11
318.000000
21
110.400000
0
LINE
8
Layer 1
10
318.000000
20
110.400000
11
318.037500
21
110.437500
0
LINE
8
Layer 1
10
318.037500
20
110.437500
11
318.000000
21
110.400000
0
LINE
8
Layer 1
10
318.000000
20
110.400000
11
318.000000
21
105.500000
0
LINE
8
Layer 1
10
318.000000
20
105.500000
11
318.100000
21
105.400000
0
LINE
8
Layer 1
10
318.100000
20
105.400000
11
328.100000
21
105.400000
0
LINE
8
Layer 1
10
328.100000
20
105.400000
11
328.200000
21
105.500000
0
LINE
8
Layer 1
10
328.200000
20
105.500000
11
328.200000
21
110.400000
0
LINE
8
Layer 1
10
328.200000
20
110.400000
11
328.200000
21
110.400000
0
LINE
8
Layer 1
10
328.200000
20
110.400000
11
338.000000
21
110.400000
0
LINE
8
Layer 1
10
338.000000
20
110.400000
11
338.037500
21
110.437500
0
LINE
8
Layer 1
10
338.037500
20
110.437500
11
338.000000
21
110.400000
0
LINE
8
Layer 1
10
338.000000
20
110.400000
11
338.000000
21
105.500000
0
LINE
8
Layer 1
10
338.000000
20
105.500000
11
338.100000
21
105.400000
0
LINE
8
Layer 1
10
338.100000
20
105.400000
11
348.100000
21
105.400000
0
LINE
8
Layer 1
10
348.100000
20
105.400000
11
348.200000
21
105.500000
0
LINE
8
Layer 1
10
348.200000
20
105.500000
11
348.200000
21
110.400000
0
LINE
8
Layer 1
10
348.200000
20
110.400000
11
348.200000
21
110.400000
0
LINE
8
Layer 1
10
348.200000
20
110.400000
11
358.000000
21
110.400000
0
LINE
8
Layer 1
10
358.000000
20
110.400000
11
358.037500
21
110.437500
0
LINE
8
Layer 1
10
358.037500
20
110.437500
11
358.000000
21
110.400000
0
LINE
8
Layer 1
10
358.000000
20
110.400000
11
358.000000
21
105.500000
0
LINE
8
Layer 1
10
358.000000
20
105.500000
11
358.100000
21
105.400000
0
LINE
8
Layer 1
10
358.100000
20
105.400000
11
368.100000
21
105.400000
0
LINE
8
Layer 1
10
368.100000
20
105.400000
11
368.200000
21
105.500000
0
LINE
8
Layer 1
10
368.200000
20
105.500000
11
368.200000
21
110.400000
0
LINE
8
Layer 1
10
368.200000
20
110.400000
11
368.200000
21
110.400000
0
LINE
8
Layer 1
10
368.200000
20
110.400000
11
378.000000
21
110.400000
0
LINE
8
Layer 1
10
378.000000
20
110.400000
11
378.037500
21
110.437500
0
LINE
8
Layer 1
10
378.037500
20
110.437500
11
378.000000
21
110.400000
0
LINE
8
Layer 1
10
378.000000
20
110.400000
11
378.000000
21
105.500000
0
LINE
8
Layer 1
10
378.000000
20
105.500000
11
378.100000
21
105.400000
0
LINE
8
Layer 1
10
378.100000
20
105.400000
11
388.100000
21
105.400000
0
LINE
8
Layer 1
10
388.100000
20
105.400000
11
388.200000
21
105.500000
0
LINE
8
Layer 1
10
388.200000
20
105.500000
11
388.200000
21
110.400000
0
LINE
8
Layer 1
10
388.200000
20
110.400000
11
388.200000
21
110.400000
0
LINE
8
Layer 1
10
388.200000
20
110.400000
11
398.000000
21
110.400000
0
LINE
8
Layer 1
10
398.000000
20
110.400000
11
398.037500
21
110.437500
0
LINE
8
Layer 1
10
398.037500
20
110.437500
11
398.000000
21
110.400000
0
LINE
8
Layer 1
10
398.000000
20
110.400000
11
398.000000
21
105.500000
0
LINE
8
Layer 1
10
398.000000
20
105.500000
11
398.100000
21
105.400000
0
LINE
8
Layer 1
10
398.100000
20
105.400000
11
408.100000
21
105.400000
0
LINE
8
Layer 1
10
408.100000
20
105.400000
11
408.200000
21
105.500000
0
LINE
8
Layer 1
10
408.200000
20
105.500000
11
408.200000
21
110.400000
0
LINE
8
Layer 1
10
408.200000
20
110.400000
11
408.200000
21
110.400000
0
LINE
8
Layer 1
10
408.200000
20
110.400000
11
418.000000
21
110.400000
0
LINE
8
Layer 1
10
418.000000
20
110.400000
11
418.037500
21
110.437500
0
LINE
8
Layer 1
10
418.037500
20
110.437500
11
418.000000
21
110.400000
0
LINE
8
Layer 1
10
418.000000
20
110.400000
11
418.000000
21
105.500000
0
LINE
8
Layer 1
10
418.000000
20
105.500000
11
418.100000
21
105.400000
0
LINE
8
Layer 1
10
418.100000
20
105.400000
11
428.100000
21
105.400000
0
LINE
8
Layer 1
10
428.100000
20
105.400000
11
428.200000
21
105.500000
0
LINE
8
Layer 1
10
428.200000
20
105.500000
11
428.200000
21
110.400000
0
LINE
8
Layer 1
10
428.200000
20
110.400000
11
428.200000
21
110.400000
0
LINE
8
Layer 1
10
428.200000
20
110.400000
11
438.000000
21
110.400000
0
LINE
8
Layer 1
10
438.000000
20
110.400000
11
438.037500
21
110.437500
0
LINE
8
Layer 1
10
438.037500
20
110.437500
11
438.000000
21
110.400000
0
LINE
8
Layer 1
10
438.000000
20
110.400000
11
438.000000
21
105.500000
0
LINE
8
Layer 1
10
438.000000
20
105.500000
11
438.100000
21
105.400000
0
LINE
8
Layer 1
10
438.100000
20
105.400000
11
448.100000
21
105.400000
0
LINE
8
Layer 1
10
448.100000
20
105.400000
11
448.200000
21
105.500000
0
LINE
8
Layer 1
10
448.200000
20
105.500000
11
448.200000
21
110.400000
0
LINE
8
Layer 1
10
448.200000
20
110.400000
11
448.200000
21
110.400000
0
LINE
8
Layer 1
10
448.200000
20
110.400000
11
458.000000
21
110.400000
0
LINE
8
Layer 1
10
458.000000
20
110.400000
11
458.037500
21
110.437500
0
LINE
8
Layer 1
10
458.037500
20
110.437500
11
458.000000
21
110.400000
0
LINE
8
Layer 1
10
458.000000
20
110.400000
11
458.000000
21
105.500000
0
LINE
8
Layer 1
10
458.000000
20
105.500000
11
458.100000
21
105.400000
0
LINE
8
Layer 1
10
458.100000
20
105.400000
11
468.100000
21
105.400000
0
LINE
8
Layer 1
10
468.100000
20
105.400000
11
468.200000
21
105.500000
0
LINE
8
Layer 1
10
468.200000
20
105.500000
11
468.200000
21
110.400000
0
LINE
8
Layer 1
10
468.200000
20
110.400000
11
468.200000
21
110.400000
0
LINE
8
Layer 1
10
468.200000
20
110.400000
11
478.000000
21
110.400000
0
LINE
8
Layer 1
10
478.000000
20
110.400000
11
478.037500
21
110.437500
0
LINE
8
Layer 1
10
478.037500
20
110.437500
11
478.000000
21
110.400000
0
LINE
8
Layer 1
10
478.000000
20
110.400000
11
478.000000
21
105.500000
0
LINE
8
Layer 1
10
478.000000
20
105.500000
11
478.100000
21
105.400000
0
LINE
8
Layer 1
10
478.100000
20
105.400000
11
488.100000
21
105.400000
0
LINE
8
Layer 1
10
488.100000
20
105.400000
11
488.200000
21
105.500000
0
LINE
8
Layer 1
10
488.200000
20
105.500000
11
488.200000
21
110.400000
0
LINE
8
Layer 1
10
488.200000
20
110.400000
11
488.200000
21
110.400000
0
LINE
8
Layer 1
10
488.200000
20
110.400000
11
498.000000
21
110.400000
0
LINE
8
Layer 1
10
498.000000
20
110.400000
11
498.037500
21
110.437500
0
LINE
8
Layer 1
10
498.037500
20
110.437500
11
498.000000
21
110.400000
0
LINE
8
Layer 1
10
498.000000
20
110.400000
11
498.000000
21
105.500000
0
LINE
8
Layer 1
10
498.000000
20
105.500000
11
498.100000
21
105.400000
0
LINE
8
Layer 1
10
498.100000
20
105.400000
11
508.100000
21
105.400000
0
LINE
8
Layer 1
10
508.100000
20
105.400000
11
508.200000
21
105.500000
0
LINE
8
Layer 1
10
508.200000
20
105.500000
11
508.200000
21
110.400000
0
LINE
8
Layer 1
10
508.200000
20
110.400000
11
508.200000
21
110.400000
0
LINE
8
Layer 1
10
508.200000
20
110.400000
11
518.000000
21
110.400000
0
LINE
8
Layer 1
10
518.000000
20
110.400000
11
518.037500
21
110.437500
0
LINE
8
Layer 1
10
518.037500
20
110.437500
11
518.000000
21
110.400000
0
LINE
8
Layer 1
10
518.000000
20
110.400000
11
518.000000
21
105.500000
0
LINE
8
Layer 1
10
518.000000
20
105.500000
11
518.100000
21
105.400000
0
LINE
8
Layer 1
10
518.100000
20
105.400000
11
528.100000
21
105.400000
0
LINE
8
Layer 1
10
528.100000
20
105.400000
11
528.200000
21
105.500000
0
LINE
8
Layer 1
10
528.200000
20
105.500000
11
528.200000
21
110.400000
0
LINE
8
Layer 1
10
528.200000
20
110.400000
11
528.162500
21
110.437500
0
LINE
8
Layer 1
10
528.162500
20
110.437500
11
528.200000
21
110.400000
0
LINE
8
Layer 1
10
528.200000
20
110.400000
11
538.000000
21
110.400000
0
LINE
8
Layer 1
10
538.000000
20
110.400000
11
538.037500
21
110.437500
0
LINE
8
Layer 1
10
538.037500
20
110.437500
11
538.000000
21
110.400000
0
LINE
8
Layer 1
10
538.000000
20
110.400000
11
538.000000
21
105.500000
0
LINE
8
Layer 1
10
538.000000
20
105.500000
11
538.100000
21
105.400000
0
LINE
8
Layer 1
10
538.100000
20
105.400000
11
548.100000
21
105.400000
0
LINE
8
Layer 1
10
548.100000
20
105.400000
11
548.200000
21
105.500000
0
LINE
8
Layer 1
10
548.200000
20
105.500000
11
548.200000
21
110.400000
0
LINE
8
Layer 1
10
548.200000
20
110.400000
11
548.162500
21
110.437500
0
LINE
8
Layer 1
10
548.162500
20
110.437500
11
548.200000
21
110.400000
0
LINE
8
Layer 1
10
548.200000
20
110.400000
11
558.000000
21
110.400000
0
LINE
8
Layer 1
10
558.000000
20
110.400000
11
558.037500
21
110.437500
0
LINE
8
Layer 1
10
558.037500
20
110.437500
11
558.000000
21
110.400000
0
LINE
8
Layer 1
10
558.000000
20
110.400000
11
558.000000
21
105.500000
0
LINE
8
Layer 1
10
558.000000
20
105.500000
11
558.100000
21
105.400000
0
LINE
8
Layer 1
10
558.100000
20
105.400000
11
568.100000
21
105.400000
0
LINE
8
Layer 1
10
568.100000
20
105.400000
11
568.200000
21
105.500000
0
LINE
8
Layer 1
10
568.200000
20
105.500000
11
568.200000
21
110.400000
0
LINE
8
Layer 1
10
568.200000
20
110.400000
11
568.162500
21
110.437500
0
LINE
8
Layer 1
10
568.162500
20
110.437500
11
568.200000
21
110.400000
0
LINE
8
Layer 1
10
568.200000
20
110.400000
11
578.000000
21
110.400000
0
LINE
8
Layer 1
10
578.000000
20
110.400000
11
578.037500
21
110.437500
0
LINE
8
Layer 1
10
578.037500
20
110.437500
11
578.000000
21
110.400000
0
LINE
8
Layer 1
10
578.000000
20
110.400000
11
578.000000
21
105.500000
0
LINE
8
Layer 1
10
578.000000
20
105.500000
11
578.100000
21
105.400000
0
LINE
8
Layer 1
10
578.100000
20
105.400000
11
588.100000
21
105.400000
0
LINE
8
Layer 1
10
588.100000
20
105.400000
11
588.200000
21
105.500000
0
LINE
8
Layer 1
10
588.200000
20
105.500000
11
588.200000
21
110.400000
0
LINE
8
Layer 1
10
588.200000
20
110.400000
11
588.162500
21
110.437500
0
LINE
8
Layer 1
10
588.162500
20
110.437500
11
588.200000
21
110.400000
0
LINE
8
Layer 1
10
588.200000
20
110.400000
11
598.000000
21
110.400000
0
LINE
8
Layer 1
10
598.000000
20
110.400000
11
598.037500
21
110.437500
0
LINE
8
Layer 1
10
598.037500
20
110.437500
11
598.000000
21
110.400000
0
LINE
8
Layer 1
10
598.000000
20
110.400000
11
598.000000
21
105.500000
0
LINE
8
Layer 1
10
598.000000
20
105.500000
11
598.100000
21
105.400000
0
LINE
8
Layer 1
10
598.100000
20
105.400000
11
608.100000
21
105.400000
0
LINE
8
Layer 1
10
608.100000
20
105.400000
11
608.200000
21
105.500000
0
LINE
8
Layer 1
10
608.200000
20
105.500000
11
608.200000
21
110.500000
0
LINE
8
Layer 1
10
608.200000
20
110.500000
11
608.200000
21
120.400000
0
LINE
8
Layer 1
10
608.200000
20
120.400000
11
608.162500
21
120.437500
0
LINE
8
Layer 1
10
608.162500
20
120.437500
11
608.200000
21
120.400000
0
LINE
8
Layer 1
10
608.200000
20
120.400000
11
613.100000
21
120.400000
0
LINE
8
Layer 1
10
613.100000
20
120.400000
11
613.200000
21
120.500000
0
LINE
8
Layer 1
10
613.200000
20
120.500000
11
613.200000
21
130.500000
0
LINE
8
Layer 1
10
613.200000
20
130.500000
11
613.100000
21
130.600000
0
LINE
8
Layer 1
10
613.100000
20
130.600000
11
608.200000
21
130.600000
0
LINE
8
Layer 1
10
608.200000
20
130.600000
11
608.162500
21
130.562500
0
LINE
8
Layer 1
10
608.162500
20
130.562500
11
608.200000
21
130.600000
0
LINE
8
Layer 1
10
608.200000
20
130.600000
11
608.200000
21
140.400000
0
LINE
8
Layer 1
10
608.200000
20
140.400000
11
608.162500
21
140.437500
0
LINE
8
Layer 1
10
608.162500
20
140.437500
11
608.200000
21
140.400000
0
LINE
8
Layer 1
10
608.200000
20
140.400000
11
613.100000
21
140.400000
0
LINE
8
Layer 1
10
613.100000
20
140.400000
11
613.200000
21
140.500000
0
LINE
8
Layer 1
10
613.200000
20
140.500000
11
613.200000
21
150.500000
0
LINE
8
Layer 1
10
613.200000
20
150.500000
11
613.100000
21
150.600000
0
LINE
8
Layer 1
10
613.100000
20
150.600000
11
608.200000
21
150.600000
0
LINE
8
Layer 1
10
608.200000
20
150.600000
11
608.162500
21
150.562500
0
LINE
8
Layer 1
10
608.162500
20
150.562500
11
608.200000
21
150.600000
0
LINE
8
Layer 1
10
608.200000
20
150.600000
11
608.200000
21
160.400000
0
LINE
8
Layer 1
10
608.200000
20
160.400000
11
608.162500
21
160.437500
0
LINE
8
Layer 1
10
608.162500
20
160.437500
11
608.200000
21
160.400000
0
LINE
8
Layer 1
10
608.200000
20
160.400000
11
613.100000
21
160.400000
0
LINE
8
Layer 1
10
613.100000
20
160.400000
11
613.200000
21
160.500000
0
LINE
8
Layer 1
10
613.200000
20
160.500000
11
613.200000
21
170.500000
0
LINE
8
Layer 1
10
613.200000
20
170.500000
11
613.100000
21
170.600000
0
LINE
8
Layer 1
10
613.100000
20
170.600000
11
608.200000
21
170.600000
0
LINE
8
Layer 1
10
608.200000
20
170.600000
11
608.162500
21
170.562500
0
LINE
8
Layer 1
10
608.162500
20
170.562500
11
608.200000
21
170.600000
0
LINE
8
Layer 1
10
608.200000
20
170.600000
11
608.200000
21
180.500000
0
LINE
8
Layer 1
10
608.200000
20
180.500000
11
608.200000
21
185.500000
0
LINE
8
Layer 1
10
608.200000
20
185.500000
11
608.100000
21
185.600000
0
LINE
8
Layer 1
10
608.100000
20
185.600000
11
598.100000
21
185.600000
0
LINE
8
Layer 1
10
598.100000
20
185.600000
11
598.000000
21
185.500000
0
LINE
8
Layer 1
10
598.000000
20
185.500000
11
598.000000
21
180.600000
0
LINE
8
Layer 1
10
598.000000
20
180.600000
11
598.037500
21
180.562500
0
LINE
8
Layer 1
10
598.037500
20
180.562500
11
598.000000
21
180.600000
0
LINE
8
Layer 1
10
598.000000
20
180.600000
11
588.200000
21
180.600000
0
LINE
8
Layer 1
10
588.200000
20
180.600000
11
588.162500
21
180.562500
0
LINE
8
Layer 1
10
588.162500
20
180.562500
11
588.200000
21
180.600000
0
LINE
8
Layer 1
10
588.200000
20
180.600000
11
588.200000
21
185.500000
0
LINE
8
Layer 1
10
588.200000
20
185.500000
11
588.100000
21
185.600000
0
LINE
8
Layer 1
10
588.100000
20
185.600000
11
578.100000
21
185.600000
0
LINE
8
Layer 1
10
578.100000
20
185.600000
11
578.000000
21
185.500000
0
LINE
8
Layer 1
10
578.000000
20
185.500000
11
578.000000
21
180.600000
0
LINE
8
Layer 1
10
578.000000
20
180.600000
11
578.037500
21
180.562500
0
LINE
8
Layer 1
10
578.037500
20
180.562500
11
578.000000
21
180.600000
0
LINE
8
Layer 1
10
578.000000
20
180.600000
11
568.200000
21
180.600000
0
LINE
8
Layer 1
10
568.200000
20
180.600000
11
568.162500
21
180.562500
0
LINE
8
Layer 1
10
568.162500
20
180.562500
11
568.200000
21
180.600000
0
LINE
8
Layer 1
10
568.200000
20
180.600000
11
568.200000
21
185.500000
0
LINE
8
Layer 1
10
568.200000
20
185.500000
11
568.100000
21
185.600000
0
LINE
8
Layer 1
10
568.100000
20
185.600000
11
558.100000
21
185.600000
0
LINE
8
Layer 1
10
558.100000
20
185.600000
11
558.000000
21
185.500000
0
LINE
8
Layer 1
10
558.000000
20
185.500000
11
558.000000
21
180.600000
0
LINE
8
Layer 1
10
558.000000
20
180.600000
11
558.037500
21
180.562500
0
LINE
8
Layer 1
10
558.037500
20
180.562500
11
558.000000
21
180.600000
0
LINE
8
Layer 1
10
558.000000
20
180.600000
11
548.200000
21
180.600000
0
LINE
8
Layer 1
10
548.200000
20
180.600000
11
548.162500
21
180.562500
0
LINE
8
Layer 1
10
548.162500
20
180.562500
11
548.200000
21
180.600000
0
LINE
8
Layer 1
10
548.200000
20
180.600000
11
548.200000
21
185.500000
0
LINE
8
Layer 1
10
548.200000
20
185.500000
11
548.100000
21
185.600000
0
LINE
8
Layer 1
10
548.100000
20
185.600000
11
538.100000
21
185.600000
0
LINE
8
Layer 1
10
538.100000
20
185.600000
11
538.000000
21
185.500000
0
LINE
8
Layer 1
10
538.000000
20
185.500000
11
538.000000
21
180.600000
0
LINE
8
Layer 1
10
538.000000
20
180.600000
11
538.037500
21
180.562500
0
LINE
8
Layer 1
10
538.037500
20
180.562500
11
538.000000
21
180.600000
0
LINE
8
Layer 1
10
538.000000
20
180.600000
11
528.200000
21
180.600000
0
LINE
8
Layer 1
10
528.200000
20
180.600000
11
528.162500
21
180.562500
0
LINE
8
Layer 1
10
528.162500
20
180.562500
11
528.200000
21
180.600000
0
LINE
8
Layer 1
10
528.200000
20
180.600000
11
528.200000
21
185.500000
0
LINE
8
Layer 1
10
528.200000
20
185.500000
11
528.100000
21
185.600000
0
LINE
8
Layer 1
10
528.100000
20
185.600000
11
518.100000
21
185.600000
0
LINE
8
Layer 1
10
518.100000
20
185.600000
11
518.000000
21
185.500000
0
LINE
8
Layer 1
10
518.000000
20
185.500000
11
518.000000
21
180.600000
0
LINE
8
Layer 1
10
518.000000
20
180.600000
11
518.037500
21
180.562500
0
LINE
8
Layer 1
10
518.037500
20
180.562500
11
518.000000
21
180.600000
0
LINE
8
Layer 1
10
518.000000
20
180.600000
11
508.200000
21
180.600000
0
LINE
8
Layer 1
10
508.200000
20
180.600000
11
508.200000
21
180.600000
0
LINE
8
Layer 1
10
508.200000
20
180.600000
11
508.200000
21
185.500000
0
LINE
8
Layer 1
10
508.200000
20
185.500000
11
508.100000
21
185.600000
0
LINE
8
Layer 1
10
508.100000
20
185.600000
11
498.100000
21
185.600000
0
LINE
8
Layer 1
10
498.100000
20
185.600000
11
498.000000
21
185.500000
0
LINE
8
Layer 1
10
498.000000
20
185.500000
11
498.000000
21
180.600000
0
LINE
8
Layer 1
10
498.000000
20
180.600000
11
498.037500
21
180.562500
0
LINE
8
Layer 1
10
498.037500
20
180.562500
11
498.000000
21
180.600000
0
LINE
8
Layer 1
10
498.000000
20
180.600000
11
488.200000
21
180.600000
0
LINE
8
Layer 1
10
488.200000
20
180.600000
11
488.200000
21
180.600000
0
LINE
8
Layer 1
10
488.200000
20
180.600000
11
488.200000
21
185.500000
0
LINE
8
Layer 1
10
488.200000
20
185.500000
11
488.100000
21
185.600000
0
LINE
8
Layer 1
10
488.100000
20
185.600000
11
478.100000
21
185.600000
0
LINE
8
Layer 1
10
478.100000
20
185.600000
11
478.000000
21
185.500000
0
LINE
8
Layer 1
10
478.000000
20
185.500000
11
478.000000
21
180.600000
0
LINE
8
Layer 1
10
478.000000
20
180.600000
11
478.037500
21
180.562500
0
LINE
8
Layer 1
10
478.037500
20
180.562500
11
478.000000
21
180.600000
0
LINE
8
Layer 1
10
478.000000
20
180.600000
11
468.200000
21
180.600000
0
LINE
8
Layer 1
10
468.200000
20
180.600000
11
468.200000
21
180.600000
0
LINE
8
Layer 1
10
468.200000
20
180.600000
11
468.200000
21
185.500000
0
LINE
8
Layer 1
10
468.200000
20
185.500000
11
468.100000
21
185.600000
0
LINE
8
Layer 1
10
468.100000
20
185.600000
11
458.100000
21
185.600000
0
LINE
8
Layer 1
10
458.100000
20
185.600000
11
458.000000
21
185.500000
0
LINE
8
Layer 1
10
458.000000
20
185.500000
11
458.000000
21
180.600000
0
LINE
8
Layer 1
10
458.000000
20
180.600000
11
458.037500
21
180.562500
0
LINE
8
Layer 1
10
458.037500
20
180.562500
11
458.000000
21
180.600000
0
LINE
8
Layer 1
10
458.000000
20
180.600000
11
448.200000
21
180.600000
0
LINE
8
Layer 1
10
448.200000
20
180.600000
11
448.200000
21
180.600000
0
LINE
8
Layer 1
10
448.200000
20
180.600000
11
448.200000
21
185.500000
0
LINE
8
Layer 1
10
448.200000
20
185.500000
11
448.100000
21
185.600000
0
LINE
8
Layer 1
10
448.100000
20
185.600000
11
438.100000
21
185.600000
0
LINE
8
Layer 1
10
438.100000
20
185.600000
11
438.000000
21
185.500000
0
LINE
8
Layer 1
10
438.000000
20
185.500000
11
438.000000
21
180.600000
0
LINE
8
Layer 1
10
438.000000
20
180.600000
11
438.037500
21
180.562500
0
LINE
8
Layer 1
10
438.037500
20
180.562500
11
438.000000
21
180.600000
0
LINE
8
Layer 1
10
438.000000
20
180.600000
11
428.200000
21
180.600000
0
LINE
8
Layer 1
10
428.200000
20
180.600000
11
428.200000
21
180.600000
0
LINE
8
Layer 1
10
428.200000
20
180.600000
11
428.200000
21
185.500000
0
LINE
8
Layer 1
10
428.200000
20
185.500000
11
428.100000
21
185.600000
0
LINE
8
Layer 1
10
428.100000
20
185.600000
11
418.100000
21
185.600000
0
LINE
8
Layer 1
10
418.100000
20
185.600000
11
418.000000
21
185.500000
0
LINE
8
Layer 1
10
418.000000
20
185.500000
11
418.000000
21
180.600000
0
LINE
8
Layer 1
10
418.000000
20
180.600000
11
418.037500
21
180.562500
0
LINE
8
Layer 1
10
418.037500
20
180.562500
11
418.000000
21
180.600000
0
LINE
8
Layer 1
10
418.000000
20
180.600000
11
408.200000
21
180.600000
0
LINE
8
Layer 1
10
408.200000
20
180.600000
11
408.200000
21
180.600000
0
LINE
8
Layer 1
10
408.200000
20
180.600000
11
408.200000
21
185.500000
0
LINE
8
Layer 1
10
408.200000
20
185.500000
11
408.100000
21
185.600000
0
LINE
8
Layer 1
10
408.100000
20
185.600000
11
398.100000
21
185.600000
0
LINE
8
Layer 1
10
398.100000
20
185.600000
11
398.000000
21
185.500000
0
LINE
8
Layer 1
10
398.000000
20
185.500000
11
398.000000
21
180.600000
0
LINE
8
Layer 1
10
398.000000
20
180.600000
11
398.037500
21
180.562500
0
LINE
8
Layer 1
10
398.037500
20
180.562500
11
398.000000
21
180.600000
0
LINE
8
Layer 1
10
398.000000
20
180.600000
11
388.200000
21
180.600000
0
LINE
8
Layer 1
10
388.200000
20
180.600000
11
388.200000
21
180.600000
0
LINE
8
Layer 1
10
388.200000
20
180.600000
11
388.200000
21
185.500000
0
LINE
8
Layer 1
10
388.200000
20
185.500000
11
388.100000
21
185.600000
0
LINE
8
Layer 1
10
388.100000
20
185.600000
11
378.100000
21
185.600000
0
LINE
8
Layer 1
10
378.100000
20
185.600000
11
378.000000
21
185.500000
0
LINE
8
Layer 1
10
378.000000
20
185.500000
11
378.000000
21
180.600000
0
LINE
8
Layer 1
10
378.000000
20
180.600000
11
378.037500
21
180.562500
0
LINE
8
Layer 1
10
378.037500
20
180.562500
11
378.000000
21
180.600000
0
LINE
8
Layer 1
10
378.000000
20
180.600000
11
368.200000
21
180.600000
0
LINE
8
Layer 1
10
368.200000
20
180.600000
11
368.200000
21
180.600000
0
LINE
8
Layer 1
10
368.200000
20
180.600000
11
368.200000
21
185.500000
0
LINE
8
Layer 1
10
368.200000
20
185.500000
11
368.100000
21
185.600000
0
LINE
8
Layer 1
10
368.100000
20
185.600000
11
358.100000
21
185.600000
0
LINE
8
Layer 1
10
358.100000
20
185.600000
11
358.000000
21
185.500000
0
LINE
8
Layer 1
10
358.000000
20
185.500000
11
358.000000
21
180.600000
0
LINE
8
Layer 1
10
358.000000
20
180.600000
11
358.037500
21
180.562500
0
LINE
8
Layer 1
10
358.037500
20
180.562500
11
358.000000
21
180.600000
0
LINE
8
Layer 1
10
358.000000
20
180.600000
11
348.200000
21
180.600000
0
LINE
8
Layer 1
10
348.200000
20
180.600000
11
348.200000
21
180.600000
0
LINE
8
Layer 1
10
348.200000
20
180.600000
11
348.200000
21
185.500000
0
LINE
8
Layer 1
10
348.200000
20
185.500000
11
348.100000
21
185.600000
0
LINE
8
Layer 1
10
348.100000
20
185.600000
11
338.100000
21
185.600000
0
LINE
8
Layer 1
10
338.100000
20
185.600000
11
338.000000
21
185.500000
0
LINE
8
Layer 1
10
338.000000
20
185.500000
11
338.000000
21
180.600000
0
LINE
8
Layer 1
10
338.000000
20
180.600000
11
338.037500
21
180.562500
0
LINE
8
Layer 1
10
338.037500
20
180.562500
11
338.000000
21
180.600000
0
LINE
8
Layer 1
10
338.000000
20
180.600000
11
328.200000
21
180.600000
0
LINE
8
Layer 1
10
328.200000
20
180.600000
11
328.200000
21
180.600000
0
LINE
8
Layer 1
10
328.200000
20
180.600000
11
328.200000
21
185.500000
0
LINE
8
Layer 1
10
328.200000
20
185.500000
11
328.100000
21
185.600000
0
LINE
8
Layer 1
10
328.100000
20
185.600000
11
318.100000
21
185.600000
0
LINE
8
Layer 1
10
318.100000
20
185.600000
11
318.000000
21
185.500000
0
LINE
8
Layer 1
10
318.000000
20
185.500000
11
318.000000
21
180.600000
0
LINE
8
Layer 1
10
318.000000
20
180.600000
11
318.037500
21
180.562500
0
LINE
8
Layer 1
10
318.037500
20
180.562500
11
318.000000
21
180.600000
0
LINE
8
Layer 1
10
318.000000
20
180.600000
11
308.200000
21
180.600000
0
LINE
8
Layer 1
10
308.200000
20
180.600000
11
308.200000
21
180.600000
0
LINE
8
Layer 1
10
308.200000
20
180.600000
11
308.200000
21
185.500000
0
LINE
8
Layer 1
10
308.200000
20
185.500000
11
308.100000
21
185.600000
0
LINE
8
Layer 1
10
308.100000
20
185.600000
11
298.100000
21
185.600000
0
LINE
8
Layer 1
10
298.100000
20
185.600000
11
298.000000
21
185.500000
0
LINE
8
Layer 1
10
298.000000
20
185.500000
11
298.000000
21
180.600000
0
LINE
8
Layer 1
10
298.000000
20
180.600000
11
298.037500
21
180.562500
0
LINE
8
Layer 1
10
298.037500
20
180.562500
11
298.000000
21
180.600000
0
LINE
8
Layer 1
10
298.000000
20
180.600000
11
288.200000
21
180.600000
0
LINE
8
Layer 1
10
288.200000
20
180.600000
11
288.200000
21
180.600000
0
LINE
8
Layer 1
10
288.200000
20
180.600000
11
288.200000
21
185.500000
0
LINE
8
Layer 1
10
288.200000
20
185.500000
11
288.100000
21
185.600000
0
LINE
8
Layer 1
10
288.100000
20
185.600000
11
278.100000
21
185.600000
0
LINE
8
Layer 1
10
278.100000
20
185.600000
11
278.000000
21
185.500000
0
LINE
8
Layer 1
10
278.000000
20
185.500000
11
278.000000
21
180.600000
0
LINE
8
Layer 1
10
278.000000
20
180.600000
11
278.037500
21
180.562500
0
LINE
8
Layer 1
10
278.037500
20
180.562500
11
278.000000
21
180.600000
0
LINE
8
Layer 1
10
278.000000
20
180.600000
11
268.200000
21
180.600000
0
LINE
8
Layer 1
10
268.200000
20
180.600000
11
268.200000
21
180.600000
0
LINE
8
Layer 1
10
268.200000
20
180.600000
11
268.200000
21
185.500000
0
LINE
8
Layer 1
10
268.200000
20
185.500000
11
268.100000
21
185.600000
0
LINE
8
Layer 1
10
268.100000
20
185.600000
11
258.100000
21
185.600000
0
LINE
8
Layer 1
10
258.100000
20
185.600000
11
258.000000
21
185.500000
0
LINE
8
Layer 1
10
258.000000
20
185.500000
11
258.000000
21
180.600000
0
LINE
8
Layer 1
10
258.000000
20
180.600000
11
258.037500
21
180.562500
0
LINE
8
Layer 1
10
258.037500
20
180.562500
11
258.000000
21
180.600000
0
LINE
8
Layer 1
10
258.000000
20
180.600000
11
248.200000
21
180.600000
0
LINE
8
Layer 1
10
248.200000
20
180.600000
11
248.200000
21
180.600000
0
LINE
8
Layer 1
10
248.200000
20
180.600000
11
248.200000
21
185.500000
0
LINE
8
Layer 1
10
248.200000
20
185.500000
11
248.100000
21
185.600000
0
LINE
8
Layer 1
10
248.100000
20
185.600000
11
238.100000
21
185.600000
0
LINE
8
Layer 1
10
238.100000
20
185.600000
11
238.000000
21
185.500000
0
LINE
8
Layer 1
10
238.000000
20
185.500000
11
238.000000
21
180.600000
0
LINE
8
Layer 1
10
238.000000
20
180.600000
11
238.000000
21
180.600000
0
LINE
8
Layer 1
10
238.000000
20
180.600000
11
228.200000
21
180.600000
0
LINE
8
Layer 1
10
228.200000
20
180.600000
11
228.200000
21
180.600000
0
LINE
8
Layer 1
10
228.200000
20
180.600000
11
228.200000
21
185.500000
0
LINE
8
Layer 1
10
228.200000
20
185.500000
11
228.100000
21
185.600000
0
LINE
8
Layer 1
10
228.100000
20
185.600000
11
218.100000
21
185.600000
0
LINE
8
Layer 1
10
218.100000
20
185.600000
11
218.000000
21
185.500000
0
LINE
8
Layer 1
10
218.000000
20
185.500000
11
218.000000
21
180.500000
0
LINE
8
Layer 1
10
218.000000
20
180.500000
11
218.000000
21
170.600000
0
LINE
8
Layer 1
10
218.000000
20
170.600000
11
218.000000
21
170.600000
0
LINE
8
Layer 1
10
218.000000
20
170.600000
11
213.100000
21
170.600000
0
LINE
8
Layer 1
10
213.100000
20
170.600000
11
213.000000
21
170.500000
0
LINE
8
Layer 1
10
213.000000
20
170.500000
11
213.000000
21
160.500000
0
LINE
8
Layer 1
10
213.000000
20
160.500000
11
213.100000
21
160.400000
0
LINE
8
Layer 1
10
213.100000
20
160.400000
11
218.000000
21
160.400000
0
LINE
8
Layer 1
10
218.000000
20
160.400000
11
218.000000
21
160.400000
0
LINE
8
Layer 1
10
218.000000
20
160.400000
11
218.000000
21
150.600000
0
LINE
8
Layer 1
10
218.000000
20
150.600000
11
218.000000
21
150.600000
0
LINE
8
Layer 1
10
218.000000
20
150.600000
11
213.100000
21
150.600000
0
LINE
8
Layer 1
10
213.100000
20
150.600000
11
213.000000
21
150.500000
0
LINE
8
Layer 1
10
213.000000
20
150.500000
11
213.000000
21
140.500000
0
LINE
8
Layer 1
10
213.000000
20
140.500000
11
213.100000
21
140.400000
0
LINE
8
Layer 1
10
213.100000
20
140.400000
11
218.000000
21
140.400000
0
LINE
8
Layer 1
10
218.000000
20
140.400000
11
218.000000
21
140.400000
0
LINE
8
Layer 1
10
218.000000
20
140.400000
11
218.000000
21
130.600000
0
LINE
8
Layer 1
10
218.000000
20
130.600000
11
218.000000
21
130.600000
0
LINE
8
Layer 1
10
218.000000
20
130.600000
11
213.100000
21
130.600000
0
LINE
8
Layer 1
10
213.100000
20
130.600000
11
213.000000
21
130.500000
0
LINE
8
Layer 1
10
213.000000
20
130.500000
11
213.000000
21
120.500000
0
LINE
8
Layer 1
10
213.000000
20
120.500000
11
213.100000
21
120.400000
0
LINE
8
Layer 1
10
213.100000
20
120.400000
11
218.000000
21
120.400000
0
LINE
8
Layer 1
10
218.000000
20
120.400000
11
218.000000
21
120.400000
0
LINE
8
Layer 1
10
218.000000
20
120.400000
11
218.000000
21
110.500000
0
LINE
8
Layer 1
10
218.000000
20
110.500000
11
218.000000
21
105.500000
0
LINE
8
Layer 1
10
218.000000
20
105.500000
11
218.100000
21
105.400000
0
LINE
8
Layer 1
10
331.965000
20
328.100000
11
331.868039
21
327.119993
0
LINE
8
Layer 1
10
331.868039
20
327.119993
11
331.584398
21
326.186583
0
LINE
8
Layer 1
10
331.584398
20
326.186583
11
331.124941
21
325.325997
0
LINE
8
Layer 1
10
331.124941
20
325.325997
11
330.500534
21
324.564466
0
LINE
8
Layer 1
10
330.500534
20
324.564466
11
329.739003
21
323.940059
0
LINE
8
Layer 1
10
329.739003
20
323.940059
11
328.878417
21
323.480602
0
LINE
8
Layer 1
10
328.878417
20
323.480602
11
327.945007
21
323.196961
0
LINE
8
Layer 1
10
327.945007
20
323.196961
11
326.965000
21
323.100000
0
LINE
8
Layer 1
10
326.965000
20
323.100000
11
325.984993
21
323.196961
0
LINE
8
Layer 1
10
325.984993
20
323.196961
11
325.051583
21
323.480602
0
LINE
8
Layer 1
10
325.051583
20
323.480602
11
324.190997
21
323.940059
0
LINE
8
Layer 1
10
324.190997
20
323.940059
11
323.429466
21
324.564466
0
LINE
8
Layer 1
10
323.429466
20
324.564466
11
322.805059
21
325.325997
0
LINE
8
Layer 1
10
322.805059
20
325.325997
11
322.345602
21
326.186583
0
LINE
8
Layer 1
10
322.345602
20
326.186583
11
322.061961
21
327.119993
0
LINE
8
Layer 1
10
322.061961
20
327.119993
11
321.965000
21
328.100000
0
LINE
8
Layer 1
10
321.965000
20
328.100000
11
322.061961
21
329.080007
0
LINE
8
Layer 1
10
322.061961
20
329.080007
11
322.345602
21
330.013417
0
LINE
8
Layer 1
10
322.345602
20
330.013417
11
322.805059
21
330.874003
0
LINE
8
Layer 1
10
322.805059
20
330.874003
11
323.429466
21
331.635534
0
LINE
8
Layer 1
10
323.429466
20
331.635534
11
324.190997
21
332.259941
0
LINE
8
Layer 1
10
324.190997
20
332.259941
11
325.051583
21
332.719398
0
LINE
8
Layer 1
10
325.051583
20
332.719398
11
325.984993
21
333.003039
0
LINE
8
Layer 1
10
325.984993
20
333.003039
11
326.965000
21
333.100000
0
LINE
8
Layer 1
10
326.965000
20
333.100000
11
327.972674
21
332.998418
0
LINE
8
Layer 1
10
327.972674
20
332.998418
11
328.911226
21
332.707075
0
LINE
8
Layer 1
10
328.911226
20
332.707075
11
329.760548
21
332.246079
0
LINE
8
Layer 1
10
329.760548
20
332.246079
11
330.500534
21
331.635534
0
LINE
8
Layer 1
10
330.500534
20
331.635534
11
331.111079
21
330.895548
0
LINE
8
Layer 1
10
331.111079
20
330.895548
11
331.572075
21
330.046226
0
LINE
8
Layer 1
10
331.572075
20
330.046226
11
331.863418
21
329.107674
0
LINE
8
Layer 1
10
331.863418
20
329.107674
11
331.965000
21
328.100000
0
LINE
8
Layer 1
10
331.965000
20
328.100000
11
331.965000
21
328.100000
0
LINE
8
Layer 1
10
331.965030
20
262.612100
11
331.868069
21
261.632093
0
LINE
8
Layer 1
10
331.868069
20
261.632093
11
331.584428
21
260.698683
0
LINE
8
Layer 1
10
331.584428
20
260.698683
11
331.124971
21
259.838097
0
LINE
8
Layer 1
10
331.124971
20
259.838097
11
330.500564
21
259.076566
0
LINE
8
Layer 1
10
330.500564
20
259.076566
11
329.739033
21
258.452159
0
LINE
8
Layer 1
10
329.739033
20
258.452159
11
328.878447
21
257.992702
0
LINE
8
Layer 1
10
328.878447
20
257.992702
11
327.945037
21
257.709061
0
LINE
8
Layer 1
10
327.945037
20
257.709061
11
326.965030
21
257.612100
0
LINE
8
Layer 1
10
326.965030
20
257.612100
11
325.985023
21
257.709061
0
LINE
8
Layer 1
10
325.985023
20
257.709061
11
325.051613
21
257.992702
0
LINE
8
Layer 1
10
325.051613
20
257.992702
11
324.191027
21
258.452159
0
LINE
8
Layer 1
10
324.191027
20
258.452159
11
323.429496
21
259.076566
0
LINE
8
Layer 1
10
323.429496
20
259.076566
11
322.805089
21
259.838097
0
LINE
8
Layer 1
10
322.805089
20
259.838097
11
322.345632
21
260.698683
0
LINE
8
Layer 1
10
322.345632
20
260.698683
11
322.061991
21
261.632093
0
LINE
8
Layer 1
10
322.061991
20
261.632093
11
321.965030
21
262.612100
0
LINE
8
Layer 1
10
321.965030
20
262.612100
11
322.061991
21
263.592107
0
LINE
8
Layer 1
10
322.061991
20
263.592107
11
322.345632
21
264.525517
0
LINE
8
Layer 1
10
322.345632
20
264.525517
11
322.805089
21
265.386103
0
LINE
8
Layer 1
10
322.805089
20
265.386103
11
323.429496
21
266.147634
0
LINE
8
Layer 1
10
323.429496
20
266.147634
11
324.191027
21
266.772041
0
LINE
8
Layer 1
10
324.191027
20
266.772041
11
325.051613
21
267.231498
0
LINE
8
Layer 1
10
325.051613
20
267.231498
11
325.985023
21
267.515139
0
LINE
8
Layer 1
10
325.985023
20
267.515139
11
326.965030
21
267.612100
0
LINE
8
Layer 1
10
326.965030
20
267.612100
11
327.945037
21
267.515139
0
LINE
8
Layer 1
10
327.945037
20
267.515139
11
328.878447
21
267.231498
0
LINE
8
Layer 1
10
328.878447
20
267.231498
11
329.739033
21
266.772041
0
LINE
8
Layer 1
10
329.739033
20
266.772041
11
330.500564
21
266.147634
0
LINE
8
Layer 1
10
330.500564
20
266.147634
11
331.124971
21
265.386103
0
LINE
8
Layer 1
10
331.124971
20
265.386103
11
331.584428
21
264.525517
0
LINE
8
Layer 1
10
331.584428
20
264.525517
11
331.868069
21
263.592107
0
LINE
8
Layer 1
10
331.868069
20
263.592107
11
331.965030
21
262.612100
0
LINE
8
Layer 1
10
331.965030
20
262.612100
11
331.965030
21
262.612100
0
LINE
8
Layer 1
10
331.965010
20
423.356100
11
331.868049
21
422.376093
0
LINE
8
Layer 1
10
331.868049
20
422.376093
11
331.584408
21
421.442683
0
LINE
8
Layer 1
10
331.584408
20
421.442683
11
331.124951
21
420.582097
0
LINE
8
Layer 1
10
331.124951
20
420.582097
11
330.500544
21
419.820566
0
LINE
8
Layer 1
10
330.500544
20
419.820566
11
329.739013
21
419.196159
0
LINE
8
Layer 1
10
329.739013
20
419.196159
11
328.878427
21
418.736702
0
LINE
8
Layer 1
10
328.878427
20
418.736702
11
327.945017
21
418.453061
0
LINE
8
Layer 1
10
327.945017
20
418.453061
11
326.965010
21
418.356100
0
LINE
8
Layer 1
10
326.965010
20
418.356100
11
325.985003
21
418.453061
0
LINE
8
Layer 1
10
325.985003
20
418.453061
11
325.051593
21
418.736702
0
LINE
8
Layer 1
10
325.051593
20
418.736702
11
324.191007
21
419.196159
0
LINE
8
Layer 1
10
324.191007
20
419.196159
11
323.429476
21
419.820566
0
LINE
8
Layer 1
10
323.429476
20
419.820566
11
322.805069
21
420.582097
0
LINE
8
Layer 1
10
322.805069
20
420.582097
11
322.345612
21
421.442683
0
LINE
8
Layer 1
10
322.345612
20
421.442683
11
322.061971
21
422.376093
0
LINE
8
Layer 1
10
322.061971
20
422.376093
11
321.965010
21
423.356100
0
LINE
8
Layer 1
10
321.965010
20
423.356100
11
322.061971
21
424.336107
0
LINE
8
Layer 1
10
322.061971
20
424.336107
11
322.345612
21
425.269517
0
LINE
8
Layer 1
10
322.345612
20
425.269517
11
322.805069
21
426.130103
0
LINE
8
Layer 1
10
322.805069
20
426.130103
11
323.429476
21
426.891634
0
LINE
8
Layer 1
10
323.429476
20
426.891634
11
324.191007
21
427.516041
0
LINE
8
Layer 1
10
324.191007
20
427.516041
11
325.051593
21
427.975498
0
LINE
8
Layer 1
10
325.051593
20
427.975498
11
325.985003
21
428.259139
0
LINE
8
Layer 1
10
325.985003
20
428.259139
11
326.965010
21
428.356100
0
LINE
8
Layer 1
10
326.965010
20
428.356100
11
327.972684
21
428.254518
0
LINE
8
Layer 1
10
327.972684
20
428.254518
11
328.911236
21
427.963175
0
LINE
8
Layer 1
10
328.911236
20
427.963175
11
329.760558
21
427.502179
0
LINE
8
Layer 1
10
329.760558
20
427.502179
11
330.500544
21
426.891634
0
LINE
8
Layer 1
10
330.500544
20
426.891634
11
331.111089
21
426.151648
0
LINE
8
Layer 1
10
331.111089
20
426.151648
11
331.572085
21
425.302326
0
LINE
8
Layer 1
10
331.572085
20
425.302326
11
331.863428
21
424.363774
0
LINE
8
Layer 1
10
331.863428
20
424.363774
11
331.965010
21
423.356100
0
LINE
8
Layer 1
10
331.965010
20
423.356100
11
331.965010
21
423.356100
0
LINE
8
Layer 1
10
233.221000
20
598.100000
11
420.709000
21
598.100000
0
LINE
8
Layer 1
10
420.709000
20
598.100000
11
420.709000
21
248.612000
0
LINE
8
Layer 1
10
420.709000
20
248.612000
11
233.221000
21
248.612000
0
LINE
8
Layer 1
10
233.221000
20
248.612000
11
233.221000
21
598.100000
0
LINE
8
Layer 1
10
127.654000
20
137.287000
11
132.446000
21
137.287000
0
LINE
8
Layer 1
10
132.446000
20
137.287000
11
132.446000
21
122.494000
0
LINE
8
Layer 1
10
132.446000
20
122.494000
11
127.654000
21
122.494000
0
LINE
8
Layer 1
10
127.654000
20
122.494000
11
127.654000
21
137.287000
0
LINE
8
Layer 1
10
127.654000
20
169.573300
11
132.446000
21
169.573000
0
LINE
8
Layer 1
10
132.446000
20
169.573000
11
132.446000
21
154.781000
0
LINE
8
Layer 1
10
132.446000
20
154.781000
11
127.654000
21
154.781000
0
LINE
8
Layer 1
10
127.654000
20
154.781000
11
127.654000
21
169.573300
0
LINE
8
Layer 1
10
88.354000
20
137.688100
11
93.146400
21
137.688000
0
LINE
8
Layer 1
10
93.146400
20
137.688000
11
93.146400
21
122.895000
0
LINE
8
Layer 1
10
93.146400
20
122.895000
11
88.353600
21
122.895000
0
LINE
8
Layer 1
10
88.353600
20
122.895000
11
88.354000
21
137.688100
0
LINE
8
Layer 1
10
88.354000
20
169.974400
11
93.146400
21
169.975000
0
LINE
8
Layer 1
10
93.146400
20
169.975000
11
93.146400
21
155.182000
0
LINE
8
Layer 1
10
93.146400
20
155.182000
11
88.353600
21
155.182000
0
LINE
8
Layer 1
10
88.353600
20
155.182000
11
88.354000
21
169.974400
0
LINE
8
Layer 1
10
15.400000
20
106.134000
11
25.400000
21
106.134000
0
LINE
8
Layer 1
10
25.400000
20
106.134000
11
25.500000
21
106.234000
0
LINE
8
Layer 1
10
25.500000
20
106.234000
11
25.500000
21
111.134000
0
LINE
8
Layer 1
10
25.500000
20
111.134000
11
25.462500
21
111.171500
0
LINE
8
Layer 1
10
25.462500
20
111.171500
11
25.500000
21
111.134000
0
LINE
8
Layer 1
10
25.500000
20
111.134000
11
35.300000
21
111.134000
0
LINE
8
Layer 1
10
35.300000
20
111.134000
11
35.337500
21
111.171500
0
LINE
8
Layer 1
10
35.337500
20
111.171500
11
35.300000
21
111.134000
0
LINE
8
Layer 1
10
35.300000
20
111.134000
11
35.300000
21
106.234000
0
LINE
8
Layer 1
10
35.300000
20
106.234000
11
35.400000
21
106.134000
0
LINE
8
Layer 1
10
35.400000
20
106.134000
11
45.400000
21
106.134000
0
LINE
8
Layer 1
10
45.400000
20
106.134000
11
45.500000
21
106.234000
0
LINE
8
Layer 1
10
45.500000
20
106.234000
11
45.500000
21
111.134000
0
LINE
8
Layer 1
10
45.500000
20
111.134000
11
45.462500
21
111.171500
0
LINE
8
Layer 1
10
45.462500
20
111.171500
11
45.500000
21
111.134000
0
LINE
8
Layer 1
10
45.500000
20
111.134000
11
55.300000
21
111.134000
0
LINE
8
Layer 1
10
55.300000
20
111.134000
11
55.337500
21
111.171500
0
LINE
8
Layer 1
10
55.337500
20
111.171500
11
55.300000
21
111.134000
0
LINE
8
Layer 1
10
55.300000
20
111.134000
11
55.300000
21
106.234000
0
LINE
8
Layer 1
10
55.300000
20
106.234000
11
55.400000
21
106.134000
0
LINE
8
Layer 1
10
55.400000
20
106.134000
11
65.400000
21
106.134000
0
LINE
8
Layer 1
10
65.400000
20
106.134000
11
65.500000
21
106.234000
0
LINE
8
Layer 1
10
65.500000
20
106.234000
11
65.500000
21
111.134000
0
LINE
8
Layer 1
10
65.500000
20
111.134000
11
65.500000
21
111.134000
0
LINE
8
Layer 1
10
65.500000
20
111.134000
11
75.300000
21
111.134000
0
LINE
8
Layer 1
10
75.300000
20
111.134000
11
75.300000
21
111.134000
0
LINE
8
Layer 1
10
75.300000
20
111.134000
11
75.300000
21
106.234000
0
LINE
8
Layer 1
10
75.300000
20
106.234000
11
75.400000
21
106.134000
0
LINE
8
Layer 1
10
75.400000
20
106.134000
11
85.400000
21
106.134000
0
LINE
8
Layer 1
10
85.400000
20
106.134000
11
85.500000
21
106.234000
0
LINE
8
Layer 1
10
85.500000
20
106.234000
11
85.500000
21
111.134000
0
LINE
8
Layer 1
10
85.500000
20
111.134000
11
85.500000
21
111.134000
0
LINE
8
Layer 1
10
85.500000
20
111.134000
11
95.300000
21
111.134000
0
LINE
8
Layer 1
10
95.300000
20
111.134000
11
95.300000
21
111.134000
0
LINE
8
Layer 1
10
95.300000
20
111.134000
11
95.300000
21
106.234000
0
LINE
8
Layer 1
10
95.300000
20
106.234000
11
95.400000
21
106.134000
0
LINE
8
Layer 1
10
95.400000
20
106.134000
11
105.400000
21
106.134000
0
LINE
8
Layer 1
10
105.400000
20
106.134000
11
105.500000
21
106.234000
0
LINE
8
Layer 1
10
105.500000
20
106.234000
11
105.500000
21
111.134000
0
LINE
8
Layer 1
10
105.500000
20
111.134000
11
105.500000
21
111.134000
0
LINE
8
Layer 1
10
105.500000
20
111.134000
11
115.300000
21
111.134000
0
LINE
8
Layer 1
10
115.300000
20
111.134000
11
115.300000
21
111.134000
0
LINE
8
Layer 1
10
115.300000
20
111.134000
11
115.300000
21
106.234000
0
LINE
8
Layer 1
10
115.300000
20
106.234000
11
115.400000
21
106.134000
0
LINE
8
Layer 1
10
115.400000
20
106.134000
11
125.400000
21
106.134000
0
LINE
8
Layer 1
10
125.400000
20
106.134000
11
125.500000
21
106.234000
0
LINE
8
Layer 1
10
125.500000
20
106.234000
11
125.500000
21
111.134000
0
LINE
8
Layer 1
10
125.500000
20
111.134000
11
125.500000
21
111.134000
0
LINE
8
Layer 1
10
125.500000
20
111.134000
11
135.300000
21
111.134000
0
LINE
8
Layer 1
10
135.300000
20
111.134000
11
135.300000
21
111.134000
0
LINE
8
Layer 1
10
135.300000
20
111.134000
11
135.300000
21
106.234000
0
LINE
8
Layer 1
10
135.300000
20
106.234000
11
135.400000
21
106.134000
0
LINE
8
Layer 1
10
135.400000
20
106.134000
11
145.400000
21
106.134000
0
LINE
8
Layer 1
10
145.400000
20
106.134000
11
145.500000
21
106.234000
0
LINE
8
Layer 1
10
145.500000
20
106.234000
11
145.500000
21
111.134000
0
LINE
8
Layer 1
10
145.500000
20
111.134000
11
145.500000
21
111.134000
0
LINE
8
Layer 1
10
145.500000
20
111.134000
11
155.300000
21
111.134000
0
LINE
8
Layer 1
10
155.300000
20
111.134000
11
155.300000
21
111.134000
0
LINE
8
Layer 1
10
155.300000
20
111.134000
11
155.300000
21
106.234000
0
LINE
8
Layer 1
10
155.300000
20
106.234000
11
155.400000
21
106.134000
0
LINE
8
Layer 1
10
155.400000
20
106.134000
11
165.400000
21
106.134000
0
LINE
8
Layer 1
10
165.400000
20
106.134000
11
165.500000
21
106.234000
0
LINE
8
Layer 1
10
165.500000
20
106.234000
11
165.500000
21
111.134000
0
LINE
8
Layer 1
10
165.500000
20
111.134000
11
165.500000
21
111.134000
0
LINE
8
Layer 1
10
165.500000
20
111.134000
11
175.300000
21
111.134000
0
LINE
8
Layer 1
10
175.300000
20
111.134000
11
175.300000
21
111.134000
0
LINE
8
Layer 1
10
175.300000
20
111.134000
11
175.300000
21
106.234000
0
LINE
8
Layer 1
10
175.300000
20
106.234000
11
175.400000
21
106.134000
0
LINE
8
Layer 1
10
175.400000
20
106.134000
11
185.400000
21
106.134000
0
LINE
8
Layer 1
10
185.400000
20
106.134000
11
185.500000
21
106.234000
0
LINE
8
Layer 1
10
185.500000
20
106.234000
11
185.500000
21
111.134000
0
LINE
8
Layer 1
10
185.500000
20
111.134000
11
185.500000
21
111.134000
0
LINE
8
Layer 1
10
185.500000
20
111.134000
11
195.300000
21
111.134000
0
LINE
8
Layer 1
10
195.300000
20
111.134000
11
195.300000
21
111.134000
0
LINE
8
Layer 1
10
195.300000
20
111.134000
11
195.300000
21
106.234000
0
LINE
8
Layer 1
10
195.300000
20
106.234000
11
195.400000
21
106.134000
0
LINE
8
Layer 1
10
195.400000
20
106.134000
11
205.400000
21
106.134000
0
LINE
8
Layer 1
10
205.400000
20
106.134000
11
210.400000
21
106.134000
0
LINE
8
Layer 1
10
210.400000
20
106.134000
11
210.500000
21
106.234000
0
LINE
8
Layer 1
10
210.500000
20
106.234000
11
210.500000
21
111.234000
0
LINE
8
Layer 1
10
210.500000
20
111.234000
11
210.500000
21
121.234000
0
LINE
8
Layer 1
10
210.500000
20
121.234000
11
210.400000
21
121.334000
0
LINE
8
Layer 1
10
210.400000
20
121.334000
11
205.500000
21
121.334000
0
LINE
8
Layer 1
10
205.500000
20
121.334000
11
205.500000
21
121.334000
0
LINE
8
Layer 1
10
205.500000
20
121.334000
11
205.500000
21
131.134000
0
LINE
8
Layer 1
10
205.500000
20
131.134000
11
205.500000
21
131.134000
0
LINE
8
Layer 1
10
205.500000
20
131.134000
11
210.400000
21
131.134000
0
LINE
8
Layer 1
10
210.400000
20
131.134000
11
210.500000
21
131.234000
0
LINE
8
Layer 1
10
210.500000
20
131.234000
11
210.500000
21
141.234000
0
LINE
8
Layer 1
10
210.500000
20
141.234000
11
210.400000
21
141.334000
0
LINE
8
Layer 1
10
210.400000
20
141.334000
11
205.500000
21
141.334000
0
LINE
8
Layer 1
10
205.500000
20
141.334000
11
205.500000
21
141.334000
0
LINE
8
Layer 1
10
205.500000
20
141.334000
11
205.500000
21
151.134000
0
LINE
8
Layer 1
10
205.500000
20
151.134000
11
205.500000
21
151.134000
0
LINE
8
Layer 1
10
205.500000
20
151.134000
11
210.400000
21
151.134000
0
LINE
8
Layer 1
10
210.400000
20
151.134000
11
210.500000
21
151.234000
0
LINE
8
Layer 1
10
210.500000
20
151.234000
11
210.500000
21
161.234000
0
LINE
8
Layer 1
10
210.500000
20
161.234000
11
210.400000
21
161.334000
0
LINE
8
Layer 1
10
210.400000
20
161.334000
11
205.500000
21
161.334000
0
LINE
8
Layer 1
10
205.500000
20
161.334000
11
205.500000
21
161.334000
0
LINE
8
Layer 1
10
205.500000
20
161.334000
11
205.500000
21
171.134000
0
LINE
8
Layer 1
10
205.500000
20
171.134000
11
205.500000
21
171.134000
0
LINE
8
Layer 1
10
205.500000
20
171.134000
11
210.400000
21
171.134000
0
LINE
8
Layer 1
10
210.400000
20
171.134000
11
210.500000
21
171.234000
0
LINE
8
Layer 1
10
210.500000
20
171.234000
11
210.500000
21
181.234000
0
LINE
8
Layer 1
10
210.500000
20
181.234000
11
210.500000
21
186.234000
0
LINE
8
Layer 1
10
210.500000
20
186.234000
11
210.400000
21
186.334000
0
LINE
8
Layer 1
10
210.400000
20
186.334000
11
205.400000
21
186.334000
0
LINE
8
Layer 1
10
205.400000
20
186.334000
11
195.400000
21
186.334000
0
LINE
8
Layer 1
10
195.400000
20
186.334000
11
195.300000
21
186.234000
0
LINE
8
Layer 1
10
195.300000
20
186.234000
11
195.300000
21
181.334000
0
LINE
8
Layer 1
10
195.300000
20
181.334000
11
195.300000
21
181.334000
0
LINE
8
Layer 1
10
195.300000
20
181.334000
11
185.500000
21
181.334000
0
LINE
8
Layer 1
10
185.500000
20
181.334000
11
185.500000
21
181.334000
0
LINE
8
Layer 1
10
185.500000
20
181.334000
11
185.500000
21
186.234000
0
LINE
8
Layer 1
10
185.500000
20
186.234000
11
185.400000
21
186.334000
0
LINE
8
Layer 1
10
185.400000
20
186.334000
11
175.400000
21
186.334000
0
LINE
8
Layer 1
10
175.400000
20
186.334000
11
175.300000
21
186.234000
0
LINE
8
Layer 1
10
175.300000
20
186.234000
11
175.300000
21
181.334000
0
LINE
8
Layer 1
10
175.300000
20
181.334000
11
175.300000
21
181.334000
0
LINE
8
Layer 1
10
175.300000
20
181.334000
11
165.500000
21
181.334000
0
LINE
8
Layer 1
10
165.500000
20
181.334000
11
165.500000
21
181.334000
0
LINE
8
Layer 1
10
165.500000
20
181.334000
11
165.500000
21
186.234000
0
LINE
8
Layer 1
10
165.500000
20
186.234000
11
165.400000
21
186.334000
0
LINE
8
Layer 1
10
165.400000
20
186.334000
11
155.400000
21
186.334000
0
LINE
8
Layer 1
10
155.400000
20
186.334000
11
155.300000
21
186.234000
0
LINE
8
Layer 1
10
155.300000
20
186.234000
11
155.300000
21
181.334000
0
LINE
8
Layer 1
10
155.300000
20
181.334000
11
155.300000
21
181.334000
0
LINE
8
Layer 1
10
155.300000
20
181.334000
11
145.500000
21
181.334000
0
LINE
8
Layer 1
10
145.500000
20
181.334000
11
145.500000
21
181.334000
0
LINE
8
Layer 1
10
145.500000
20
181.334000
11
145.500000
21
186.234000
0
LINE
8
Layer 1
10
145.500000
20
186.234000
11
145.400000
21
186.334000
0
LINE
8
Layer 1
10
145.400000
20
186.334000
11
135.400000
21
186.334000
0
LINE
8
Layer 1
10
135.400000
20
186.334000
11
135.300000
21
186.234000
0
LINE
8
Layer 1
10
135.300000
20
186.234000
11
135.300000
21
181.334000
0
LINE
8
Layer 1
10
135.300000
20
181.334000
11
135.300000
21
181.334000
0
LINE
8
Layer 1
10
135.300000
20
181.334000
11
125.500000
21
181.334000
0
LINE
8
Layer 1
10
125.500000
20
181.334000
11
125.500000
21
181.334000
0
LINE
8
Layer 1
10
125.500000
20
181.334000
11
125.500000
21
186.234000
0
LINE
8
Layer 1
10
125.500000
20
186.234000
11
125.400000
21
186.334000
0
LINE
8
Layer 1
10
125.400000
20
186.334000
11
115.400000
21
186.334000
0
LINE
8
Layer 1
10
115.400000
20
186.334000
11
115.300000
21
186.234000
0
LINE
8
Layer 1
10
115.300000
20
186.234000
11
115.300000
21
181.334000
0
LINE
8
Layer 1
10
115.300000
20
181.334000
11
115.300000
21
181.334000
0
LINE
8
Layer 1
10
115.300000
20
181.334000
11
105.500000
21
181.334000
0
LINE
8
Layer 1
10
105.500000
20
181.334000
11
105.500000
21
181.334000
0
LINE
8
Layer 1
10
105.500000
20
181.334000
11
105.500000
21
186.234000
0
LINE
8
Layer 1
10
105.500000
20
186.234000
11
105.400000
21
186.334000
0
LINE
8
Layer 1
10
105.400000
20
186.334000
11
95.400000
21
186.334000
0
LINE
8
Layer 1
10
95.400000
20
186.334000
11
95.300000
21
186.234000
0
LINE
8
Layer 1
10
95.300000
20
186.234000
11
95.300000
21
181.334000
0
LINE
8
Layer 1
10
95.300000
20
181.334000
11
95.300000
21
181.334000
0
LINE
8
Layer 1
10
95.300000
20
181.334000
11
85.500000
21
181.334000
0
LINE
8
Layer 1
10
85.500000
20
181.334000
11
85.500000
21
181.334000
0
LINE
8
Layer 1
10
85.500000
20
181.334000
11
85.500000
21
186.234000
0
LINE
8
Layer 1
10
85.500000
20
186.234000
11
85.400000
21
186.334000
0
LINE
8
Layer 1
10
85.400000
20
186.334000
11
75.400000
21
186.334000
0
LINE
8
Layer 1
10
75.400000
20
186.334000
11
75.300000
21
186.234000
0
LINE
8
Layer 1
10
75.300000
20
186.234000
11
75.300000
21
181.334000
0
LINE
8
Layer 1
10
75.300000
20
181.334000
11
75.300000
21
181.334000
0
LINE
8
Layer 1
10
75.300000
20
181.334000
11
65.500000
21
181.334000
0
LINE
8
Layer 1
10
65.500000
20
181.334000
11
65.500000
21
181.334000
0
LINE
8
Layer 1
10
65.500000
20
181.334000
11
65.500000
21
186.234000
0
LINE
8
Layer 1
10
65.500000
20
186.234000
11
65.400000
21
186.334000
0
LINE
8
Layer 1
10
65.400000
20
186.334000
11
55.400000
21
186.334000
0
LINE
8
Layer 1
10
55.400000
20
186.334000
11
55.300000
21
186.234000
0
LINE
8
Layer 1
10
55.300000
20
186.234000
11
55.300000
21
181.334000
0
LINE
8
Layer 1
10
55.300000
20
181.334000
11
55.337500
21
181.296500
0
LINE
8
Layer 1
10
55.337500
20
181.296500
11
55.300000
21
181.334000
0
LINE
8
Layer 1
10
55.300000
20
181.334000
11
45.500000
21
181.334000
0
LINE
8
Layer 1
10
45.500000
20
181.334000
11
45.462500
21
181.296500
0
LINE
8
Layer 1
10
45.462500
20
181.296500
11
45.500000
21
181.334000
0
LINE
8
Layer 1
10
45.500000
20
181.334000
11
45.500000
21
186.234000
0
LINE
8
Layer 1
10
45.500000
20
186.234000
11
45.400000
21
186.334000
0
LINE
8
Layer 1
10
45.400000
20
186.334000
11
35.400000
21
186.334000
0
LINE
8
Layer 1
10
35.400000
20
186.334000
11
35.300000
21
186.234000
0
LINE
8
Layer 1
10
35.300000
20
186.234000
11
35.300000
21
181.334000
0
LINE
8
Layer 1
10
35.300000
20
181.334000
11
35.337500
21
181.296500
0
LINE
8
Layer 1
10
35.337500
20
181.296500
11
35.300000
21
181.334000
0
LINE
8
Layer 1
10
35.300000
20
181.334000
11
25.500000
21
181.334000
0
LINE
8
Layer 1
10
25.500000
20
181.334000
11
25.462500
21
181.296500
0
LINE
8
Layer 1
10
25.462500
20
181.296500
11
25.500000
21
181.334000
0
LINE
8
Layer 1
10
25.500000
20
181.334000
11
25.500000
21
186.234000
0
LINE
8
Layer 1
10
25.500000
20
186.234000
11
25.400000
21
186.334000
0
LINE
8
Layer 1
10
25.400000
20
186.334000
11
15.400000
21
186.334000
0
LINE
8
Layer 1
10
15.400000
20
186.334000
11
10.400000
21
186.334000
0
LINE
8
Layer 1
10
10.400000
20
186.334000
11
10.300000
21
186.234000
0
LINE
8
Layer 1
10
10.300000
20
186.234000
11
10.300000
21
181.234000
0
LINE
8
Layer 1
10
10.300000
20
181.234000
11
10.300000
21
171.234000
0
LINE
8
Layer 1
10
10.300000
20
171.234000
11
10.400000
21
171.134000
0
LINE
8
Layer 1
10
10.400000
20
171.134000
11
15.300000
21
171.134000
0
LINE
8
Layer 1
10
15.300000
20
171.134000
11
15.300000
21
171.134000
0
LINE
8
Layer 1
10
15.300000
20
171.134000
11
15.300000
21
161.334000
0
LINE
8
Layer 1
10
15.300000
20
161.334000
11
15.300000
21
161.334000
0
LINE
8
Layer 1
10
15.300000
20
161.334000
11
10.400000
21
161.334000
0
LINE
8
Layer 1
10
10.400000
20
161.334000
11
10.300000
21
161.234000
0
LINE
8
Layer 1
10
10.300000
20
161.234000
11
10.300000
21
151.234000
0
LINE
8
Layer 1
10
10.300000
20
151.234000
11
10.400000
21
151.134000
0
LINE
8
Layer 1
10
10.400000
20
151.134000
11
15.300000
21
151.134000
0
LINE
8
Layer 1
10
15.300000
20
151.134000
11
15.300000
21
151.134000
0
LINE
8
Layer 1
10
15.300000
20
151.134000
11
15.300000
21
141.334000
0
LINE
8
Layer 1
10
15.300000
20
141.334000
11
15.300000
21
141.334000
0
LINE
8
Layer 1
10
15.300000
20
141.334000
11
10.400000
21
141.334000
0
LINE
8
Layer 1
10
10.400000
20
141.334000
11
10.300000
21
141.234000
0
LINE
8
Layer 1
10
10.300000
20
141.234000
11
10.300000
21
131.234000
0
LINE
8
Layer 1
10
10.300000
20
131.234000
11
10.400000
21
131.134000
0
LINE
8
Layer 1
10
10.400000
20
131.134000
11
15.300000
21
131.134000
0
LINE
8
Layer 1
10
15.300000
20
131.134000
11
15.300000
21
131.134000
0
LINE
8
Layer 1
10
15.300000
20
131.134000
11
15.300000
21
121.334000
0
LINE
8
Layer 1
10
15.300000
20
121.334000
11
15.300000
21
121.334000
0
LINE
8
Layer 1
10
15.300000
20
121.334000
11
10.400000
21
121.334000
0
LINE
8
Layer 1
10
10.400000
20
121.334000
11
10.300000
21
121.234000
0
LINE
8
Layer 1
10
10.300000
20
121.234000
11
10.300000
21
111.234000
0
LINE
8
Layer 1
10
10.300000
20
111.234000
11
10.300000
21
106.234000
0
LINE
8
Layer 1
10
10.300000
20
106.234000
11
10.400000
21
106.134000
0
LINE
8
Layer 1
10
10.400000
20
106.134000
11
15.400000
21
106.134000
 0 
ENDSEC
 0 
EOF